<svg width="182" height="46" viewBox="0 0 182 46" fill="none" xmlns="http://www.w3.org/2000/svg">
<path opacity="0.5" d="M182 0H136.5V45.5H182V0Z" fill="white"/>
<path opacity="0.5" d="M113.75 0H68.25V45.5H113.75V0Z" fill="white"/>
<path opacity="0.5" d="M45.5 0H0V45.5H45.5V0Z" fill="white"/>
<path fill-rule="evenodd" clip-rule="evenodd" d="M150.443 13.9434H168.056V31.5563H150.443V13.9434ZM152.4 15.9003V29.5993H166.099V15.9003H152.4Z" fill="white"/>
<path fill-rule="evenodd" clip-rule="evenodd" d="M16.1455 13.9434H31.5568V29.3546L16.1455 13.9434ZM20.8509 15.8924L29.6078 24.6493V15.8924H20.8509Z" fill="white"/>
<path fill-rule="evenodd" clip-rule="evenodd" d="M13.9434 16.1455L29.3546 31.5568H13.9434V16.1455ZM15.8923 20.8508V29.6078H24.6493L15.8923 20.8508Z" fill="white"/>
<path fill-rule="evenodd" clip-rule="evenodd" d="M91.0003 11.0078L102.008 21.282H79.9922L91.0003 11.0078ZM84.8568 19.3763H97.1437L91.0003 13.6424L84.8568 19.3763Z" fill="white"/>
<path fill-rule="evenodd" clip-rule="evenodd" d="M79.9922 24.2178H102.008L91.0003 34.492L79.9922 24.2178ZM84.8568 26.1235L91.0003 31.8574L97.1437 26.1235H84.8568Z" fill="white"/>
<path d="M159.25 25.6854C160.871 25.6854 162.185 24.3712 162.185 22.7499C162.185 21.1287 160.871 19.8145 159.25 19.8145C157.629 19.8145 156.314 21.1287 156.314 22.7499C156.314 24.3712 157.629 25.6854 159.25 25.6854Z" fill="white"/>
</svg>
