<svg width="396" height="769" viewBox="0 0 396 769" fill="none" xmlns="http://www.w3.org/2000/svg">
<g filter="url(#filter0_b_21_31071)">
<path d="M291.862 614.689L267.354 590.154L273.841 583.659L292.582 601.7C336.552 556.237 361.06 496.341 361.06 432.837C361.06 369.333 336.552 309.437 292.582 263.974L274.562 282.014L268.074 275.52L291.862 251.706L294.744 254.593C342.318 302.221 368.989 365.724 368.989 432.837C368.989 499.949 342.318 563.453 294.744 611.081L291.862 614.689Z" fill="white" fill-opacity="0.4"/>
<path d="M145.474 704.629C145.474 702.463 146.918 701.019 148.361 700.297C150.527 700.297 151.97 701.741 152.692 703.184C152.692 705.35 151.248 706.794 149.805 707.515C149.805 707.515 149.805 707.515 149.083 707.515C146.917 708.237 145.474 706.794 145.474 704.629ZM173.626 700.297C172.904 698.131 174.348 696.688 176.514 695.966C178.679 695.244 180.123 696.688 180.845 698.854C181.567 701.019 180.123 702.463 177.957 703.184H177.235C175.792 703.184 174.348 701.741 173.626 700.297ZM201.779 693.078C201.057 690.913 202.5 689.469 203.944 688.747C206.109 688.026 207.553 688.748 208.275 690.913C208.996 693.079 208.275 694.522 206.11 695.244C206.11 695.244 205.387 695.244 204.665 695.244C203.944 695.244 202.501 694.522 201.779 693.078ZM228.487 682.973C227.765 680.807 228.487 678.641 229.93 677.92C232.096 677.198 233.54 677.92 234.984 680.086C235.706 682.251 234.983 683.694 232.818 685.138C232.096 685.138 232.096 685.86 231.375 685.86C230.653 684.416 229.209 683.695 228.487 682.973ZM254.473 669.258C253.752 667.814 253.752 665.648 255.918 664.204C257.361 663.482 259.527 663.483 260.97 665.648C261.692 667.092 261.693 669.257 259.527 670.701C258.805 670.701 258.083 671.423 257.361 671.423C255.917 671.423 255.195 670.701 254.473 669.258ZM278.295 654.099C276.851 652.655 277.573 650.489 279.017 649.045C280.46 647.602 282.626 648.323 284.069 649.767C285.513 651.211 284.791 653.377 283.348 654.821C282.626 655.542 281.904 655.542 281.183 655.542C280.461 654.82 279.017 654.821 278.295 654.099ZM300.672 635.33C299.229 633.886 299.229 631.721 300.672 630.277C302.116 628.834 304.281 628.834 305.725 630.277C307.169 631.721 307.169 633.886 305.725 635.33C305.003 636.052 304.282 636.053 303.56 636.053C302.838 636.774 301.394 636.052 300.672 635.33ZM321.606 615.119C320.163 613.675 320.163 611.509 320.885 610.065C322.328 608.621 324.494 608.621 325.937 610.065C327.381 611.509 327.381 613.675 325.937 615.119C325.215 615.84 324.493 616.562 323.05 616.562C323.05 615.84 321.606 615.84 321.606 615.119ZM339.653 592.741C338.209 591.298 337.487 589.132 338.931 587.688C340.375 586.244 342.54 585.522 343.984 586.966C345.427 588.41 346.149 590.575 344.705 592.019C343.983 592.741 342.54 593.463 341.818 593.463C340.374 593.463 339.653 593.463 339.653 592.741ZM354.811 568.198C353.368 567.476 352.646 565.31 353.368 563.145C354.09 561.701 356.255 560.979 358.421 561.701C360.586 562.423 360.586 564.588 359.864 566.754C359.142 568.198 357.699 568.92 356.977 568.92C356.255 568.92 355.533 568.92 354.811 568.198ZM367.805 542.933C365.64 542.211 364.917 540.045 365.639 537.88C366.361 535.714 368.526 534.993 370.692 535.715C372.857 536.437 373.58 538.602 372.858 540.767C372.136 542.211 370.692 542.933 369.249 542.933C368.527 542.933 368.527 542.933 367.805 542.933ZM377.91 515.502C375.745 514.781 375.023 512.615 375.745 511.171C376.467 509.006 378.633 508.284 380.076 509.006C382.242 509.727 382.964 511.894 382.242 513.337C381.52 514.781 380.077 516.224 378.633 516.224C378.633 515.502 378.632 515.502 377.91 515.502ZM385.129 488.072C382.963 488.072 382.242 485.906 382.242 483.741C382.964 481.575 384.408 480.854 386.573 480.854C388.739 481.576 390.183 483.019 389.461 485.185C389.461 486.629 388.016 488.072 385.129 488.072C385.851 488.072 385.851 488.072 385.129 488.072ZM389.461 459.198C387.295 459.198 385.852 457.033 385.852 455.589C385.852 453.423 388.017 451.98 389.461 451.98C391.626 451.98 393.07 454.145 393.07 455.589C393.792 457.755 391.626 459.198 389.461 459.198ZM387.295 426.715C387.295 424.549 388.739 423.106 390.904 423.106C393.07 423.106 394.513 424.549 394.513 426.715C394.513 428.88 393.07 430.324 390.904 430.324C388.739 430.324 387.295 428.88 387.295 426.715ZM385.129 398.562C385.129 396.397 386.573 394.953 388.017 394.231C390.182 394.231 391.626 395.674 391.626 397.118C391.626 399.284 390.182 400.728 388.738 401.45C388.738 401.45 388.738 401.45 388.017 401.45C386.573 401.45 385.129 400.006 385.129 398.562ZM380.076 370.41C379.354 368.244 380.798 366.801 382.964 366.079C385.129 365.357 386.573 366.801 387.295 368.967C388.017 371.132 386.573 372.576 384.407 373.297H383.686C382.242 373.297 380.076 372.575 380.076 370.41ZM372.136 342.979C371.414 340.814 372.136 339.37 374.301 338.648C376.467 337.926 377.911 338.648 378.633 340.814C379.355 342.98 378.633 344.423 376.467 345.145C375.745 345.145 375.746 345.145 375.024 345.145C374.302 345.867 372.858 344.423 372.136 342.979ZM361.308 316.992C360.586 314.827 361.308 312.662 362.752 311.94C364.917 311.218 366.361 311.94 367.805 313.383C368.527 315.549 367.805 316.993 366.361 318.437C365.639 318.437 365.639 318.437 364.918 318.437C362.752 319.159 362.03 318.436 361.308 316.992ZM347.593 291.728C346.871 290.284 346.871 287.397 349.036 286.675C350.48 285.953 352.646 285.953 354.09 288.118C354.812 289.562 354.811 291.728 352.645 293.172C351.924 293.894 351.202 293.893 350.48 293.893C349.759 293.893 348.315 293.171 347.593 291.728ZM331.712 268.629C330.269 267.185 330.99 265.019 332.434 263.575C333.878 262.131 336.043 262.854 337.487 264.298C338.93 265.741 338.209 267.907 336.765 269.35C336.043 270.072 335.321 270.072 334.599 270.072C333.155 270.072 332.434 269.35 331.712 268.629ZM312.944 246.973C311.5 245.529 311.5 243.363 312.944 241.919C314.387 240.476 316.553 240.476 317.997 241.919C319.441 243.363 319.441 245.529 317.997 246.973C317.275 247.695 316.553 247.695 315.109 247.695C314.388 247.695 313.665 247.695 312.944 246.973ZM292.732 227.482C291.288 226.039 291.289 223.873 292.01 222.43C293.454 220.986 295.619 220.986 297.063 221.708C298.507 223.152 298.507 225.317 297.785 226.761C297.063 227.483 296.341 228.205 294.897 228.205C294.175 228.205 292.732 228.204 292.732 227.482ZM-54.4796 220.264C-55.9233 218.82 -55.2016 216.655 -53.7579 215.211C-52.3142 213.768 -50.149 214.489 -48.7053 215.933C-47.2616 217.377 -47.9833 219.543 -49.427 220.986C-50.1488 221.708 -50.871 221.708 -51.5929 221.708C-52.3147 221.708 -53.7577 220.986 -54.4796 220.264ZM269.632 210.159C268.189 209.437 267.467 206.549 268.911 205.105C270.354 203.661 272.52 202.94 273.964 204.383C275.408 205.827 276.129 207.992 274.686 209.436C273.964 210.158 272.52 210.88 271.798 210.88C271.076 210.88 270.354 210.88 269.632 210.159ZM-30.6589 203.662C-32.1026 202.218 -31.381 200.052 -29.9373 198.608C-28.4936 197.886 -26.3275 197.887 -24.8838 200.052C-24.1619 201.496 -24.1617 203.661 -25.6054 205.105C-26.3273 205.105 -27.0495 205.827 -27.7713 205.827C-29.2151 205.105 -30.6589 204.384 -30.6589 203.662ZM245.812 194.999C244.368 194.277 243.646 192.112 244.367 189.946C245.089 188.503 247.255 187.781 249.421 188.503C251.586 189.225 251.586 191.39 250.864 193.556C250.142 194.999 248.698 195.722 247.977 195.722C246.533 195.722 245.812 195.721 245.812 194.999ZM-6.11572 189.225C-6.83757 187.059 -6.11607 184.893 -4.67236 184.171C-3.22865 183.449 -1.06256 184.172 0.381149 185.615C1.103 187.059 0.380623 189.224 -1.06309 190.668C-1.78494 190.668 -1.78459 190.668 -2.50644 190.668C-3.95015 190.668 -5.39386 189.947 -6.11572 189.225ZM219.825 182.728C217.659 182.006 216.937 179.841 217.659 178.397C218.381 176.231 220.546 175.509 221.99 176.231C224.156 176.953 224.878 179.118 224.156 180.562C223.434 182.006 221.99 182.728 220.547 182.728C220.547 183.45 220.547 183.45 219.825 182.728ZM20.5925 177.675C19.8707 175.51 20.5929 173.343 22.7585 173.343C24.924 172.621 26.3675 173.344 27.0894 175.509C27.8113 177.675 27.0899 179.118 24.9244 179.84C24.2025 179.84 24.202 179.84 23.4801 179.84C22.0364 179.84 20.5925 178.397 20.5925 177.675ZM193.116 174.066C190.95 173.344 190.229 171.178 190.951 169.734C191.673 167.568 193.838 166.847 195.282 167.569C197.447 168.291 198.169 170.456 197.447 171.9C196.725 173.344 195.281 174.788 193.838 174.788C193.838 174.066 193.116 174.066 193.116 174.066ZM48.0234 168.291C47.3015 166.125 48.7454 164.682 50.9109 163.96C53.0765 163.238 54.5201 164.682 55.2419 166.847C55.9638 169.013 54.5199 170.456 52.3543 171.178H51.6326C49.4671 171.178 48.0234 170.456 48.0234 168.291ZM164.963 167.569C162.798 167.569 161.355 165.404 162.077 163.238C162.799 161.073 164.242 160.35 166.408 160.35C168.573 160.35 170.017 162.516 169.295 164.681C169.295 166.125 167.129 167.569 164.963 167.569C165.685 167.569 165.685 167.569 164.963 167.569ZM76.1758 162.516C76.1758 160.35 76.8979 158.906 79.0634 158.185C81.229 158.185 82.6725 158.907 83.3944 161.072C83.3944 163.238 81.9505 164.681 80.5068 165.403C80.5068 165.403 80.507 165.403 79.7851 165.403C77.6195 165.403 76.1758 164.681 76.1758 162.516ZM136.812 163.96C134.646 163.96 133.202 161.794 133.202 160.35C133.202 158.185 135.368 156.741 136.812 156.741C138.977 156.741 140.421 158.907 140.421 160.35C140.421 162.516 138.977 163.96 136.812 163.96ZM108.659 163.238C106.494 163.238 105.05 161.794 105.05 159.629C105.05 157.463 106.494 156.02 108.659 156.02C110.825 156.02 112.269 157.463 112.269 159.629C112.269 161.794 110.103 163.238 108.659 163.238Z" fill="white" fill-opacity="0.4"/>
<path d="M119.49 709.681C118.768 709.681 118.768 709.681 118.046 709.681C117.324 709.681 117.324 708.959 116.603 708.959C116.603 708.959 115.881 708.237 115.881 707.515C115.881 706.793 115.881 706.793 115.881 706.071C115.881 705.35 115.881 705.35 115.881 704.628C115.881 703.906 116.603 703.906 116.603 703.184C117.324 703.184 117.324 702.462 118.046 702.462C119.49 701.74 120.933 702.462 121.655 703.184C121.655 703.184 122.378 703.906 122.378 704.628C122.378 705.35 122.378 705.35 122.378 706.071C122.378 706.793 122.378 706.793 122.378 707.515C122.378 708.237 121.655 708.237 121.655 708.959C121.655 708.959 120.212 709.681 119.49 709.681Z" fill="white" fill-opacity="0.4"/>
<path d="M260.798 269.336C257.904 267.172 255.733 265.008 252.839 262.843L274.546 236.149C277.44 239.035 281.057 241.199 283.952 244.085L260.798 269.336Z" fill="white" fill-opacity="0.4"/>
<path d="M247.029 258.966C244.125 256.763 241.221 254.559 238.317 252.355L257.192 223.705C260.822 225.909 263.726 228.113 267.356 231.051L247.029 258.966Z" fill="white" fill-opacity="0.4"/>
<path d="M233.022 248.595C230.184 246.436 227.346 244.998 223.798 242.839L240.118 213.334C243.666 215.493 247.214 217.652 250.762 219.811L233.022 248.595Z" fill="white" fill-opacity="0.4"/>
<path d="M216.837 239.261C213.873 237.822 210.169 236.383 207.206 234.944L222.022 204C225.726 205.439 229.43 207.598 233.133 209.037L216.837 239.261Z" fill="white" fill-opacity="0.4"/>
<path d="M201.047 232.001C197.319 230.55 194.338 229.098 190.611 228.372L202.538 195.703C206.265 197.155 210.737 198.607 214.465 200.059L201.047 232.001Z" fill="white" fill-opacity="0.4"/>
<path d="M184.386 225.779C180.682 224.327 177.718 223.601 174.015 222.875L182.904 189.48C186.607 190.206 191.053 191.658 194.757 193.11L184.386 225.779Z" fill="white" fill-opacity="0.4"/>
<path d="M167.477 220.593C163.887 219.888 160.297 219.182 157.425 218.477L163.887 185.332C168.195 186.037 171.785 186.742 176.093 187.447L167.477 220.593Z" fill="white" fill-opacity="0.4"/>
<path d="M155.251 201.705L157.424 188.629C108.889 180.637 58.9049 187.175 13.2676 208.243L19.0632 220.593C61.8029 200.252 109.614 194.44 155.251 201.705Z" fill="white" fill-opacity="0.4"/>
<path d="M9.12027 224.899L2.59758 213.334C-16.2452 223.454 -34.3626 235.741 -51.0312 250.921L-41.6104 261.04C-25.6665 245.861 -8.99782 234.296 9.12027 224.899Z" fill="white" fill-opacity="0.4"/>
<path d="M117.493 682.1C54.03 682.1 -6.54839 658.332 -52.7035 615.116L-54.1455 613.675L-41.8859 600.71C-41.1647 599.99 -39.7222 599.99 -39.001 600.71C-38.2799 601.43 -38.2799 602.871 -39.001 603.591L-48.3766 613.675C-2.9427 655.45 55.4724 678.499 117.493 678.499C179.514 678.499 237.929 655.451 283.363 614.395L273.989 604.311C273.267 603.591 273.267 602.15 273.989 601.43C274.71 600.71 276.151 600.71 276.873 601.43L289.133 614.395L287.69 615.836C241.535 658.332 180.957 682.1 117.493 682.1Z" fill="white" fill-opacity="0.4"/>
<path d="M176.076 295.956C176.021 295.956 175.972 295.942 175.929 295.913C175.886 295.885 175.853 295.845 175.829 295.793C175.805 295.742 175.793 295.68 175.793 295.61C175.793 295.54 175.805 295.479 175.829 295.427C175.853 295.376 175.887 295.336 175.929 295.308C175.972 295.28 176.022 295.266 176.078 295.266C176.121 295.266 176.156 295.273 176.181 295.287C176.206 295.301 176.226 295.318 176.239 295.336C176.253 295.354 176.263 295.369 176.271 295.38H176.28V295.052H176.382V295.942H176.283V295.839H176.271C176.263 295.851 176.253 295.867 176.239 295.885C176.225 295.903 176.205 295.92 176.179 295.934C176.153 295.948 176.119 295.956 176.076 295.956ZM176.09 295.863C176.131 295.863 176.166 295.853 176.194 295.831C176.223 295.81 176.244 295.78 176.259 295.741C176.274 295.703 176.281 295.658 176.281 295.608C176.281 295.558 176.274 295.515 176.26 295.477C176.245 295.439 176.224 295.41 176.195 295.389C176.167 295.368 176.132 295.358 176.09 295.358C176.047 295.358 176.011 295.369 175.982 295.391C175.953 295.413 175.931 295.443 175.917 295.481C175.903 295.519 175.896 295.561 175.896 295.608C175.896 295.655 175.903 295.699 175.917 295.737C175.932 295.776 175.954 295.807 175.982 295.83C176.011 295.852 176.047 295.863 176.09 295.863Z" fill="white" fill-opacity="0.4"/>
<path d="M175.394 295.955C175.33 295.955 175.274 295.94 175.228 295.912C175.181 295.883 175.146 295.843 175.12 295.792C175.095 295.741 175.083 295.681 175.083 295.612C175.083 295.544 175.095 295.484 175.12 295.432C175.146 295.379 175.181 295.338 175.226 295.309C175.271 295.279 175.323 295.265 175.384 295.265C175.418 295.265 175.453 295.27 175.487 295.282C175.521 295.294 175.551 295.312 175.579 295.339C175.607 295.364 175.629 295.398 175.646 295.441C175.662 295.484 175.67 295.536 175.67 295.598V295.642H175.156V295.553H175.566C175.566 295.516 175.559 295.482 175.544 295.452C175.529 295.423 175.508 295.399 175.48 295.382C175.453 295.365 175.421 295.357 175.384 295.357C175.343 295.357 175.308 295.367 175.278 295.387C175.248 295.407 175.225 295.433 175.209 295.465C175.194 295.498 175.186 295.532 175.186 295.569V295.628C175.186 295.678 175.194 295.721 175.212 295.756C175.229 295.791 175.254 295.817 175.285 295.836C175.316 295.854 175.353 295.863 175.394 295.863C175.421 295.863 175.445 295.859 175.467 295.851C175.489 295.843 175.508 295.832 175.524 295.816C175.54 295.801 175.552 295.781 175.561 295.758L175.66 295.786C175.65 295.82 175.632 295.849 175.607 295.875C175.583 295.9 175.552 295.92 175.516 295.934C175.48 295.948 175.439 295.955 175.394 295.955Z" fill="white" fill-opacity="0.4"/>
<path d="M174.963 295.274V295.361H174.617V295.274H174.963ZM174.718 295.114H174.821V295.75C174.821 295.779 174.825 295.801 174.833 295.816C174.842 295.83 174.853 295.839 174.866 295.844C174.88 295.849 174.894 295.851 174.909 295.851C174.92 295.851 174.93 295.851 174.937 295.849C174.944 295.848 174.95 295.847 174.954 295.846L174.975 295.938C174.968 295.941 174.959 295.943 174.946 295.946C174.934 295.949 174.918 295.95 174.899 295.95C174.87 295.95 174.841 295.944 174.814 295.932C174.786 295.919 174.763 295.9 174.745 295.875C174.727 295.849 174.718 295.817 174.718 295.778V295.114Z" fill="white" fill-opacity="0.4"/>
<path d="M174.262 295.955C174.2 295.955 174.146 295.94 174.101 295.91C174.056 295.881 174.021 295.84 173.996 295.788C173.972 295.736 173.96 295.677 173.96 295.611C173.96 295.543 173.972 295.483 173.997 295.431C174.023 295.379 174.058 295.338 174.102 295.309C174.148 295.279 174.2 295.265 174.261 295.265C174.308 295.265 174.35 295.273 174.388 295.291C174.425 295.308 174.456 295.332 174.48 295.364C174.504 295.395 174.519 295.432 174.525 295.473H174.422C174.414 295.443 174.397 295.416 174.37 295.392C174.343 295.369 174.308 295.357 174.262 295.357C174.222 295.357 174.187 295.367 174.157 295.388C174.127 295.409 174.104 295.438 174.087 295.475C174.071 295.513 174.063 295.557 174.063 295.607C174.063 295.659 174.071 295.704 174.087 295.742C174.103 295.78 174.127 295.81 174.156 295.831C174.186 295.852 174.222 295.863 174.262 295.863C174.289 295.863 174.313 295.858 174.335 295.849C174.357 295.839 174.375 295.826 174.39 295.809C174.405 295.791 174.416 295.77 174.422 295.746H174.525C174.519 295.785 174.505 295.821 174.482 295.853C174.459 295.884 174.429 295.909 174.392 295.927C174.355 295.946 174.312 295.955 174.262 295.955Z" fill="white" fill-opacity="0.4"/>
<path d="M173.557 295.955C173.493 295.955 173.437 295.94 173.391 295.912C173.344 295.883 173.309 295.843 173.283 295.792C173.259 295.741 173.246 295.681 173.246 295.612C173.246 295.544 173.259 295.484 173.283 295.432C173.309 295.379 173.344 295.338 173.389 295.309C173.434 295.279 173.487 295.265 173.547 295.265C173.582 295.265 173.616 295.27 173.65 295.282C173.684 295.294 173.715 295.312 173.742 295.339C173.77 295.364 173.792 295.398 173.809 295.441C173.825 295.484 173.834 295.536 173.834 295.598V295.642H173.319V295.553H173.729C173.729 295.516 173.722 295.482 173.707 295.452C173.692 295.423 173.671 295.399 173.643 295.382C173.616 295.365 173.584 295.357 173.547 295.357C173.506 295.357 173.471 295.367 173.441 295.387C173.411 295.407 173.388 295.433 173.373 295.465C173.357 295.498 173.349 295.532 173.349 295.569V295.628C173.349 295.678 173.357 295.721 173.375 295.756C173.392 295.791 173.417 295.817 173.448 295.836C173.479 295.854 173.516 295.863 173.557 295.863C173.584 295.863 173.608 295.859 173.63 295.851C173.652 295.843 173.671 295.832 173.687 295.816C173.703 295.801 173.715 295.781 173.724 295.758L173.823 295.786C173.813 295.82 173.795 295.849 173.771 295.875C173.746 295.9 173.716 295.92 173.679 295.934C173.643 295.948 173.602 295.955 173.557 295.955Z" fill="white" fill-opacity="0.4"/>
<path d="M173.13 295.274V295.361H172.784V295.274H173.13ZM172.885 295.114H172.988V295.75C172.988 295.779 172.992 295.801 173 295.816C173.009 295.83 173.02 295.839 173.033 295.844C173.047 295.849 173.061 295.851 173.076 295.851C173.087 295.851 173.097 295.851 173.104 295.849C173.111 295.848 173.117 295.847 173.121 295.846L173.142 295.938C173.135 295.941 173.126 295.943 173.113 295.946C173.101 295.949 173.085 295.95 173.066 295.95C173.037 295.95 173.008 295.944 172.981 295.932C172.953 295.919 172.93 295.9 172.912 295.875C172.894 295.849 172.885 295.817 172.885 295.778V295.114Z" fill="white" fill-opacity="0.4"/>
<path d="M172.41 295.955C172.345 295.955 172.29 295.94 172.243 295.912C172.197 295.883 172.161 295.843 172.136 295.792C172.111 295.741 172.099 295.681 172.099 295.612C172.099 295.544 172.111 295.484 172.136 295.432C172.161 295.379 172.196 295.338 172.241 295.309C172.286 295.279 172.339 295.265 172.399 295.265C172.434 295.265 172.468 295.27 172.502 295.282C172.536 295.294 172.567 295.312 172.595 295.339C172.623 295.364 172.645 295.398 172.661 295.441C172.678 295.484 172.686 295.536 172.686 295.598V295.642H172.172V295.553H172.582C172.582 295.516 172.574 295.482 172.559 295.452C172.544 295.423 172.523 295.399 172.496 295.382C172.469 295.365 172.436 295.357 172.399 295.357C172.358 295.357 172.323 295.367 172.293 295.387C172.264 295.407 172.241 295.433 172.225 295.465C172.209 295.498 172.201 295.532 172.201 295.569V295.628C172.201 295.678 172.21 295.721 172.227 295.756C172.245 295.791 172.269 295.817 172.301 295.836C172.332 295.854 172.368 295.863 172.41 295.863C172.437 295.863 172.461 295.859 172.483 295.851C172.505 295.843 172.524 295.832 172.54 295.816C172.556 295.801 172.568 295.781 172.577 295.758L172.676 295.786C172.665 295.82 172.648 295.849 172.623 295.875C172.598 295.9 172.568 295.92 172.532 295.934C172.496 295.948 172.455 295.955 172.41 295.955Z" fill="white" fill-opacity="0.4"/>
<path d="M171.618 295.956C171.563 295.956 171.514 295.942 171.471 295.913C171.428 295.885 171.395 295.845 171.371 295.793C171.347 295.742 171.335 295.68 171.335 295.61C171.335 295.54 171.347 295.479 171.371 295.427C171.395 295.376 171.429 295.336 171.471 295.308C171.514 295.28 171.564 295.266 171.62 295.266C171.663 295.266 171.698 295.273 171.723 295.287C171.748 295.301 171.768 295.318 171.781 295.336C171.795 295.354 171.805 295.369 171.813 295.38H171.822V295.052H171.924V295.942H171.825V295.839H171.813C171.805 295.851 171.795 295.867 171.781 295.885C171.767 295.903 171.747 295.92 171.721 295.934C171.695 295.948 171.661 295.956 171.618 295.956ZM171.632 295.863C171.673 295.863 171.708 295.853 171.736 295.831C171.765 295.81 171.786 295.78 171.801 295.741C171.816 295.703 171.823 295.658 171.823 295.608C171.823 295.558 171.816 295.515 171.802 295.477C171.787 295.439 171.766 295.41 171.737 295.389C171.709 295.368 171.674 295.358 171.632 295.358C171.589 295.358 171.553 295.369 171.524 295.391C171.495 295.413 171.473 295.443 171.459 295.481C171.445 295.519 171.438 295.561 171.438 295.608C171.438 295.655 171.445 295.699 171.459 295.737C171.474 295.776 171.496 295.807 171.524 295.83C171.553 295.852 171.589 295.863 171.632 295.863Z" fill="white" fill-opacity="0.4"/>
<path d="M170.857 295.423L170.765 295.449C170.759 295.434 170.75 295.419 170.739 295.404C170.728 295.389 170.713 295.377 170.694 295.368C170.675 295.358 170.65 295.353 170.62 295.353C170.58 295.353 170.546 295.363 170.518 295.382C170.491 295.4 170.478 295.424 170.478 295.452C170.478 295.478 170.487 295.498 170.506 295.513C170.524 295.528 170.553 295.54 170.593 295.55L170.692 295.574C170.751 295.589 170.796 295.611 170.825 295.641C170.854 295.67 170.869 295.708 170.869 295.755C170.869 295.793 170.858 295.827 170.836 295.857C170.814 295.887 170.784 295.911 170.745 295.929C170.706 295.946 170.66 295.955 170.608 295.955C170.54 295.955 170.484 295.94 170.439 295.91C170.395 295.881 170.366 295.838 170.354 295.781L170.452 295.757C170.461 295.792 170.479 295.819 170.504 295.837C170.53 295.855 170.565 295.864 170.607 295.864C170.654 295.864 170.692 295.854 170.72 295.834C170.749 295.813 170.763 295.789 170.763 295.76C170.763 295.737 170.755 295.717 170.739 295.702C170.722 295.686 170.697 295.674 170.664 295.666L170.553 295.64C170.492 295.626 170.447 295.603 170.418 295.573C170.39 295.542 170.375 295.504 170.375 295.458C170.375 295.42 170.386 295.387 170.407 295.358C170.429 295.329 170.458 295.306 170.494 295.289C170.531 295.273 170.573 295.265 170.62 295.265C170.686 295.265 170.738 295.279 170.776 295.308C170.814 295.337 170.841 295.375 170.857 295.423Z" fill="white" fill-opacity="0.4"/>
<path d="M170.095 295.941V295.274H170.198V295.941H170.095ZM170.147 295.162C170.127 295.162 170.11 295.156 170.096 295.142C170.081 295.128 170.074 295.112 170.074 295.093C170.074 295.074 170.081 295.057 170.096 295.044C170.11 295.03 170.127 295.023 170.147 295.023C170.167 295.023 170.184 295.03 170.198 295.044C170.213 295.057 170.22 295.074 170.22 295.093C170.22 295.112 170.213 295.128 170.198 295.142C170.184 295.156 170.167 295.162 170.147 295.162Z" fill="white" fill-opacity="0.4"/>
<path d="M169.179 295.698L169.177 295.571H169.198L169.49 295.274H169.617L169.305 295.589H169.297L169.179 295.698ZM169.083 295.942V295.052H169.186V295.942H169.083ZM169.507 295.942L169.246 295.611L169.319 295.54L169.637 295.942H169.507Z" fill="white" fill-opacity="0.4"/>
<path d="M168.628 295.942V295.274H168.727V295.375H168.734C168.746 295.342 168.768 295.315 168.8 295.295C168.832 295.274 168.868 295.264 168.908 295.264C168.915 295.264 168.925 295.264 168.936 295.264C168.947 295.264 168.956 295.265 168.962 295.265V295.37C168.958 295.369 168.95 295.368 168.938 295.366C168.926 295.364 168.913 295.363 168.899 295.363C168.867 295.363 168.838 295.37 168.812 295.383C168.787 295.396 168.767 295.415 168.752 295.439C168.738 295.462 168.73 295.489 168.73 295.519V295.942H168.628Z" fill="white" fill-opacity="0.4"/>
<path d="M168.172 295.955C168.111 295.955 168.058 295.94 168.013 295.912C167.968 295.883 167.932 295.843 167.907 295.791C167.882 295.74 167.869 295.679 167.869 295.611C167.869 295.541 167.882 295.48 167.907 295.428C167.932 295.377 167.968 295.336 168.013 295.308C168.058 295.279 168.111 295.265 168.172 295.265C168.232 295.265 168.285 295.279 168.33 295.308C168.375 295.336 168.411 295.377 168.436 295.428C168.461 295.48 168.474 295.541 168.474 295.611C168.474 295.679 168.461 295.74 168.436 295.791C168.411 295.843 168.375 295.883 168.33 295.912C168.285 295.94 168.232 295.955 168.172 295.955ZM168.172 295.863C168.217 295.863 168.255 295.851 168.285 295.827C168.314 295.804 168.336 295.773 168.35 295.735C168.364 295.697 168.371 295.655 168.371 295.611C168.371 295.566 168.364 295.524 168.35 295.486C168.336 295.447 168.314 295.416 168.285 295.392C168.255 295.369 168.217 295.357 168.172 295.357C168.126 295.357 168.088 295.369 168.059 295.392C168.029 295.416 168.007 295.447 167.993 295.486C167.979 295.524 167.972 295.566 167.972 295.611C167.972 295.655 167.979 295.697 167.993 295.735C168.007 295.773 168.029 295.804 168.059 295.827C168.088 295.851 168.126 295.863 168.172 295.863Z" fill="white" fill-opacity="0.4"/>
<path d="M167.078 295.941L166.875 295.273H166.983L167.127 295.784H167.134L167.276 295.273H167.386L167.527 295.783H167.534L167.678 295.273H167.786L167.582 295.941H167.482L167.336 295.428H167.325L167.179 295.941H167.078Z" fill="white" fill-opacity="0.4"/>
<path d="M166.773 295.274V295.361H166.427V295.274H166.773ZM166.528 295.114H166.63V295.75C166.63 295.779 166.634 295.801 166.643 295.816C166.651 295.83 166.662 295.839 166.676 295.844C166.689 295.849 166.704 295.851 166.719 295.851C166.73 295.851 166.739 295.851 166.747 295.849C166.754 295.848 166.76 295.847 166.764 295.846L166.785 295.938C166.778 295.941 166.768 295.943 166.756 295.946C166.743 295.949 166.727 295.95 166.708 295.95C166.679 295.95 166.651 295.944 166.623 295.932C166.596 295.919 166.573 295.9 166.555 295.875C166.537 295.849 166.528 295.817 166.528 295.778V295.114Z" fill="white" fill-opacity="0.4"/>
<path d="M166.052 295.955C165.988 295.955 165.933 295.94 165.886 295.912C165.84 295.883 165.804 295.843 165.779 295.792C165.754 295.741 165.741 295.681 165.741 295.612C165.741 295.544 165.754 295.484 165.779 295.432C165.804 295.379 165.839 295.338 165.884 295.309C165.929 295.279 165.982 295.265 166.042 295.265C166.077 295.265 166.111 295.27 166.145 295.282C166.179 295.294 166.21 295.312 166.237 295.339C166.265 295.364 166.287 295.398 166.304 295.441C166.32 295.484 166.329 295.536 166.329 295.598V295.642H165.814V295.553H166.224C166.224 295.516 166.217 295.482 166.202 295.452C166.187 295.423 166.166 295.399 166.138 295.382C166.111 295.365 166.079 295.357 166.042 295.357C166.001 295.357 165.966 295.367 165.936 295.387C165.906 295.407 165.884 295.433 165.868 295.465C165.852 295.498 165.844 295.532 165.844 295.569V295.628C165.844 295.678 165.852 295.721 165.87 295.756C165.887 295.791 165.912 295.817 165.943 295.836C165.975 295.854 166.011 295.863 166.052 295.863C166.079 295.863 166.104 295.859 166.125 295.851C166.147 295.843 166.166 295.832 166.182 295.816C166.198 295.801 166.21 295.781 166.219 295.758L166.318 295.786C166.308 295.82 166.29 295.849 166.266 295.875C166.241 295.9 166.211 295.92 166.174 295.934C166.138 295.948 166.098 295.955 166.052 295.955Z" fill="white" fill-opacity="0.4"/>
<path d="M165.159 295.539V295.941H165.057V295.273H165.156V295.378H165.164C165.18 295.344 165.204 295.317 165.236 295.296C165.268 295.275 165.309 295.265 165.359 295.265C165.404 295.265 165.444 295.274 165.478 295.292C165.512 295.311 165.538 295.339 165.557 295.376C165.576 295.413 165.585 295.46 165.585 295.517V295.941H165.482V295.524C165.482 295.471 165.469 295.43 165.442 295.401C165.414 295.372 165.377 295.357 165.33 295.357C165.297 295.357 165.268 295.364 165.242 295.378C165.216 295.392 165.196 295.413 165.181 295.44C165.167 295.467 165.159 295.5 165.159 295.539Z" fill="white" fill-opacity="0.4"/>
<path d="M163.868 295.941L163.665 295.273H163.773L163.917 295.784H163.924L164.067 295.273H164.176L164.317 295.783H164.324L164.468 295.273H164.576L164.372 295.941H164.272L164.126 295.428H164.115L163.969 295.941H163.868Z" fill="white" fill-opacity="0.4"/>
<path d="M163.281 295.955C163.221 295.955 163.168 295.94 163.122 295.912C163.077 295.883 163.042 295.843 163.016 295.791C162.991 295.74 162.979 295.679 162.979 295.611C162.979 295.541 162.991 295.48 163.016 295.428C163.042 295.377 163.077 295.336 163.122 295.308C163.168 295.279 163.221 295.265 163.281 295.265C163.341 295.265 163.394 295.279 163.439 295.308C163.485 295.336 163.52 295.377 163.545 295.428C163.571 295.48 163.583 295.541 163.583 295.611C163.583 295.679 163.571 295.74 163.545 295.791C163.52 295.843 163.485 295.883 163.439 295.912C163.394 295.94 163.341 295.955 163.281 295.955ZM163.281 295.863C163.327 295.863 163.364 295.851 163.394 295.827C163.423 295.804 163.445 295.773 163.46 295.735C163.474 295.697 163.481 295.655 163.481 295.611C163.481 295.566 163.474 295.524 163.46 295.486C163.445 295.447 163.423 295.416 163.394 295.392C163.364 295.369 163.327 295.357 163.281 295.357C163.235 295.357 163.198 295.369 163.168 295.392C163.138 295.416 163.117 295.447 163.102 295.486C163.088 295.524 163.081 295.566 163.081 295.611C163.081 295.655 163.088 295.697 163.102 295.735C163.117 295.773 163.138 295.804 163.168 295.827C163.198 295.851 163.235 295.863 163.281 295.863Z" fill="white" fill-opacity="0.4"/>
<path d="M162.821 295.052V295.942H162.719V295.052H162.821Z" fill="white" fill-opacity="0.4"/>
<path d="M162.44 295.274C162.435 295.23 162.414 295.195 162.377 295.171C162.339 295.147 162.294 295.135 162.24 295.135C162.201 295.135 162.166 295.141 162.137 295.154C162.107 295.167 162.085 295.184 162.068 295.206C162.052 295.229 162.044 295.254 162.044 295.282C162.044 295.306 162.049 295.327 162.061 295.344C162.072 295.36 162.087 295.375 162.105 295.386C162.123 295.397 162.142 295.406 162.161 295.413C162.181 295.42 162.199 295.426 162.216 295.43L162.306 295.454C162.329 295.461 162.355 295.469 162.383 295.48C162.412 295.49 162.44 295.505 162.466 295.524C162.492 295.542 162.514 295.565 162.531 295.594C162.548 295.623 162.556 295.658 162.556 295.7C162.556 295.748 162.544 295.791 162.519 295.83C162.494 295.869 162.457 295.9 162.409 295.922C162.361 295.945 162.303 295.957 162.235 295.957C162.171 295.957 162.116 295.946 162.069 295.926C162.023 295.905 161.986 295.877 161.96 295.84C161.933 295.803 161.919 295.76 161.915 295.712H162.026C162.029 295.745 162.04 295.773 162.06 295.795C162.08 295.817 162.105 295.833 162.136 295.844C162.166 295.854 162.2 295.859 162.235 295.859C162.276 295.859 162.313 295.853 162.346 295.839C162.378 295.826 162.404 295.807 162.423 295.783C162.443 295.759 162.452 295.73 162.452 295.698C162.452 295.668 162.444 295.644 162.427 295.626C162.411 295.607 162.389 295.592 162.362 295.58C162.335 295.569 162.306 295.559 162.275 295.55L162.165 295.519C162.096 295.499 162.041 295.47 162 295.433C161.96 295.396 161.939 295.348 161.939 295.288C161.939 295.238 161.953 295.194 161.98 295.157C162.007 295.12 162.044 295.091 162.089 295.07C162.135 295.049 162.187 295.039 162.244 295.039C162.301 295.039 162.352 295.049 162.396 295.07C162.441 295.09 162.476 295.118 162.503 295.153C162.529 295.189 162.543 295.229 162.544 295.274H162.44Z" fill="white" fill-opacity="0.4"/>
<path d="M250.827 306.77V306.865H250.271V306.77H250.827Z" fill="white" fill-opacity="0.4"/>
<path d="M63.158 328.452H60.6357L67.9309 308.584H70.4144L77.7096 328.452H75.1873L69.2503 311.727H69.095L63.158 328.452ZM64.0893 320.691H74.256V322.825H64.0893V320.691Z" fill="white" fill-opacity="0.4"/>
<path d="M175.138 321.017V332.599H173.736V322.487H173.668L170.84 324.365V322.94L173.736 321.017H175.138Z" fill="white" fill-opacity="0.4"/>
<path fill-rule="evenodd" clip-rule="evenodd" d="M253.809 571.194L177.064 494.449L179.264 492.249L256.01 568.994L253.809 571.194Z" fill="white" fill-opacity="0.4"/>
<path fill-rule="evenodd" clip-rule="evenodd" d="M56.7626 374.146L-18.9453 298.438L-16.7453 296.238L58.9627 371.946L56.7626 374.146Z" fill="white" fill-opacity="0.4"/>
<path d="M254.912 319.117H217.576V337.785H254.912V319.117Z" fill="white" fill-opacity="0.4"/>
<path d="M224.312 323.266V323.172L224.666 322.784C224.707 322.739 224.741 322.699 224.768 322.666C224.795 322.632 224.815 322.6 224.828 322.57C224.841 322.54 224.848 322.509 224.848 322.476C224.848 322.438 224.839 322.406 224.821 322.378C224.803 322.351 224.778 322.329 224.747 322.314C224.716 322.299 224.681 322.292 224.643 322.292C224.601 322.292 224.565 322.3 224.535 322.318C224.504 322.334 224.481 322.358 224.464 322.388C224.448 322.419 224.439 322.454 224.439 322.495H224.316C224.316 322.432 224.33 322.377 224.359 322.33C224.388 322.282 224.428 322.245 224.478 322.219C224.528 322.192 224.584 322.179 224.647 322.179C224.71 322.179 224.765 322.192 224.814 322.219C224.862 322.245 224.9 322.281 224.928 322.326C224.956 322.371 224.969 322.421 224.969 322.476C224.969 322.516 224.962 322.554 224.948 322.592C224.934 322.629 224.909 322.671 224.875 322.717C224.84 322.763 224.792 322.819 224.731 322.885L224.49 323.142V323.151H224.988V323.266H224.312Z" fill="white" fill-opacity="0.4"/>
<path d="M223.737 323.281C223.667 323.281 223.606 323.269 223.552 323.245C223.498 323.221 223.455 323.188 223.423 323.146C223.392 323.103 223.375 323.054 223.372 322.998H223.504C223.507 323.032 223.519 323.062 223.54 323.087C223.561 323.112 223.588 323.131 223.622 323.145C223.656 323.159 223.693 323.165 223.734 323.165C223.781 323.165 223.821 323.157 223.857 323.141C223.893 323.125 223.921 323.103 223.941 323.074C223.961 323.046 223.971 323.013 223.971 322.975C223.971 322.935 223.961 322.901 223.942 322.871C223.922 322.84 223.894 322.816 223.856 322.799C223.818 322.782 223.772 322.774 223.718 322.774H223.632V322.658H223.718C223.76 322.658 223.798 322.651 223.83 322.635C223.862 322.62 223.888 322.598 223.906 322.57C223.924 322.543 223.934 322.51 223.934 322.472C223.934 322.436 223.925 322.404 223.909 322.377C223.893 322.35 223.871 322.329 223.841 322.314C223.812 322.299 223.778 322.292 223.739 322.292C223.702 322.292 223.667 322.299 223.634 322.312C223.601 322.326 223.575 322.345 223.554 322.37C223.534 322.396 223.523 322.426 223.521 322.462H223.395C223.397 322.405 223.414 322.356 223.446 322.314C223.478 322.271 223.519 322.238 223.571 322.214C223.622 322.191 223.679 322.179 223.741 322.179C223.807 322.179 223.864 322.192 223.912 322.219C223.959 322.246 223.995 322.281 224.021 322.324C224.046 322.368 224.059 322.415 224.059 322.466C224.059 322.526 224.043 322.578 224.012 322.62C223.98 322.663 223.937 322.692 223.883 322.709V322.717C223.951 322.728 224.004 322.757 224.042 322.804C224.08 322.85 224.099 322.907 224.099 322.975C224.099 323.033 224.083 323.085 224.051 323.132C224.02 323.178 223.977 323.214 223.923 323.241C223.868 323.267 223.806 323.281 223.737 323.281Z" fill="white" fill-opacity="0.4"/>
<path d="M223.101 323.274C223.075 323.274 223.053 323.265 223.035 323.247C223.016 323.228 223.007 323.206 223.007 323.18C223.007 323.154 223.016 323.132 223.035 323.114C223.053 323.095 223.075 323.086 223.101 323.086C223.127 323.086 223.149 323.095 223.168 323.114C223.186 323.132 223.195 323.154 223.195 323.18C223.195 323.197 223.191 323.213 223.182 323.227C223.174 323.242 223.163 323.253 223.148 323.262C223.134 323.27 223.119 323.274 223.101 323.274Z" fill="white" fill-opacity="0.4"/>
<path d="M222.761 322.193V323.266H222.631V322.33H222.625L222.363 322.503V322.371L222.631 322.193H222.761Z" fill="white" fill-opacity="0.4"/>
<path d="M221.655 323.274C221.629 323.274 221.607 323.265 221.588 323.247C221.57 323.228 221.561 323.206 221.561 323.18C221.561 323.154 221.57 323.132 221.588 323.114C221.607 323.095 221.629 323.086 221.655 323.086C221.681 323.086 221.703 323.095 221.721 323.114C221.74 323.132 221.749 323.154 221.749 323.18C221.749 323.197 221.745 323.213 221.736 323.227C221.728 323.242 221.716 323.253 221.702 323.262C221.688 323.27 221.672 323.274 221.655 323.274Z" fill="white" fill-opacity="0.4"/>
<path d="M221.454 322.462L221.157 323.266H221.031L220.733 322.462H220.867L221.09 323.103H221.098L221.32 322.462H221.454Z" fill="white" fill-opacity="0.4"/>
<path opacity="0.4" d="M291.544 596.022L275.654 581.567C313.934 541.093 334.88 488.332 334.88 432.679C334.88 377.027 313.934 324.266 275.654 283.792L291.544 269.337C333.435 313.425 356.548 371.968 356.548 432.679C356.548 493.391 333.435 551.934 291.544 596.022Z" fill="white" fill-opacity="0.4"/>
<path d="M338.208 594.185C336.043 592.741 335.321 589.132 336.765 586.966C338.209 584.801 341.818 584.079 343.984 585.523C346.149 586.966 346.871 590.576 345.427 592.741C344.705 594.185 342.54 594.906 341.096 594.906C340.374 594.906 338.93 594.906 338.208 594.185ZM354.09 569.641C351.202 568.198 350.48 564.588 351.924 562.423C353.368 559.535 356.255 558.814 359.142 560.258C362.03 561.702 362.752 565.311 361.308 567.476C360.586 569.642 358.42 570.363 356.255 570.363C355.533 570.363 354.812 570.363 354.09 569.641ZM367.083 544.376C364.195 542.933 362.752 540.045 364.196 537.158C365.64 534.271 368.527 532.827 371.414 534.27C374.302 535.714 375.745 538.601 374.301 541.489C373.579 543.654 371.414 545.098 369.249 545.098C368.527 544.376 367.804 544.376 367.083 544.376ZM377.91 517.668C375.023 516.946 373.579 514.059 374.301 511.171C375.023 508.284 377.911 506.84 380.798 507.562C383.685 508.284 385.129 511.172 384.407 514.059C383.685 516.225 381.52 517.668 379.355 517.668C378.633 517.668 377.91 517.668 377.91 517.668ZM385.129 489.516C382.242 488.794 380.076 485.906 380.798 483.019C381.52 480.131 384.407 477.966 387.295 478.688C390.182 479.41 392.348 482.297 391.626 485.185C390.904 488.072 388.739 489.516 386.573 489.516C385.851 489.516 385.129 489.516 385.129 489.516ZM389.461 461.363C386.573 461.363 384.407 458.476 384.407 455.589C384.407 452.702 387.295 450.535 390.182 450.535C393.07 450.535 395.235 453.423 395.235 456.311C395.235 459.198 393.07 461.363 389.461 461.363ZM385.129 426.715C385.129 423.827 387.295 420.94 390.182 420.94C393.07 420.94 395.957 423.105 395.957 425.992C395.957 428.88 393.792 431.767 390.904 431.767C388.017 432.489 385.851 429.602 385.129 426.715ZM382.964 398.562C382.964 395.675 384.407 392.787 388.017 392.787C390.904 392.787 393.792 394.231 393.792 397.118C393.792 400.005 392.348 402.893 389.461 402.893H388.738C385.851 403.615 383.686 401.45 382.964 398.562ZM378.633 371.131C377.911 368.244 379.355 365.356 382.964 364.635C385.851 363.913 388.739 366.079 389.461 368.966C390.183 371.854 388.016 374.741 385.129 375.462C384.407 375.462 384.407 375.462 383.686 375.462C380.798 375.462 378.633 373.297 378.633 371.131ZM370.692 343.702C369.97 340.814 371.414 337.927 374.301 337.205C377.189 336.483 380.076 337.927 380.798 340.814C381.52 343.701 380.076 346.589 377.189 347.311C376.467 347.311 375.746 347.311 375.024 347.311C372.858 347.311 371.414 345.867 370.692 343.702ZM359.864 317.714C358.42 314.827 359.864 311.939 362.752 310.496C365.639 309.052 368.526 310.496 369.97 313.383C371.414 316.271 369.97 319.158 367.083 320.602C366.361 320.602 365.639 321.323 364.918 321.323C362.752 320.601 360.586 319.88 359.864 317.714ZM346.15 293.172C344.706 290.284 345.427 287.397 348.315 285.953C351.202 284.509 354.089 285.231 355.533 288.118C356.977 291.006 356.255 293.893 354.09 295.337C353.368 296.059 351.924 296.058 351.202 296.058C349.037 295.337 346.871 294.615 346.15 293.172ZM330.268 269.35C328.103 267.185 328.824 263.576 330.99 261.41C333.155 259.244 336.765 259.966 338.208 262.132C340.374 264.297 339.652 267.906 337.487 269.35C336.765 270.072 335.321 270.794 333.877 270.794C332.434 271.515 330.99 270.794 330.268 269.35ZM311.5 248.416C309.335 246.251 309.335 242.642 311.5 240.476C313.666 238.31 317.275 238.31 319.44 240.476C321.606 242.642 321.606 246.251 319.44 248.416C318.719 249.138 317.275 249.86 315.831 249.86C314.387 249.86 312.944 249.138 311.5 248.416ZM291.288 228.927C289.122 226.761 289.123 223.152 290.566 220.986C292.732 218.821 295.619 218.098 298.506 220.264C300.672 222.429 301.395 226.039 299.229 228.205C298.507 229.649 296.341 230.37 294.897 230.37C293.453 229.648 292.01 229.648 291.288 228.927ZM-55.9238 221.708C-58.0894 219.542 -57.3677 215.933 -55.2021 214.489C-53.0366 212.324 -49.4266 213.046 -47.261 215.211C-45.0955 217.377 -45.818 220.986 -47.9836 222.43C-48.7055 223.152 -50.1492 223.873 -51.5929 223.873C-53.0366 223.151 -54.4801 222.43 -55.9238 221.708ZM268.911 211.602C266.745 210.158 266.024 206.549 267.467 203.662C268.911 201.496 272.52 200.774 274.686 202.217C276.851 203.661 277.573 207.27 276.129 209.436C274.685 210.88 273.242 211.602 271.798 211.602C271.076 212.324 269.632 212.324 268.911 211.602ZM-32.1023 204.383C-33.546 202.218 -32.8245 198.608 -30.6589 197.165C-28.4934 195.721 -24.8841 196.443 -23.4404 198.608C-21.9967 201.496 -22.7182 204.383 -24.8837 205.827C-25.6056 206.549 -27.0495 206.549 -27.7713 206.549C-29.9369 206.549 -31.3804 205.827 -32.1023 204.383ZM244.367 197.165C241.48 195.721 240.759 192.834 242.202 189.946C243.646 187.059 247.255 186.337 249.421 187.78C252.308 189.224 253.03 192.111 251.586 194.999C250.864 197.164 248.699 197.886 246.533 197.886C246.533 197.165 245.089 197.165 244.367 197.165ZM-7.55906 189.946C-9.00277 187.059 -7.55976 184.171 -4.67234 182.728C-1.78493 181.284 1.10249 182.728 2.5462 185.615C3.98991 188.503 2.54673 191.39 0.381165 192.834C-0.340691 193.556 -1.0629 193.556 -1.78475 193.556C-4.67217 192.834 -6.8372 191.39 -7.55906 189.946ZM219.102 184.894C216.215 183.45 214.772 180.562 216.216 177.675C217.659 174.788 220.547 173.344 223.434 174.787C226.322 176.231 227.765 179.119 226.321 182.006C225.599 184.172 223.434 185.615 221.268 185.615C220.547 184.893 219.824 184.894 219.102 184.894ZM18.4275 177.675C17.7057 174.788 19.1494 171.9 22.0368 170.457C24.9242 169.735 27.8116 171.178 29.2553 173.343C29.9772 176.231 29.2552 179.118 26.3677 180.562C25.6459 180.562 24.9237 181.284 24.2018 181.284C21.3144 181.284 19.1494 179.841 18.4275 177.675ZM192.394 175.509C189.507 174.787 188.063 171.9 188.785 169.012C189.507 166.125 192.394 164.681 195.282 165.403C198.169 166.125 199.613 169.012 198.891 171.9C198.169 174.065 196.003 175.509 193.838 175.509C193.116 175.509 193.116 175.509 192.394 175.509ZM45.8575 169.012C45.1356 166.125 46.5793 163.237 49.4667 162.515C52.3541 161.794 55.2417 163.237 55.9636 166.125C56.6854 169.012 55.2417 171.9 52.3543 172.622C51.6325 172.622 51.6328 172.622 50.911 172.622C48.7454 173.343 46.5793 171.178 45.8575 169.012ZM164.963 169.012C162.076 168.29 159.911 165.403 160.632 162.515C161.354 159.628 164.242 157.463 167.129 158.184C170.017 158.906 172.182 161.794 171.46 164.681C170.738 167.569 168.573 169.012 166.408 169.012C165.686 169.012 164.963 169.012 164.963 169.012ZM74.0099 163.238C73.2881 160.351 75.4535 157.463 78.3409 157.463C81.2283 156.741 84.1161 158.906 84.1161 161.794C84.8379 164.681 82.6725 167.569 79.7851 168.291H79.0635C76.8979 167.569 74.7318 165.404 74.0099 163.238ZM136.812 165.403C133.924 165.403 131.758 162.516 131.758 159.629C131.758 156.741 134.646 154.575 137.533 154.575C140.421 154.575 142.586 157.463 142.586 160.35C142.586 163.238 139.699 165.403 136.812 165.403ZM102.884 159.629C102.884 156.741 105.05 153.854 107.938 153.854C110.825 153.854 113.712 156.019 113.712 158.906C113.712 161.794 111.547 164.681 108.659 164.681C105.05 165.403 102.884 162.516 102.884 159.629Z" fill="white" fill-opacity="0.4"/>
</g>
<defs>
<filter id="filter0_b_21_31071" x="-218" y="-84" width="697.957" height="937.001" filterUnits="userSpaceOnUse" color-interpolation-filters="sRGB">
<feFlood flood-opacity="0" result="BackgroundImageFix"/>
<feGaussianBlur in="BackgroundImageFix" stdDeviation="42"/>
<feComposite in2="SourceAlpha" operator="in" result="effect1_backgroundBlur_21_31071"/>
<feBlend mode="normal" in="SourceGraphic" in2="effect1_backgroundBlur_21_31071" result="shape"/>
</filter>
</defs>
</svg>
