<svg width="372" height="70" viewBox="0 0 372 70" fill="none" xmlns="http://www.w3.org/2000/svg">
<mask id="mask0_21_31336" style="mask-type:luminance" maskUnits="userSpaceOnUse" x="29" y="0" width="43" height="43">
<path d="M50.2162 -0.000241637L29 21.21L50.2102 42.4262L71.4264 21.216L50.2162 -0.000241637Z" fill="white"/>
</mask>
<g mask="url(#mask0_21_31336)">
<mask id="mask1_21_31336" style="mask-type:luminance" maskUnits="userSpaceOnUse" x="29" y="0" width="43" height="43">
<path d="M72 0H29V43H72V0Z" fill="white"/>
</mask>
<g mask="url(#mask1_21_31336)">
<rect x="29" width="43" height="43" fill="#89EB0C"/>
</g>
</g>
<mask id="mask2_21_31336" style="mask-type:luminance" maskUnits="userSpaceOnUse" x="56" y="27" width="41" height="41">
<path d="M56 47.5516L76.4484 68L97 47.5516L76.4484 27L56 47.5516Z" fill="white"/>
</mask>
<g mask="url(#mask2_21_31336)">
<mask id="mask3_21_31336" style="mask-type:luminance" maskUnits="userSpaceOnUse" x="56" y="27" width="42" height="42">
<path d="M98 27H56V69H98V27Z" fill="white"/>
</mask>
<g mask="url(#mask3_21_31336)">
<rect x="56" y="27" width="42" height="42" fill="white"/>
</g>
</g>
<mask id="mask4_21_31336" style="mask-type:luminance" maskUnits="userSpaceOnUse" x="0" y="27" width="41" height="41">
<path d="M0 47.5516L20.4483 68L41 47.5516L20.4483 27L0 47.5516Z" fill="white"/>
</mask>
<g mask="url(#mask4_21_31336)">
<mask id="mask5_21_31336" style="mask-type:luminance" maskUnits="userSpaceOnUse" x="0" y="27" width="42" height="42">
<path d="M42 27H0V69H42V27Z" fill="white"/>
</mask>
<g mask="url(#mask5_21_31336)">
<rect y="27" width="42" height="42" fill="white"/>
</g>
</g>
<mask id="mask6_21_31336" style="mask-type:luminance" maskUnits="userSpaceOnUse" x="113" y="1" width="63" height="69">
<path d="M157.789 70L136.133 40.6383L128.258 48.9574V70H113V1H128.258V31.0957L156.312 1H174.77L146.469 30.1169L176 70H157.789Z" fill="white"/>
</mask>
<g mask="url(#mask6_21_31336)">
<mask id="mask7_21_31336" style="mask-type:luminance" maskUnits="userSpaceOnUse" x="112" y="0" width="65" height="71">
<path d="M177 0H112V71H177V0Z" fill="white"/>
</mask>
<g mask="url(#mask7_21_31336)">
<rect x="112" width="65" height="71" fill="white"/>
</g>
</g>
<mask id="mask8_21_31336" style="mask-type:luminance" maskUnits="userSpaceOnUse" x="184" y="1" width="60" height="69">
<path d="M199.246 14.7021H214.492C221.869 14.7021 226.541 18.1276 226.541 24.4893V24.7341C226.541 30.6064 222.361 34.5213 214.738 34.5213H199.246V14.7021ZM184 1V70H199.246V47.9787H211.295L226.049 70H244L227.033 45.2872C235.885 42.1063 241.787 35.0105 241.787 23.9999V23.7553C241.787 17.1489 239.82 11.7659 235.885 8.09565C231.213 3.44672 224.574 1 215.721 1H184Z" fill="white"/>
</mask>
<g mask="url(#mask8_21_31336)">
<mask id="mask9_21_31336" style="mask-type:luminance" maskUnits="userSpaceOnUse" x="183" y="0" width="61" height="71">
<path d="M244 0H183V71H244V0Z" fill="white"/>
</mask>
<g mask="url(#mask9_21_31336)">
<rect x="183" width="61" height="71" fill="white"/>
</g>
</g>
<mask id="mask10_21_31336" style="mask-type:luminance" maskUnits="userSpaceOnUse" x="254" y="1" width="53" height="69">
<path d="M254 1V70H307V56.5426H269.284V41.8617H302.07V28.4043H269.284V14.4574H306.507V1H254Z" fill="white"/>
</mask>
<g mask="url(#mask10_21_31336)">
<mask id="mask11_21_31336" style="mask-type:luminance" maskUnits="userSpaceOnUse" x="254" y="0" width="54" height="71">
<path d="M308 0H254V71H308V0Z" fill="white"/>
</mask>
<g mask="url(#mask11_21_31336)">
<rect x="254" width="54" height="71" fill="white"/>
</g>
</g>
<mask id="mask12_21_31336" style="mask-type:luminance" maskUnits="userSpaceOnUse" x="314" y="1" width="58" height="69">
<path d="M335.316 70V14.9468H314V1H372V14.9468H350.684V70H335.316Z" fill="white"/>
</mask>
<g mask="url(#mask12_21_31336)">
<mask id="mask13_21_31336" style="mask-type:luminance" maskUnits="userSpaceOnUse" x="313" y="0" width="60" height="71">
<path d="M373 0H313V71H373V0Z" fill="white"/>
</mask>
<g mask="url(#mask13_21_31336)">
<rect x="313" width="60" height="71" fill="white"/>
</g>
</g>
</svg>
