<svg width="119" height="119" viewBox="0 0 119 119" fill="none" xmlns="http://www.w3.org/2000/svg">
  <path
    d="M43.9536 0.125C55.5776 0.125 66.7256 4.74264 74.9451 12.9621C83.1645 21.1815 87.7821 32.3295 87.7821 43.9536C87.7821 54.8096 83.8039 64.789 77.2633 72.4759L79.0839 74.2964H84.4107L118.125 108.011L108.011 118.125L74.2964 84.4107V79.0839L72.4759 77.2633C64.789 83.8039 54.8096 87.7821 43.9536 87.7821C32.3295 87.7821 21.1815 83.1645 12.9621 74.9451C4.74264 66.7256 0.125 55.5776 0.125 43.9536C0.125 32.3295 4.74264 21.1815 12.9621 12.9621C21.1815 4.74264 32.3295 0.125 43.9536 0.125ZM43.9536 13.6107C27.0964 13.6107 13.6107 27.0964 13.6107 43.9536C13.6107 60.8107 27.0964 74.2964 43.9536 74.2964C60.8107 74.2964 74.2964 60.8107 74.2964 43.9536C74.2964 27.0964 60.8107 13.6107 43.9536 13.6107Z"
    fill="white" />
</svg>
  