<svg width="878" height="198" viewBox="0 0 878 198" fill="none" xmlns="http://www.w3.org/2000/svg">
  <path
    d="M85.9664 56.1884C85.2375 56.1884 84.6087 56.0275 84.08 55.7057C83.5547 55.3807 83.1492 54.9276 82.8635 54.3464C82.5811 53.7619 82.4399 53.0823 82.4399 52.3074C82.4399 51.5325 82.5811 50.8495 82.8635 50.2585C83.1492 49.6642 83.5465 49.2012 84.0554 48.8696C84.5676 48.5346 85.1652 48.3672 85.8482 48.3672C86.2422 48.3672 86.6313 48.4329 87.0155 48.5642C87.3996 48.6955 87.7493 48.909 88.0645 49.2045C88.3797 49.4967 88.6309 49.8842 88.8181 50.3668C89.0052 50.8495 89.0988 51.4438 89.0988 52.1497V52.6423H83.2674V51.6375H87.9168C87.9168 51.2107 87.8314 50.8298 87.6607 50.4949C87.4932 50.16 87.2535 49.8956 86.9416 49.7019C86.6329 49.5082 86.2685 49.4113 85.8482 49.4113C85.3852 49.4113 84.9846 49.5263 84.6464 49.7561C84.3115 49.9827 84.0538 50.2782 83.8732 50.6426C83.6926 51.0071 83.6023 51.3978 83.6023 51.8148V52.4847C83.6023 53.056 83.7008 53.5403 83.8978 53.9376C84.0981 54.3316 84.3756 54.6321 84.7302 54.8389C85.0848 55.0425 85.4969 55.1443 85.9664 55.1443C86.2718 55.1443 86.5476 55.1016 86.7938 55.0162C87.0434 54.9276 87.2584 54.7962 87.439 54.6222C87.6196 54.4449 87.7592 54.2249 87.8577 53.9622L88.9806 54.2774C88.8624 54.6583 88.6638 54.9932 88.3847 55.2822C88.1056 55.5678 87.7608 55.7911 87.3504 55.952C86.9399 56.1096 86.4786 56.1884 85.9664 56.1884Z"
    fill="white" fill-opacity="0.6" />
  <path
    d="M77.0372 56.1888C76.4067 56.1888 75.8502 56.0295 75.3675 55.711C74.8848 55.3892 74.5072 54.9361 74.2347 54.3517C73.9622 53.7639 73.8259 53.0695 73.8259 52.2683C73.8259 51.4737 73.9622 50.7842 74.2347 50.1997C74.5072 49.6153 74.8865 49.1638 75.3724 48.8453C75.8584 48.5268 76.4199 48.3675 77.0569 48.3675C77.5494 48.3675 77.9385 48.4496 78.2241 48.6138C78.5131 48.7747 78.7331 48.9586 78.8841 49.1654C79.0384 49.369 79.1583 49.5365 79.2437 49.6678H79.3422V45.9443H80.5045V56.0312H79.3816V54.8688H79.2437C79.1583 55.0067 79.0368 55.1807 78.8792 55.3909C78.7216 55.5977 78.4967 55.7833 78.2044 55.9474C77.9122 56.1083 77.5231 56.1888 77.0372 56.1888ZM77.1948 55.1446C77.661 55.1446 78.055 55.0231 78.3768 54.7802C78.6986 54.5339 78.9432 54.1941 79.1107 53.7606C79.2781 53.3239 79.3619 52.8199 79.3619 52.2486C79.3619 51.6838 79.2798 51.1897 79.1156 50.7661C78.9514 50.3393 78.7085 50.0076 78.3867 49.7712C78.0649 49.5315 77.6676 49.4117 77.1948 49.4117C76.7023 49.4117 76.2918 49.5381 75.9635 49.7909C75.6384 50.0405 75.3938 50.3803 75.2296 50.8104C75.0687 51.2373 74.9883 51.7167 74.9883 52.2486C74.9883 52.7871 75.0704 53.2763 75.2345 53.7163C75.402 54.153 75.6483 54.5011 75.9733 54.7605C76.3017 55.0166 76.7088 55.1446 77.1948 55.1446Z"
    fill="white" fill-opacity="0.6" />
  <path
    d="M68.9836 56.1884C68.3007 56.1884 67.7014 56.0259 67.1859 55.7008C66.6737 55.3758 66.2731 54.921 65.9842 54.3365C65.6985 53.7521 65.5557 53.0691 65.5557 52.2877C65.5557 51.4996 65.6985 50.8117 65.9842 50.224C66.2731 49.6362 66.6737 49.1798 67.1859 48.8548C67.7014 48.5297 68.3007 48.3672 68.9836 48.3672C69.6666 48.3672 70.2642 48.5297 70.7764 48.8548C71.2919 49.1798 71.6925 49.6362 71.9781 50.224C72.2671 50.8117 72.4116 51.4996 72.4116 52.2877C72.4116 53.0691 72.2671 53.7521 71.9781 54.3365C71.6925 54.921 71.2919 55.3758 70.7764 55.7008C70.2642 56.0259 69.6666 56.1884 68.9836 56.1884ZM68.9836 55.1443C69.5024 55.1443 69.9293 55.0113 70.2642 54.7453C70.5991 54.4794 70.847 54.1297 71.0079 53.6963C71.1688 53.2628 71.2492 52.7933 71.2492 52.2877C71.2492 51.782 71.1688 51.3108 71.0079 50.8741C70.847 50.4374 70.5991 50.0844 70.2642 49.8152C69.9293 49.546 69.5024 49.4113 68.9836 49.4113C68.4648 49.4113 68.038 49.546 67.7031 49.8152C67.3681 50.0844 67.1202 50.4374 66.9594 50.8741C66.7985 51.3108 66.718 51.782 66.718 52.2877C66.718 52.7933 66.7985 53.2628 66.9594 53.6963C67.1202 54.1297 67.3681 54.4794 67.7031 54.7453C68.038 55.0113 68.4648 55.1443 68.9836 55.1443Z"
    fill="white" fill-opacity="0.6" />
  <path
    d="M53.8533 56.0308V48.4657H54.9762V49.6477H55.0747C55.2323 49.2439 55.4868 48.9303 55.8381 48.707C56.1895 48.4805 56.6114 48.3672 57.1039 48.3672C57.603 48.3672 58.0184 48.4805 58.35 48.707C58.6849 48.9303 58.9459 49.2439 59.1331 49.6477H59.2119C59.4056 49.257 59.6962 48.9467 60.0837 48.7169C60.4711 48.4838 60.9357 48.3672 61.4775 48.3672C62.1539 48.3672 62.7072 48.579 63.1373 49.0025C63.5674 49.4228 63.7825 50.0779 63.7825 50.9677V56.0308H62.6201V50.9677C62.6201 50.4095 62.4675 50.0106 62.1621 49.7709C61.8567 49.5312 61.4972 49.4113 61.0835 49.4113C60.5516 49.4113 60.1395 49.5722 59.8472 49.894C59.555 50.2125 59.4089 50.6164 59.4089 51.1056V56.0308H58.2269V50.8495C58.2269 50.4194 58.0873 50.073 57.8082 49.8103C57.5291 49.5443 57.1696 49.4113 56.7296 49.4113C56.4275 49.4113 56.1451 49.4918 55.8825 49.6527C55.6231 49.8136 55.4129 50.0368 55.252 50.3225C55.0944 50.6049 55.0156 50.9316 55.0156 51.3026V56.0308H53.8533Z"
    fill="white" fill-opacity="0.6" />
  <path
    d="M44.5577 59.0253C43.9962 59.0253 43.5135 58.9531 43.1096 58.8086C42.7058 58.6674 42.3692 58.4803 42.1 58.2472C41.834 58.0173 41.6222 57.7711 41.4646 57.5084L42.3906 56.8582C42.4956 56.9962 42.6286 57.1538 42.7895 57.3311C42.9504 57.5117 43.1704 57.6676 43.4495 57.799C43.7319 57.9336 44.1013 58.0009 44.5577 58.0009C45.1684 58.0009 45.6724 57.8531 46.0697 57.5576C46.467 57.2621 46.6656 56.7991 46.6656 56.1687V54.6321H46.5671C46.4818 54.77 46.3603 54.9407 46.2027 55.1443C46.0484 55.3446 45.8251 55.5235 45.5328 55.6811C45.2439 55.8354 44.8532 55.9126 44.3607 55.9126C43.7499 55.9126 43.2016 55.7681 42.7156 55.4792C42.233 55.1902 41.8504 54.77 41.5681 54.2183C41.289 53.6667 41.1494 52.9969 41.1494 52.2088C41.1494 51.4339 41.2857 50.7592 41.5582 50.1846C41.8307 49.6067 42.21 49.1601 42.6959 48.8449C43.1819 48.5264 43.7434 48.3672 44.3804 48.3672C44.8729 48.3672 45.2636 48.4493 45.5525 48.6134C45.8448 48.7743 46.0681 48.9582 46.2224 49.1651C46.38 49.3686 46.5015 49.5361 46.5868 49.6674H46.705V48.4657H47.828V56.2475C47.828 56.8976 47.6802 57.4263 47.3847 57.8334C47.0925 58.2439 46.6985 58.5443 46.2027 58.7347C45.7102 58.9285 45.1618 59.0253 44.5577 59.0253ZM44.5183 54.8685C44.9845 54.8685 45.3785 54.7617 45.7003 54.5483C46.0221 54.3349 46.2667 54.0279 46.4342 53.6273C46.6016 53.2267 46.6853 52.7473 46.6853 52.1891C46.6853 51.6441 46.6033 51.1631 46.4391 50.7461C46.2749 50.3291 46.0319 50.0024 45.7102 49.7659C45.3884 49.5295 44.9911 49.4113 44.5183 49.4113C44.0257 49.4113 43.6153 49.5361 43.287 49.7856C42.9619 50.0352 42.7173 50.3701 42.5531 50.7904C42.3922 51.2107 42.3118 51.6769 42.3118 52.1891C42.3118 52.7145 42.3938 53.1791 42.558 53.583C42.7255 53.9836 42.9717 54.2988 43.2968 54.5286C43.6251 54.7552 44.0323 54.8685 44.5183 54.8685Z"
    fill="white" fill-opacity="0.6" />
  <path
    d="M34.5518 51.4799V56.0308H33.3894V48.4657H34.5124V49.6477H34.6109C34.7882 49.2636 35.0574 48.9549 35.4186 48.7218C35.7798 48.4854 36.246 48.3672 36.8174 48.3672C37.3296 48.3672 37.7778 48.4723 38.1619 48.6824C38.5461 48.8893 38.8449 49.2045 39.0583 49.628C39.2717 50.0483 39.3785 50.5802 39.3785 51.2238V56.0308H38.2161V51.3026C38.2161 50.7083 38.0618 50.2453 37.7531 49.9137C37.4445 49.5788 37.0209 49.4113 36.4824 49.4113C36.1114 49.4113 35.7798 49.4918 35.4875 49.6527C35.1986 49.8136 34.9704 50.0483 34.8029 50.357C34.6355 50.6656 34.5518 51.0399 34.5518 51.4799Z"
    fill="white" fill-opacity="0.6" />
  <path
    d="M30.096 56.0309V48.4658H31.2584V56.0309H30.096ZM30.6871 47.205C30.4605 47.205 30.2651 47.1278 30.101 46.9735C29.9401 46.8192 29.8596 46.6336 29.8596 46.4169C29.8596 46.2002 29.9401 46.0147 30.101 45.8604C30.2651 45.7061 30.4605 45.6289 30.6871 45.6289C30.9136 45.6289 31.1073 45.7061 31.2682 45.8604C31.4324 46.0147 31.5145 46.2002 31.5145 46.4169C31.5145 46.6336 31.4324 46.8192 31.2682 46.9735C31.1073 47.1278 30.9136 47.205 30.6871 47.205Z"
    fill="white" fill-opacity="0.6" />
  <path
    d="M28.346 48.4658V49.4508H24.4255V48.4658H28.346ZM25.5682 46.6533H26.7305V53.8638C26.7305 54.1922 26.7781 54.4384 26.8734 54.6026C26.9719 54.7635 27.0966 54.8719 27.2477 54.9277C27.402 54.9802 27.5645 55.0065 27.7353 55.0065C27.8633 55.0065 27.9684 54.9999 28.0505 54.9868C28.1326 54.9704 28.1982 54.9572 28.2475 54.9474L28.4839 55.9915C28.4051 56.0211 28.2951 56.0506 28.1539 56.0802C28.0127 56.113 27.8338 56.1294 27.6171 56.1294C27.2887 56.1294 26.9669 56.0588 26.6517 55.9176C26.3398 55.7764 26.0804 55.5614 25.8735 55.2724C25.67 54.9835 25.5682 54.619 25.5682 54.179V46.6533Z"
    fill="white" fill-opacity="0.6" />
  <path
    d="M23.3108 48.4658V49.4508H19.3904V48.4658H23.3108ZM20.533 46.6533H21.6954V53.8638C21.6954 54.1922 21.743 54.4384 21.8382 54.6026C21.9367 54.7635 22.0615 54.8719 22.2125 54.9277C22.3668 54.9802 22.5294 55.0065 22.7001 55.0065C22.8282 55.0065 22.9332 54.9999 23.0153 54.9868C23.0974 54.9704 23.1631 54.9572 23.2123 54.9474L23.4488 55.9915C23.3699 56.0211 23.26 56.0506 23.1188 56.0802C22.9776 56.113 22.7986 56.1294 22.5819 56.1294C22.2536 56.1294 21.9318 56.0588 21.6166 55.9176C21.3046 55.7764 21.0453 55.5614 20.8384 55.2724C20.6348 54.9835 20.533 54.619 20.533 54.179V46.6533Z"
    fill="white" fill-opacity="0.6" />
  <path
    d="M15.1217 56.1884C14.3927 56.1884 13.7639 56.0275 13.2353 55.7057C12.71 55.3807 12.3044 54.9276 12.0188 54.3464C11.7364 53.7619 11.5952 53.0823 11.5952 52.3074C11.5952 51.5325 11.7364 50.8495 12.0188 50.2585C12.3044 49.6642 12.7017 49.2012 13.2107 48.8696C13.7229 48.5346 14.3205 48.3672 15.0035 48.3672C15.3975 48.3672 15.7866 48.4329 16.1707 48.5642C16.5549 48.6955 16.9046 48.909 17.2198 49.2045C17.535 49.4967 17.7862 49.8842 17.9734 50.3668C18.1605 50.8495 18.2541 51.4438 18.2541 52.1497V52.6423H12.4226V51.6375H17.072C17.072 51.2107 16.9867 50.8298 16.8159 50.4949C16.6485 50.16 16.4088 49.8956 16.0969 49.7019C15.7882 49.5082 15.4237 49.4113 15.0035 49.4113C14.5405 49.4113 14.1399 49.5263 13.8017 49.7561C13.4668 49.9827 13.209 50.2782 13.0285 50.6426C12.8479 51.0071 12.7576 51.3978 12.7576 51.8148V52.4847C12.7576 53.056 12.8561 53.5403 13.0531 53.9376C13.2534 54.3316 13.5308 54.6321 13.8854 54.8389C14.2401 55.0425 14.6521 55.1443 15.1217 55.1443C15.427 55.1443 15.7028 55.1016 15.9491 55.0162C16.1986 54.9276 16.4137 54.7962 16.5943 54.6222C16.7749 54.4449 16.9144 54.2249 17.0129 53.9622L18.1359 54.2774C18.0177 54.6583 17.819 54.9932 17.5399 55.2822C17.2608 55.5678 16.9161 55.7911 16.5056 55.952C16.0952 56.1096 15.6339 56.1884 15.1217 56.1884Z"
    fill="white" fill-opacity="0.6" />
  <path
    d="M8.7768 48.4663C8.7177 47.9672 8.478 47.5797 8.05772 47.3039C7.63743 47.0281 7.12193 46.8902 6.5112 46.8902C6.06465 46.8902 5.67392 46.9624 5.339 47.1069C5.00737 47.2514 4.74798 47.45 4.56082 47.7028C4.37695 47.9557 4.28501 48.243 4.28501 48.5648C4.28501 48.834 4.34904 49.0655 4.47709 49.2592C4.60843 49.4497 4.77589 49.6089 4.97946 49.737C5.18304 49.8617 5.39647 49.9652 5.61974 50.0472C5.84302 50.126 6.04823 50.1901 6.23539 50.2393L7.25984 50.5151C7.52251 50.5841 7.81474 50.6793 8.13652 50.8008C8.46159 50.9223 8.77187 51.0881 9.06739 51.2982C9.36618 51.5051 9.61244 51.7711 9.80617 52.0961C9.99989 52.4212 10.0968 52.8201 10.0968 53.293C10.0968 53.838 9.95392 54.3305 9.66826 54.7705C9.38588 55.2105 8.97217 55.5602 8.42711 55.8196C7.88534 56.079 7.227 56.2087 6.4521 56.2087C5.72974 56.2087 5.10424 56.0921 4.5756 55.859C4.05024 55.6259 3.63652 55.3008 3.33444 54.8838C3.03565 54.4668 2.86655 53.9825 2.82715 53.4309H4.088C4.12084 53.8117 4.24889 54.127 4.47217 54.3765C4.69873 54.6228 4.98439 54.8066 5.32915 54.9281C5.6772 55.0463 6.05152 55.1054 6.4521 55.1054C6.91835 55.1054 7.337 55.0299 7.70803 54.8789C8.07906 54.7246 8.37293 54.5111 8.58964 54.2386C8.80635 53.9628 8.91471 53.641 8.91471 53.2733C8.91471 52.9383 8.82113 52.6658 8.63397 52.4557C8.44681 52.2455 8.20055 52.0748 7.89519 51.9434C7.58982 51.8121 7.25984 51.6972 6.90522 51.5987L5.66407 51.2441C4.87604 51.0175 4.25218 50.6941 3.79249 50.2738C3.3328 49.8535 3.10296 49.3035 3.10296 48.6239C3.10296 48.0591 3.25564 47.5666 3.561 47.1463C3.86965 46.7227 4.28337 46.3944 4.80216 46.1613C5.32423 45.9248 5.90704 45.8066 6.55061 45.8066C7.20073 45.8066 7.77862 45.9232 8.28428 46.1563C8.78993 46.3862 9.19052 46.7014 9.48603 47.102C9.78483 47.5026 9.94243 47.9573 9.95885 48.4663H8.7768Z"
    fill="white" fill-opacity="0.6" />
  <path
    d="M124.548 73.3994C123.819 73.3994 123.19 73.2385 122.661 72.9167C122.136 72.5916 121.73 72.1385 121.445 71.5573C121.162 70.9729 121.021 70.2932 121.021 69.5183C121.021 68.7434 121.162 68.0604 121.445 67.4694C121.73 66.8751 122.128 66.4121 122.637 66.0805C123.149 65.7456 123.747 65.5781 124.429 65.5781C124.824 65.5781 125.213 65.6438 125.597 65.7751C125.981 65.9065 126.331 66.1199 126.646 66.4154C126.961 66.7076 127.212 67.0951 127.399 67.5778C127.587 68.0604 127.68 68.6547 127.68 69.3607V69.8532H121.849V68.8485H126.498C126.498 68.4216 126.413 68.0407 126.242 67.7058C126.075 67.3709 125.835 67.1066 125.523 66.9129C125.214 66.7191 124.85 66.6223 124.429 66.6223C123.967 66.6223 123.566 66.7372 123.228 66.967C122.893 67.1936 122.635 67.4891 122.454 67.8536C122.274 68.218 122.184 68.6088 122.184 69.0258V69.6956C122.184 70.2669 122.282 70.7512 122.479 71.1485C122.679 71.5426 122.957 71.843 123.311 72.0498C123.666 72.2534 124.078 72.3552 124.548 72.3552C124.853 72.3552 125.129 72.3125 125.375 72.2272C125.625 72.1385 125.84 72.0072 126.02 71.8331C126.201 71.6558 126.34 71.4358 126.439 71.1732L127.562 71.4884C127.444 71.8693 127.245 72.2042 126.966 72.4931C126.687 72.7788 126.342 73.0021 125.932 73.1629C125.521 73.3206 125.06 73.3994 124.548 73.3994Z"
    fill="white" fill-opacity="0.6" />
  <path
    d="M114.424 68.6909V73.2417H113.261V65.6766H114.384V66.8587H114.483C114.66 66.4745 114.929 66.1659 115.291 65.9327C115.652 65.6963 116.118 65.5781 116.689 65.5781C117.202 65.5781 117.65 65.6832 118.034 65.8933C118.418 66.1002 118.717 66.4154 118.93 66.839C119.144 67.2593 119.251 67.7912 119.251 68.4347V73.2417H118.088V68.5135C118.088 67.9192 117.934 67.4563 117.625 67.1246C117.317 66.7897 116.893 66.6223 116.355 66.6223C115.983 66.6223 115.652 66.7027 115.36 66.8636C115.071 67.0245 114.842 67.2593 114.675 67.5679C114.508 67.8766 114.424 68.2509 114.424 68.6909Z"
    fill="white" fill-opacity="0.6" />
  <path
    d="M109.969 70.1488V65.6768H111.131V73.2419H109.969V71.9613H109.89C109.713 72.3455 109.437 72.6722 109.063 72.9414C108.688 73.2074 108.215 73.3404 107.644 73.3404C107.171 73.3404 106.751 73.237 106.383 73.0301C106.015 72.82 105.727 72.5047 105.516 72.0845C105.306 71.6609 105.201 71.1273 105.201 70.4838V65.6768H106.364V70.405C106.364 70.9566 106.518 71.3966 106.826 71.7249C107.138 72.0533 107.536 72.2174 108.018 72.2174C108.307 72.2174 108.601 72.1436 108.9 71.9958C109.202 71.848 109.455 71.6215 109.658 71.3161C109.865 71.0108 109.969 70.6217 109.969 70.1488Z"
    fill="white" fill-opacity="0.6" />
  <path
    d="M103.455 65.6767V66.6618H99.5347V65.6767H103.455ZM100.677 63.8643H101.84V71.0748C101.84 71.4031 101.887 71.6494 101.982 71.8135C102.081 71.9744 102.206 72.0828 102.357 72.1386C102.511 72.1911 102.674 72.2174 102.844 72.2174C102.972 72.2174 103.078 72.2108 103.16 72.1977C103.242 72.1813 103.307 72.1682 103.357 72.1583L103.593 73.2025C103.514 73.232 103.404 73.2616 103.263 73.2911C103.122 73.3239 102.943 73.3404 102.726 73.3404C102.398 73.3404 102.076 73.2698 101.761 73.1286C101.449 72.9874 101.19 72.7723 100.983 72.4834C100.779 72.1944 100.677 71.83 100.677 71.39V63.8643Z"
    fill="white" fill-opacity="0.6" />
  <path
    d="M89.31 68.6909V73.2417H88.1477V65.6766H89.2706V66.8587H89.3692C89.5465 66.4745 89.8157 66.1659 90.1769 65.9327C90.5381 65.6963 91.0043 65.5781 91.5756 65.5781C92.0879 65.5781 92.5361 65.6832 92.9202 65.8933C93.3044 66.1002 93.6032 66.4154 93.8166 66.839C94.03 67.2593 94.1368 67.7912 94.1368 68.4347V73.2417H92.9744V68.5135C92.9744 67.9192 92.8201 67.4563 92.5114 67.1246C92.2028 66.7897 91.7792 66.6223 91.2407 66.6223C90.8697 66.6223 90.5381 66.7027 90.2458 66.8636C89.9569 67.0245 89.7287 67.2593 89.5612 67.5679C89.3938 67.8766 89.31 68.2509 89.31 68.6909Z"
    fill="white" fill-opacity="0.6" />
  <path
    d="M82.9475 73.3994C82.2645 73.3994 81.6653 73.2368 81.1498 72.9118C80.6376 72.5867 80.237 72.1319 79.948 71.5475C79.6624 70.963 79.5195 70.2801 79.5195 69.4986C79.5195 68.7106 79.6624 68.0227 79.948 67.4349C80.237 66.8472 80.6376 66.3908 81.1498 66.0657C81.6653 65.7407 82.2645 65.5781 82.9475 65.5781C83.6304 65.5781 84.228 65.7407 84.7403 66.0657C85.2558 66.3908 85.6563 66.8472 85.942 67.4349C86.2309 68.0227 86.3754 68.7106 86.3754 69.4986C86.3754 70.2801 86.2309 70.963 85.942 71.5475C85.6563 72.1319 85.2558 72.5867 84.7403 72.9118C84.228 73.2368 83.6304 73.3994 82.9475 73.3994ZM82.9475 72.3552C83.4663 72.3552 83.8931 72.2222 84.228 71.9563C84.5629 71.6903 84.8109 71.3406 84.9717 70.9072C85.1326 70.4738 85.2131 70.0042 85.2131 69.4986C85.2131 68.9929 85.1326 68.5218 84.9717 68.0851C84.8109 67.6484 84.5629 67.2954 84.228 67.0261C83.8931 66.7569 83.4663 66.6223 82.9475 66.6223C82.4287 66.6223 82.0018 66.7569 81.6669 67.0261C81.332 67.2954 81.0841 67.6484 80.9232 68.0851C80.7623 68.5218 80.6819 68.9929 80.6819 69.4986C80.6819 70.0042 80.7623 70.4738 80.9232 70.9072C81.0841 71.3406 81.332 71.6903 81.6669 71.9563C82.0018 72.2222 82.4287 72.3552 82.9475 72.3552Z"
    fill="white" fill-opacity="0.6" />
  <path
    d="M76.5838 73.2419V65.6768H77.7462V73.2419H76.5838ZM77.1748 64.4159C76.9483 64.4159 76.7529 64.3387 76.5887 64.1844C76.4279 64.0301 76.3474 63.8446 76.3474 63.6279C76.3474 63.4112 76.4279 63.2257 76.5887 63.0713C76.7529 62.917 76.9483 62.8398 77.1748 62.8398C77.4014 62.8398 77.5951 62.917 77.756 63.0713C77.9202 63.2257 78.0023 63.4112 78.0023 63.6279C78.0023 63.8446 77.9202 64.0301 77.756 64.1844C77.5951 64.3387 77.4014 64.4159 77.1748 64.4159Z"
    fill="white" fill-opacity="0.6" />
  <path
    d="M74.8331 65.6767V66.6618H70.9126V65.6767H74.8331ZM72.0552 63.8643H73.2176V71.0748C73.2176 71.4031 73.2652 71.6494 73.3604 71.8135C73.4589 71.9744 73.5837 72.0828 73.7347 72.1386C73.8891 72.1911 74.0516 72.2174 74.2223 72.2174C74.3504 72.2174 74.4555 72.2108 74.5375 72.1977C74.6196 72.1813 74.6853 72.1682 74.7346 72.1583L74.971 73.2025C74.8922 73.232 74.7822 73.2616 74.641 73.2911C74.4998 73.3239 74.3208 73.3404 74.1041 73.3404C73.7758 73.3404 73.454 73.2698 73.1388 73.1286C72.8269 72.9874 72.5675 72.7723 72.3606 72.4834C72.157 72.1944 72.0552 71.83 72.0552 71.39V63.8643Z"
    fill="white" fill-opacity="0.6" />
  <path
    d="M65.9585 73.4191C65.4791 73.4191 65.0441 73.3288 64.6533 73.1482C64.2626 72.9643 63.9523 72.7 63.7225 72.3552C63.4926 72.0072 63.3777 71.5869 63.3777 71.0944C63.3777 70.6609 63.4631 70.3096 63.6338 70.0404C63.8045 69.7678 64.0327 69.5544 64.3184 69.4001C64.6041 69.2458 64.9193 69.1308 65.264 69.0553C65.6121 68.9765 65.9618 68.9141 66.3131 68.8682C66.7728 68.8091 67.1455 68.7647 67.4311 68.7352C67.7201 68.7023 67.9302 68.6482 68.0616 68.5727C68.1962 68.4971 68.2635 68.3658 68.2635 68.1786V68.1392C68.2635 67.6533 68.1305 67.2757 67.8646 67.0064C67.6019 66.7372 67.2029 66.6026 66.6677 66.6026C66.1128 66.6026 65.6778 66.7241 65.3625 66.967C65.0473 67.21 64.8257 67.4694 64.6976 67.7452L63.5944 67.3512C63.7914 66.8915 64.0541 66.5336 64.3824 66.2775C64.7141 66.0181 65.0752 65.8375 65.466 65.7357C65.86 65.6307 66.2474 65.5781 66.6283 65.5781C66.8713 65.5781 67.1504 65.6077 67.4656 65.6668C67.7841 65.7226 68.0911 65.8392 68.3866 66.0165C68.6854 66.1938 68.9333 66.4614 69.1303 66.8193C69.3273 67.1772 69.4258 67.6566 69.4258 68.2574V73.2417H68.2635V72.2173H68.2044C68.1256 72.3815 67.9942 72.5571 67.8104 72.7443C67.6265 72.9315 67.3819 73.0907 67.0765 73.222C66.7712 73.3534 66.3985 73.4191 65.9585 73.4191ZM66.1358 72.3749C66.5955 72.3749 66.9829 72.2846 67.2982 72.104C67.6166 71.9234 67.8563 71.6903 68.0172 71.4046C68.1814 71.119 68.2635 70.8185 68.2635 70.5033V69.4395C68.2142 69.4986 68.1059 69.5528 67.9384 69.602C67.7743 69.648 67.5838 69.689 67.3671 69.7252C67.1537 69.758 66.9452 69.7875 66.7416 69.8138C66.5413 69.8368 66.3788 69.8565 66.254 69.8729C65.9519 69.9123 65.6695 69.9763 65.4069 70.065C65.1475 70.1504 64.9373 70.2801 64.7765 70.4541C64.6188 70.6248 64.54 70.8579 64.54 71.1535C64.54 71.5573 64.6894 71.8627 64.9882 72.0695C65.2903 72.2731 65.6728 72.3749 66.1358 72.3749Z"
    fill="white" fill-opacity="0.6" />
  <path
    d="M58.5657 73.2419V65.6768H59.6886V66.8194H59.7674C59.9053 66.4451 60.1549 66.1414 60.5161 65.9083C60.8772 65.6752 61.2844 65.5586 61.7375 65.5586C61.8229 65.5586 61.9296 65.5602 62.0576 65.5635C62.1857 65.5668 62.2826 65.5717 62.3482 65.5783V66.7603C62.3088 66.7505 62.2185 66.7357 62.0774 66.716C61.9394 66.693 61.7933 66.6815 61.639 66.6815C61.2713 66.6815 60.9429 66.7587 60.654 66.913C60.3683 67.0641 60.1417 67.2742 59.9743 67.5435C59.8101 67.8094 59.728 68.1131 59.728 68.4546V73.2419H58.5657Z"
    fill="white" fill-opacity="0.6" />
  <path
    d="M56.8209 65.6767V66.6618H52.9004V65.6767H56.8209ZM54.043 63.8643H55.2054V71.0748C55.2054 71.4031 55.253 71.6494 55.3482 71.8135C55.4467 71.9744 55.5715 72.0828 55.7225 72.1386C55.8769 72.1911 56.0394 72.2174 56.2101 72.2174C56.3382 72.2174 56.4433 72.2108 56.5253 72.1977C56.6074 72.1813 56.6731 72.1682 56.7224 72.1583L56.9588 73.2025C56.88 73.232 56.77 73.2616 56.6288 73.2911C56.4876 73.3239 56.3086 73.3404 56.0919 73.3404C55.7636 73.3404 55.4418 73.2698 55.1266 73.1286C54.8147 72.9874 54.5553 72.7723 54.3484 72.4834C54.1448 72.1944 54.043 71.83 54.043 71.39V63.8643Z"
    fill="white" fill-opacity="0.6" />
  <path
    d="M51.6398 67.3709L50.5957 67.6664C50.53 67.4924 50.4332 67.3233 50.3051 67.1591C50.1803 66.9917 50.0096 66.8538 49.7929 66.7454C49.5762 66.637 49.2987 66.5829 48.9605 66.5829C48.4975 66.5829 48.1117 66.6896 47.8031 66.903C47.4977 67.1131 47.345 67.3808 47.345 67.7058C47.345 67.9948 47.4501 68.223 47.6603 68.3904C47.8704 68.5579 48.1987 68.6974 48.6453 68.8091L49.7682 69.0849C50.4446 69.249 50.9487 69.5002 51.2803 69.8384C51.6119 70.1733 51.7777 70.6051 51.7777 71.1338C51.7777 71.5672 51.653 71.9546 51.4034 72.2961C51.1572 72.6376 50.8124 72.9068 50.3691 73.1038C49.9259 73.3008 49.4104 73.3994 48.8226 73.3994C48.051 73.3994 47.4124 73.2319 46.9067 72.897C46.4011 72.5621 46.0809 72.0728 45.9463 71.4293L47.0495 71.1535C47.1546 71.5606 47.3533 71.866 47.6455 72.0695C47.941 72.2731 48.3268 72.3749 48.8029 72.3749C49.3447 72.3749 49.7748 72.26 50.0933 72.0301C50.4151 71.797 50.576 71.5179 50.576 71.1929C50.576 70.9302 50.484 70.7102 50.3002 70.5329C50.1163 70.3523 49.8339 70.2177 49.453 70.129L48.1922 69.8335C47.4994 69.6693 46.9904 69.4149 46.6654 69.0701C46.3436 68.722 46.1827 68.287 46.1827 67.7649C46.1827 67.3381 46.3025 66.9605 46.5422 66.6321C46.7852 66.3038 47.1152 66.046 47.5322 65.8589C47.9525 65.6717 48.4286 65.5781 48.9605 65.5781C49.7091 65.5781 50.2969 65.7423 50.7237 66.0706C51.1539 66.399 51.4592 66.8324 51.6398 67.3709Z"
    fill="white" fill-opacity="0.6" />
  <path
    d="M42.9959 73.2419V65.6768H44.1583V73.2419H42.9959ZM43.587 64.4159C43.3604 64.4159 43.165 64.3387 43.0009 64.1844C42.84 64.0301 42.7595 63.8446 42.7595 63.6279C42.7595 63.4112 42.84 63.2257 43.0009 63.0713C43.165 62.917 43.3604 62.8398 43.587 62.8398C43.8135 62.8398 44.0072 62.917 44.1681 63.0713C44.3323 63.2257 44.4144 63.4112 44.4144 63.6279C44.4144 63.8446 44.3323 64.0301 44.1681 64.1844C44.0072 64.3387 43.8135 64.4159 43.587 64.4159Z"
    fill="white" fill-opacity="0.6" />
  <path
    d="M36.0439 68.6909V73.2417H34.8816V65.6766H36.0045V66.8587H36.103C36.2804 66.4745 36.5496 66.1659 36.9108 65.9327C37.272 65.6963 37.7382 65.5781 38.3095 65.5781C38.8218 65.5781 39.27 65.6832 39.6541 65.8933C40.0383 66.1002 40.3371 66.4154 40.5505 66.839C40.7639 67.2593 40.8706 67.7912 40.8706 68.4347V73.2417H39.7083V68.5135C39.7083 67.9192 39.554 67.4563 39.2453 67.1246C38.9367 66.7897 38.5131 66.6223 37.9746 66.6223C37.6036 66.6223 37.272 66.7027 36.9797 66.8636C36.6908 67.0245 36.4626 67.2593 36.2951 67.5679C36.1277 67.8766 36.0439 68.2509 36.0439 68.6909Z"
    fill="white" fill-opacity="0.6" />
  <path
    d="M31.5882 73.2419V65.6768H32.7506V73.2419H31.5882ZM32.1792 64.4159C31.9527 64.4159 31.7573 64.3387 31.5931 64.1844C31.4323 64.0301 31.3518 63.8446 31.3518 63.6279C31.3518 63.4112 31.4323 63.2257 31.5931 63.0713C31.7573 62.917 31.9527 62.8398 32.1792 62.8398C32.4058 62.8398 32.5995 62.917 32.7604 63.0713C32.9246 63.2257 33.0067 63.4112 33.0067 63.6279C33.0067 63.8446 32.9246 64.0301 32.7604 64.1844C32.5995 64.3387 32.4058 64.4159 32.1792 64.4159Z"
    fill="white" fill-opacity="0.6" />
  <path
    d="M19.5374 73.2417V65.6766H20.6603V66.8587H20.7588C20.9164 66.4548 21.1709 66.1412 21.5222 65.918C21.8735 65.6914 22.2955 65.5781 22.788 65.5781C23.2871 65.5781 23.7024 65.6914 24.0341 65.918C24.369 66.1412 24.63 66.4548 24.8172 66.8587H24.896C25.0897 66.4679 25.3803 66.1577 25.7677 65.9278C26.1552 65.6947 26.6198 65.5781 27.1616 65.5781C27.838 65.5781 28.3912 65.7899 28.8214 66.2135C29.2515 66.6338 29.4666 67.2888 29.4666 68.1786V73.2417H28.3042V68.1786C28.3042 67.6204 28.1515 67.2215 27.8462 66.9818C27.5408 66.7421 27.1813 66.6223 26.7676 66.6223C26.2356 66.6223 25.8236 66.7832 25.5313 67.1049C25.2391 67.4234 25.093 67.8273 25.093 68.3165V73.2417H23.9109V68.0604C23.9109 67.6303 23.7714 67.2839 23.4923 67.0212C23.2132 66.7552 22.8537 66.6223 22.4137 66.6223C22.1116 66.6223 21.8292 66.7027 21.5665 66.8636C21.3071 67.0245 21.097 67.2478 20.9361 67.5334C20.7785 67.8158 20.6997 68.1425 20.6997 68.5135V73.2417H19.5374Z"
    fill="white" fill-opacity="0.6" />
  <path
    d="M13.7781 73.3997C13.1477 73.3997 12.5912 73.2405 12.1085 72.922C11.6258 72.6002 11.2482 72.1471 10.9757 71.5626C10.7032 70.9749 10.5669 70.2804 10.5669 69.4792C10.5669 68.6846 10.7032 67.9951 10.9757 67.4107C11.2482 66.8262 11.6275 66.3747 12.1134 66.0562C12.5994 65.7377 13.1608 65.5785 13.7978 65.5785C14.2904 65.5785 14.6794 65.6606 14.9651 65.8247C15.254 65.9856 15.474 66.1695 15.6251 66.3764C15.7794 66.5799 15.8993 66.7474 15.9846 66.8787H16.0831V63.1553H17.2455V73.2421H16.1225V72.0797H15.9846C15.8993 72.2177 15.7778 72.3917 15.6202 72.6018C15.4626 72.8087 15.2376 72.9942 14.9454 73.1584C14.6532 73.3193 14.2641 73.3997 13.7781 73.3997ZM13.9357 72.3556C14.402 72.3556 14.796 72.2341 15.1178 71.9911C15.4396 71.7448 15.6842 71.405 15.8516 70.9716C16.0191 70.5349 16.1028 70.0309 16.1028 69.4595C16.1028 68.8948 16.0207 68.4006 15.8566 67.9771C15.6924 67.5502 15.4494 67.2186 15.1276 66.9822C14.8059 66.7425 14.4086 66.6226 13.9357 66.6226C13.4432 66.6226 13.0328 66.749 12.7044 67.0019C12.3794 67.2514 12.1348 67.5912 11.9706 68.0214C11.8097 68.4482 11.7292 68.9276 11.7292 69.4595C11.7292 69.998 11.8113 70.4873 11.9755 70.9273C12.143 71.364 12.3892 71.712 12.7143 71.9714C13.0426 72.2275 13.4498 72.3556 13.9357 72.3556Z"
    fill="white" fill-opacity="0.6" />
  <path
    d="M5.3313 73.4191C4.85191 73.4191 4.41685 73.3288 4.02612 73.1482C3.63538 72.9643 3.3251 72.7 3.09525 72.3552C2.86541 72.0072 2.75049 71.5869 2.75049 71.0944C2.75049 70.6609 2.83586 70.3096 3.0066 70.0404C3.17734 69.7678 3.40554 69.5544 3.6912 69.4001C3.97686 69.2458 4.29208 69.1308 4.63684 69.0553C4.98489 68.9765 5.33458 68.9141 5.68591 68.8682C6.1456 68.8091 6.51827 68.7647 6.80393 68.7352C7.09288 68.7023 7.30302 68.6482 7.43436 68.5727C7.56898 68.4971 7.63629 68.3658 7.63629 68.1786V68.1392C7.63629 67.6533 7.50331 67.2757 7.23735 67.0064C6.97467 66.7372 6.57573 66.6026 6.04053 66.6026C5.48562 66.6026 5.05056 66.7241 4.73535 66.967C4.42013 67.21 4.1985 67.4694 4.07044 67.7452L2.9672 67.3512C3.16421 66.8915 3.42688 66.5336 3.75523 66.2775C4.08686 66.0181 4.44804 65.8375 4.83878 65.7357C5.23279 65.6307 5.62024 65.5781 6.00113 65.5781C6.2441 65.5781 6.5232 65.6077 6.83841 65.6668C7.15691 65.7226 7.46391 65.8392 7.75942 66.0165C8.05822 66.1938 8.30612 66.4614 8.50313 66.8193C8.70014 67.1772 8.79864 67.6566 8.79864 68.2574V73.2417H7.63629V72.2173H7.57719C7.49839 72.3815 7.36705 72.5571 7.18318 72.7443C6.9993 72.9315 6.75468 73.0907 6.44932 73.222C6.14396 73.3534 5.77128 73.4191 5.3313 73.4191ZM5.5086 72.3749C5.96829 72.3749 6.35574 72.2846 6.67095 72.104C6.98945 71.9234 7.22914 71.6903 7.39003 71.4046C7.55421 71.119 7.63629 70.8185 7.63629 70.5033V69.4395C7.58704 69.4986 7.47869 69.5528 7.31123 69.602C7.14706 69.648 6.95661 69.689 6.73991 69.7252C6.52648 69.758 6.31798 69.7875 6.1144 69.8138C5.91411 69.8368 5.75158 69.8565 5.62681 69.8729C5.32473 69.9123 5.04235 69.9763 4.77967 70.065C4.52028 70.1504 4.31014 70.2801 4.14925 70.4541C3.99164 70.6248 3.91284 70.8579 3.91284 71.1535C3.91284 71.5573 4.06224 71.8627 4.36103 72.0695C4.66311 72.2731 5.04563 72.3749 5.5086 72.3749Z"
    fill="white" fill-opacity="0.6" />
  <path fill-rule="evenodd" clip-rule="evenodd"
    d="M860.945 163.462V109.903H864.449V163.462H860.945Z" fill="white" fill-opacity="0.6" />
  <path opacity="0.3" d="M862.447 130.926V109.903L2.00275 109.903V130.926L862.447 130.926Z"
    fill="white" fill-opacity="0.6" />
  <path fill-rule="evenodd" clip-rule="evenodd" d="M2.0022 129.425H862.447V132.929H2.0022V129.425Z"
    fill="white" fill-opacity="0.6" />
  <path fill-rule="evenodd" clip-rule="evenodd" d="M0 163.462V109.903H4.0044V163.462H0Z"
    fill="white" fill-opacity="0.6" />
  <path fill-rule="evenodd" clip-rule="evenodd" d="M774.85 141.938V131.427H778.354V141.938H774.85Z"
    fill="white" fill-opacity="0.6" />
  <path fill-rule="evenodd" clip-rule="evenodd" d="M688.756 141.938V131.427H692.26V141.938H688.756Z"
    fill="white" fill-opacity="0.6" />
  <path fill-rule="evenodd" clip-rule="evenodd"
    d="M602.662 141.938V131.427H606.166V141.938H602.662Z" fill="white" fill-opacity="0.6" />
  <path fill-rule="evenodd" clip-rule="evenodd"
    d="M516.567 141.938V131.427H520.071V141.938H516.567Z" fill="white" fill-opacity="0.6" />
  <path fill-rule="evenodd" clip-rule="evenodd"
    d="M430.473 141.938V131.427H433.977V141.938H430.473Z" fill="white" fill-opacity="0.6" />
  <path fill-rule="evenodd" clip-rule="evenodd"
    d="M344.378 141.938V131.427H347.882V141.938H344.378Z" fill="white" fill-opacity="0.6" />
  <path fill-rule="evenodd" clip-rule="evenodd"
    d="M258.284 141.938V131.427H261.788V141.938H258.284Z" fill="white" fill-opacity="0.6" />
  <path fill-rule="evenodd" clip-rule="evenodd"
    d="M172.189 141.938V131.427H176.193V141.938H172.189Z" fill="white" fill-opacity="0.6" />
  <path fill-rule="evenodd" clip-rule="evenodd"
    d="M86.0947 141.938V131.427H90.0991V141.938H86.0947Z" fill="white" fill-opacity="0.6" />
  <path d="M615.175 98.8908V77.3672H604.663V93.5099L609.919 98.8908H615.175Z" fill="white"
    fill-opacity="0.6" />
  <path d="M118.85 189.119V188.307H124.524V189.119H122.145V195.872H121.229V189.119H118.85Z"
    fill="white" fill-opacity="0.6" />
  <path
    d="M115.062 195.975C114.574 195.975 114.139 195.891 113.758 195.724C113.378 195.556 113.077 195.324 112.853 195.026C112.631 194.725 112.51 194.377 112.491 193.98H113.422C113.441 194.224 113.525 194.435 113.673 194.612C113.821 194.787 114.014 194.922 114.253 195.018C114.492 195.114 114.756 195.162 115.047 195.162C115.372 195.162 115.66 195.106 115.911 194.993C116.162 194.879 116.359 194.722 116.502 194.52C116.645 194.318 116.717 194.084 116.717 193.818C116.717 193.54 116.648 193.295 116.51 193.083C116.372 192.869 116.17 192.701 115.904 192.58C115.638 192.46 115.313 192.399 114.929 192.399H114.323V191.587H114.929C115.229 191.587 115.493 191.533 115.719 191.424C115.948 191.316 116.127 191.163 116.255 190.966C116.385 190.769 116.451 190.538 116.451 190.272C116.451 190.016 116.394 189.793 116.281 189.603C116.167 189.413 116.007 189.266 115.8 189.16C115.596 189.054 115.355 189.001 115.076 189.001C114.815 189.001 114.569 189.049 114.338 189.145C114.109 189.239 113.921 189.375 113.776 189.555C113.631 189.732 113.552 189.947 113.54 190.198H112.653C112.668 189.801 112.787 189.454 113.012 189.156C113.236 188.856 113.529 188.622 113.891 188.454C114.255 188.287 114.655 188.203 115.091 188.203C115.559 188.203 115.961 188.298 116.295 188.488C116.63 188.675 116.888 188.922 117.067 189.23C117.247 189.538 117.337 189.87 117.337 190.227C117.337 190.653 117.225 191.017 117.001 191.317C116.779 191.618 116.478 191.826 116.096 191.941V192C116.574 192.079 116.947 192.282 117.215 192.61C117.484 192.935 117.618 193.338 117.618 193.818C117.618 194.229 117.506 194.599 117.282 194.926C117.06 195.251 116.757 195.507 116.373 195.694C115.989 195.882 115.552 195.975 115.062 195.975Z"
    fill="white" fill-opacity="0.6" />
  <path d="M107.765 197.01L105.327 187.952H106.125L108.563 197.01H107.765Z" fill="white"
    fill-opacity="0.6" />
  <path
    d="M99.521 195.872V188.307H102.077C102.668 188.307 103.153 188.408 103.533 188.61C103.912 188.809 104.193 189.084 104.375 189.433C104.557 189.783 104.648 190.181 104.648 190.626C104.648 191.072 104.557 191.467 104.375 191.812C104.193 192.157 103.913 192.428 103.536 192.625C103.159 192.819 102.678 192.917 102.092 192.917H100.023V192.089H102.062C102.466 192.089 102.791 192.03 103.038 191.912C103.286 191.794 103.466 191.626 103.577 191.41C103.69 191.19 103.747 190.929 103.747 190.626C103.747 190.324 103.69 190.059 103.577 189.832C103.464 189.606 103.283 189.431 103.034 189.308C102.785 189.182 102.456 189.119 102.048 189.119H100.437V195.872H99.521ZM103.082 192.473L104.944 195.872H103.88L102.048 192.473H103.082Z"
    fill="white" fill-opacity="0.6" />
  <path
    d="M93.4211 195.872V188.307H97.9573V189.119H94.3372V191.675H97.6174V192.488H94.3372V195.872H93.4211Z"
    fill="white" fill-opacity="0.6" />
  <path
    d="M88.2762 195.872H85.9417V188.307H88.3796C89.1135 188.307 89.7414 188.458 90.2635 188.761C90.7856 189.061 91.1858 189.494 91.464 190.058C91.7423 190.619 91.8814 191.291 91.8814 192.074C91.8814 192.862 91.7411 193.541 91.4603 194.11C91.1796 194.676 90.7708 195.112 90.234 195.417C89.6971 195.72 89.0445 195.872 88.2762 195.872ZM86.8577 195.059H88.2171C88.8426 195.059 89.361 194.938 89.7722 194.697C90.1835 194.456 90.4901 194.112 90.692 193.666C90.8939 193.221 90.9949 192.69 90.9949 192.074C90.9949 191.464 90.8952 190.938 90.6957 190.497C90.4962 190.054 90.1983 189.714 89.8018 189.478C89.4053 189.239 88.9115 189.119 88.3205 189.119H86.8577V195.059Z"
    fill="white" fill-opacity="0.6" />
  <path
    d="M73.8542 195.872V190.198H74.6965V191.084H74.7703C74.8885 190.782 75.0794 190.546 75.3429 190.379C75.6064 190.209 75.9228 190.124 76.2922 190.124C76.6665 190.124 76.9781 190.209 77.2268 190.379C77.478 190.546 77.6737 190.782 77.8141 191.084H77.8732C78.0185 190.791 78.2365 190.559 78.527 190.386C78.8176 190.211 79.1661 190.124 79.5724 190.124C80.0797 190.124 80.4947 190.283 80.8173 190.601C81.1399 190.916 81.3012 191.407 81.3012 192.074V195.872H80.4294V192.074C80.4294 191.656 80.3149 191.357 80.0859 191.177C79.8568 190.997 79.5872 190.907 79.2769 190.907C78.878 190.907 78.5689 191.028 78.3497 191.269C78.1306 191.508 78.021 191.811 78.021 192.178V195.872H77.1344V191.986C77.1344 191.663 77.0298 191.403 76.8205 191.206C76.6111 191.007 76.3415 190.907 76.0115 190.907C75.7849 190.907 75.5731 190.967 75.3761 191.088C75.1816 191.209 75.024 191.376 74.9033 191.591C74.7851 191.802 74.726 192.047 74.726 192.326V195.872H73.8542Z"
    fill="white" fill-opacity="0.6" />
  <path
    d="M70.1819 195.99C69.6352 195.99 69.1637 195.869 68.7672 195.628C68.3732 195.384 68.069 195.044 67.8548 194.608C67.643 194.17 67.5371 193.66 67.5371 193.079C67.5371 192.498 67.643 191.986 67.8548 191.542C68.069 191.097 68.367 190.75 68.7487 190.501C69.1329 190.25 69.5811 190.124 70.0933 190.124C70.3888 190.124 70.6806 190.173 70.9687 190.272C71.2569 190.37 71.5191 190.53 71.7555 190.752C71.992 190.971 72.1803 191.262 72.3207 191.624C72.4611 191.986 72.5313 192.431 72.5313 192.961V193.33H68.1577V192.577H71.6447C71.6447 192.257 71.5807 191.971 71.4526 191.72C71.3271 191.469 71.1473 191.27 70.9133 191.125C70.6819 190.98 70.4085 190.907 70.0933 190.907C69.7461 190.907 69.4456 190.993 69.192 191.166C68.9408 191.336 68.7475 191.557 68.612 191.831C68.4766 192.104 68.4089 192.397 68.4089 192.71V193.212C68.4089 193.641 68.4827 194.004 68.6305 194.302C68.7807 194.597 68.9888 194.823 69.2548 194.978C69.5207 195.13 69.8298 195.207 70.1819 195.207C70.411 195.207 70.6178 195.175 70.8025 195.111C70.9897 195.044 71.151 194.946 71.2864 194.815C71.4219 194.682 71.5265 194.517 71.6004 194.32L72.4426 194.557C72.354 194.842 72.205 195.094 71.9957 195.31C71.7863 195.525 71.5278 195.692 71.2199 195.813C70.9121 195.931 70.5661 195.99 70.1819 195.99Z"
    fill="white" fill-opacity="0.6" />
  <path
    d="M66.5556 190.198V190.937H63.6152V190.198H66.5556ZM64.4722 188.839H65.344V194.247C65.344 194.493 65.3797 194.678 65.4511 194.801C65.525 194.921 65.6186 195.003 65.7318 195.045C65.8476 195.084 65.9695 195.104 66.0975 195.104C66.1936 195.104 66.2724 195.099 66.334 195.089C66.3955 195.077 66.4448 195.067 66.4817 195.059L66.659 195.843C66.5999 195.865 66.5174 195.887 66.4115 195.909C66.3056 195.934 66.1714 195.946 66.0089 195.946C65.7626 195.946 65.5213 195.893 65.2849 195.787C65.0509 195.681 64.8564 195.52 64.7012 195.303C64.5486 195.086 64.4722 194.813 64.4722 194.483V188.839Z"
    fill="white" fill-opacity="0.6" />
  <path
    d="M62.6671 191.469L61.884 191.69C61.8348 191.56 61.7621 191.433 61.6661 191.31C61.5725 191.184 61.4444 191.081 61.2819 190.999C61.1194 190.918 60.9113 190.878 60.6576 190.878C60.3104 190.878 60.0211 190.958 59.7896 191.118C59.5605 191.275 59.446 191.476 59.446 191.72C59.446 191.936 59.5248 192.108 59.6825 192.233C59.8401 192.359 60.0863 192.463 60.4212 192.547L61.2634 192.754C61.7707 192.877 62.1488 193.066 62.3975 193.319C62.6462 193.57 62.7706 193.894 62.7706 194.291C62.7706 194.616 62.677 194.906 62.4898 195.163C62.3051 195.419 62.0465 195.621 61.7141 195.768C61.3816 195.916 60.995 195.99 60.5542 195.99C59.9755 195.99 59.4965 195.864 59.1173 195.613C58.738 195.362 58.4979 194.995 58.397 194.512L59.2244 194.306C59.3032 194.611 59.4522 194.84 59.6714 194.993C59.893 195.145 60.1824 195.222 60.5394 195.222C60.9458 195.222 61.2684 195.135 61.5072 194.963C61.7486 194.788 61.8692 194.579 61.8692 194.335C61.8692 194.138 61.8003 193.973 61.6624 193.84C61.5245 193.705 61.3127 193.604 61.027 193.537L60.0814 193.316C59.5618 193.192 59.1801 193.002 58.9363 192.743C58.6949 192.482 58.5743 192.156 58.5743 191.764C58.5743 191.444 58.6642 191.161 58.8439 190.915C59.0262 190.668 59.2737 190.475 59.5864 190.335C59.9016 190.194 60.2587 190.124 60.6576 190.124C61.2191 190.124 61.6599 190.247 61.9801 190.493C62.3027 190.74 62.5317 191.065 62.6671 191.469Z"
    fill="white" fill-opacity="0.6" />
  <path
    d="M53.421 198C53.2732 198 53.1415 197.987 53.0258 197.963C52.91 197.941 52.83 197.919 52.7857 197.896L53.0073 197.128C53.2191 197.182 53.4062 197.202 53.5688 197.187C53.7313 197.172 53.8754 197.1 54.0009 196.969C54.129 196.841 54.246 196.633 54.3519 196.345L54.5144 195.902L52.4163 190.198H53.3619L54.9281 194.72H54.9872L56.5534 190.198H57.4991L55.0906 196.7C54.9823 196.993 54.8481 197.235 54.688 197.427C54.5279 197.622 54.342 197.766 54.1302 197.859C53.9209 197.953 53.6845 198 53.421 198Z"
    fill="white" fill-opacity="0.6" />
  <path
    d="M51.442 191.469L50.6589 191.69C50.6097 191.56 50.537 191.433 50.441 191.31C50.3474 191.184 50.2193 191.081 50.0568 190.999C49.8943 190.918 49.6862 190.878 49.4325 190.878C49.0853 190.878 48.796 190.958 48.5645 191.118C48.3355 191.275 48.2209 191.476 48.2209 191.72C48.2209 191.936 48.2997 192.108 48.4574 192.233C48.615 192.359 48.8612 192.463 49.1961 192.547L50.0383 192.754C50.5456 192.877 50.9236 193.066 51.1724 193.319C51.4211 193.57 51.5455 193.894 51.5455 194.291C51.5455 194.616 51.4519 194.906 51.2647 195.163C51.08 195.419 50.8215 195.621 50.489 195.768C50.1565 195.916 49.7699 195.99 49.3291 195.99C48.7504 195.99 48.2714 195.864 47.8922 195.613C47.5129 195.362 47.2728 194.995 47.1719 194.512L47.9993 194.306C48.0781 194.611 48.2271 194.84 48.4463 194.993C48.6679 195.145 48.9573 195.222 49.3143 195.222C49.7207 195.222 50.0433 195.135 50.2821 194.963C50.5235 194.788 50.6441 194.579 50.6441 194.335C50.6441 194.138 50.5752 193.973 50.4373 193.84C50.2994 193.705 50.0876 193.604 49.8019 193.537L48.8563 193.316C48.3367 193.192 47.955 193.002 47.7112 192.743C47.4698 192.482 47.3492 192.156 47.3492 191.764C47.3492 191.444 47.4391 191.161 47.6188 190.915C47.8011 190.668 48.0486 190.475 48.3613 190.335C48.6765 190.194 49.0336 190.124 49.4325 190.124C49.994 190.124 50.4348 190.247 50.755 190.493C51.0776 190.74 51.3066 191.065 51.442 191.469Z"
    fill="white" fill-opacity="0.6" />
  <path
    d="M39.6571 193.803L39.6424 192.725H39.8197L42.302 190.198H43.3806L40.7358 192.872H40.6619L39.6571 193.803ZM38.8445 195.872V188.307H39.7162V195.872H38.8445ZM42.4497 195.872L40.2334 193.064L40.854 192.459L43.5579 195.872H42.4497Z"
    fill="white" fill-opacity="0.6" />
  <path
    d="M34.9712 195.872V190.198H35.8134V191.055H35.8725C35.9759 190.774 36.1631 190.546 36.434 190.372C36.7049 190.197 37.0102 190.109 37.3501 190.109C37.4141 190.109 37.4941 190.111 37.5902 190.113C37.6862 190.116 37.7589 190.119 37.8081 190.124V191.011C37.7786 191.003 37.7108 190.992 37.6049 190.977C37.5015 190.96 37.3919 190.952 37.2762 190.952C37.0004 190.952 36.7541 191.009 36.5374 191.125C36.3232 191.238 36.1532 191.396 36.0276 191.598C35.9045 191.797 35.843 192.025 35.843 192.281V195.872H34.9712Z"
    fill="white" fill-opacity="0.6" />
  <path
    d="M31.0719 195.99C30.5597 195.99 30.1103 195.868 29.7237 195.624C29.3395 195.38 29.0391 195.039 28.8223 194.601C28.6081 194.163 28.501 193.65 28.501 193.064C28.501 192.473 28.6081 191.957 28.8223 191.517C29.0391 191.076 29.3395 190.734 29.7237 190.49C30.1103 190.246 30.5597 190.124 31.0719 190.124C31.5842 190.124 32.0324 190.246 32.4165 190.49C32.8031 190.734 33.1036 191.076 33.3178 191.517C33.5345 191.957 33.6429 192.473 33.6429 193.064C33.6429 193.65 33.5345 194.163 33.3178 194.601C33.1036 195.039 32.8031 195.38 32.4165 195.624C32.0324 195.868 31.5842 195.99 31.0719 195.99ZM31.0719 195.207C31.461 195.207 31.7812 195.107 32.0324 194.908C32.2835 194.708 32.4695 194.446 32.5901 194.121C32.7108 193.796 32.7711 193.444 32.7711 193.064C32.7711 192.685 32.7108 192.332 32.5901 192.004C32.4695 191.677 32.2835 191.412 32.0324 191.21C31.7812 191.008 31.461 190.907 31.0719 190.907C30.6828 190.907 30.3627 191.008 30.1115 191.21C29.8603 191.412 29.6744 191.677 29.5537 192.004C29.4331 192.332 29.3727 192.685 29.3727 193.064C29.3727 193.444 29.4331 193.796 29.5537 194.121C29.6744 194.446 29.8603 194.708 30.1115 194.908C30.3627 195.107 30.6828 195.207 31.0719 195.207Z"
    fill="white" fill-opacity="0.6" />
  <path
    d="M21.7908 195.872L20.062 190.198H20.9781L22.2045 194.542H22.2636L23.4752 190.198H24.406L25.6029 194.527H25.662L26.8883 190.198H27.8044L26.0757 195.872H25.2187L23.9776 191.513H23.8889L22.6477 195.872H21.7908Z"
    fill="white" fill-opacity="0.6" />
  <path
    d="M19.1923 190.198V190.937H16.252V190.198H19.1923ZM17.1089 188.839H17.9807V194.247C17.9807 194.493 18.0164 194.678 18.0878 194.801C18.1617 194.921 18.2553 195.003 18.3686 195.045C18.4843 195.084 18.6062 195.104 18.7343 195.104C18.8303 195.104 18.9091 195.099 18.9707 195.089C19.0322 195.077 19.0815 195.067 19.1184 195.059L19.2957 195.843C19.2366 195.865 19.1541 195.887 19.0482 195.909C18.9423 195.934 18.8081 195.946 18.6456 195.946C18.3993 195.946 18.158 195.893 17.9216 195.787C17.6877 195.681 17.4931 195.52 17.338 195.303C17.1853 195.086 17.1089 194.813 17.1089 194.483V188.839Z"
    fill="white" fill-opacity="0.6" />
  <path
    d="M13.0491 195.99C12.5024 195.99 12.0308 195.869 11.6344 195.628C11.2404 195.384 10.9362 195.044 10.722 194.608C10.5102 194.17 10.4043 193.66 10.4043 193.079C10.4043 192.498 10.5102 191.986 10.722 191.542C10.9362 191.097 11.2342 190.75 11.6159 190.501C12.0001 190.25 12.4483 190.124 12.9605 190.124C13.256 190.124 13.5478 190.173 13.8359 190.272C14.1241 190.37 14.3863 190.53 14.6227 190.752C14.8591 190.971 15.0475 191.262 15.1879 191.624C15.3283 191.986 15.3985 192.431 15.3985 192.961V193.33H11.0249V192.577H14.5119C14.5119 192.257 14.4479 191.971 14.3198 191.72C14.1942 191.469 14.0145 191.27 13.7805 191.125C13.549 190.98 13.2757 190.907 12.9605 190.907C12.6133 190.907 12.3128 190.993 12.0592 191.166C11.808 191.336 11.6147 191.557 11.4792 191.831C11.3438 192.104 11.2761 192.397 11.2761 192.71V193.212C11.2761 193.641 11.3499 194.004 11.4977 194.302C11.6479 194.597 11.856 194.823 12.122 194.978C12.3879 195.13 12.697 195.207 13.0491 195.207C13.2782 195.207 13.485 195.175 13.6697 195.111C13.8569 195.044 14.0182 194.946 14.1536 194.815C14.2891 194.682 14.3937 194.517 14.4676 194.32L15.3098 194.557C15.2212 194.842 15.0722 195.094 14.8628 195.31C14.6535 195.525 14.3949 195.692 14.0871 195.813C13.7793 195.931 13.4333 195.99 13.0491 195.99Z"
    fill="white" fill-opacity="0.6" />
  <path
    d="M8.95886 188.307V195.872H8.07233L3.94993 189.932H3.87605V195.872H2.95996V188.307H3.8465L7.98367 194.261H8.05755V188.307H8.95886Z"
    fill="white" fill-opacity="0.6" />
  <path d="M871.833 60.0363V59.2236H877.506V60.0363H875.127V66.7888H874.211V60.0363H871.833Z"
    fill="white" fill-opacity="0.6" />
  <path
    d="M868.048 66.8921C867.56 66.8921 867.126 66.8084 866.744 66.6409C866.365 66.4735 866.063 66.2407 865.839 65.9428C865.617 65.6423 865.497 65.2939 865.477 64.8974H866.408C866.428 65.1412 866.511 65.3517 866.659 65.529C866.807 65.7039 867 65.8393 867.239 65.9354C867.478 66.0314 867.743 66.0794 868.033 66.0794C868.358 66.0794 868.646 66.0228 868.898 65.9095C869.149 65.7962 869.346 65.6386 869.489 65.4367C869.631 65.2348 869.703 65.0008 869.703 64.7349C869.703 64.4566 869.634 64.2116 869.496 63.9998C869.358 63.7855 869.156 63.6181 868.89 63.4974C868.624 63.3767 868.299 63.3164 867.915 63.3164H867.309V62.5037H867.915C868.215 62.5037 868.479 62.4496 868.706 62.3412C868.935 62.2328 869.113 62.0802 869.241 61.8832C869.372 61.6862 869.437 61.4547 869.437 61.1887C869.437 60.9326 869.38 60.7097 869.267 60.5201C869.154 60.3305 868.994 60.1827 868.787 60.0768C868.582 59.9709 868.341 59.918 868.063 59.918C867.802 59.918 867.555 59.966 867.324 60.0621C867.095 60.1556 866.908 60.2923 866.763 60.4721C866.617 60.6494 866.538 60.8636 866.526 61.1148H865.64C865.654 60.7183 865.774 60.3711 865.998 60.0731C866.222 59.7727 866.515 59.5388 866.877 59.3713C867.242 59.2038 867.642 59.1201 868.078 59.1201C868.545 59.1201 868.947 59.2149 869.282 59.4045C869.617 59.5917 869.874 59.8392 870.054 60.147C870.234 60.4548 870.323 60.7873 870.323 61.1444C870.323 61.5704 870.211 61.9336 869.987 62.2341C869.766 62.5345 869.464 62.7426 869.082 62.8584V62.9175C869.56 62.9963 869.933 63.1994 870.202 63.5269C870.47 63.852 870.604 64.2546 870.604 64.7349C870.604 65.1461 870.492 65.5155 870.268 65.843C870.046 66.1681 869.744 66.4242 869.359 66.6114C868.975 66.7985 868.538 66.8921 868.048 66.8921Z"
    fill="white" fill-opacity="0.6" />
  <path d="M860.747 67.9266L858.309 58.8691H859.107L861.545 67.9266H860.747Z" fill="white"
    fill-opacity="0.6" />
  <path
    d="M852.51 66.7888V59.2236H855.067C855.658 59.2236 856.143 59.3246 856.522 59.5265C856.901 59.726 857.182 60.0006 857.364 60.3503C857.547 60.7 857.638 61.0977 857.638 61.5434C857.638 61.9891 857.547 62.3844 857.364 62.7291C857.182 63.0739 856.903 63.3448 856.526 63.5418C856.149 63.7364 855.668 63.8336 855.081 63.8336H853.013V63.0062H855.052C855.456 63.0062 855.781 62.9471 856.027 62.8289C856.276 62.7107 856.456 62.5432 856.566 62.3265C856.68 62.1073 856.736 61.8463 856.736 61.5434C856.736 61.2405 856.68 60.9758 856.566 60.7492C856.453 60.5227 856.272 60.3478 856.023 60.2247C855.775 60.0991 855.446 60.0363 855.037 60.0363H853.427V66.7888H852.51ZM856.071 63.3904L857.933 66.7888H856.869L855.037 63.3904H856.071Z"
    fill="white" fill-opacity="0.6" />
  <path
    d="M846.403 66.7888V59.2236H850.939V60.0363H847.319V62.5925H850.6V63.4051H847.319V66.7888H846.403Z"
    fill="white" fill-opacity="0.6" />
  <path
    d="M841.263 66.7888H838.928V59.2236H841.366C842.1 59.2236 842.728 59.3751 843.25 59.678C843.772 59.9784 844.172 60.4106 844.45 60.9745C844.729 61.536 844.868 62.2083 844.868 62.9914C844.868 63.7794 844.727 64.4579 844.447 65.0268C844.166 65.5932 843.757 66.029 843.22 66.3344C842.683 66.6373 842.031 66.7888 841.263 66.7888ZM839.844 65.9761H841.203C841.829 65.9761 842.347 65.8554 842.759 65.6141C843.17 65.3728 843.476 65.0292 843.678 64.5835C843.88 64.1378 843.981 63.6071 843.981 62.9914C843.981 62.3807 843.882 61.8549 843.682 61.4141C843.483 60.9709 843.185 60.631 842.788 60.3946C842.392 60.1557 841.898 60.0363 841.307 60.0363H839.844V65.9761Z"
    fill="white" fill-opacity="0.6" />
  <path
    d="M826.844 66.7887V61.1149H827.686V62.0014H827.76C827.878 61.6985 828.069 61.4634 828.332 61.2959C828.596 61.126 828.912 61.041 829.281 61.041C829.656 61.041 829.967 61.126 830.216 61.2959C830.467 61.4634 830.663 61.6985 830.803 62.0014H830.862C831.008 61.7084 831.226 61.4757 831.516 61.3033C831.807 61.1284 832.155 61.041 832.562 61.041C833.069 61.041 833.484 61.1999 833.807 61.5175C834.129 61.8327 834.29 62.324 834.29 62.9914V66.7887H833.419V62.9914C833.419 62.5728 833.304 62.2735 833.075 62.0938C832.846 61.914 832.576 61.8241 832.266 61.8241C831.867 61.8241 831.558 61.9448 831.339 62.1861C831.12 62.425 831.01 62.7279 831.01 63.0948V66.7887H830.124V62.9027C830.124 62.5801 830.019 62.3203 829.81 62.1233C829.6 61.9239 829.331 61.8241 829.001 61.8241C828.774 61.8241 828.562 61.8845 828.365 62.0051C828.171 62.1258 828.013 62.2932 827.893 62.5075C827.774 62.7193 827.715 62.9643 827.715 63.2426V66.7887H826.844Z"
    fill="white" fill-opacity="0.6" />
  <path
    d="M823.168 66.9069C822.622 66.9069 822.15 66.7863 821.754 66.5449C821.359 66.3011 821.055 65.9613 820.841 65.5254C820.629 65.0871 820.523 64.5773 820.523 63.9961C820.523 63.415 820.629 62.9027 820.841 62.4595C821.055 62.0137 821.353 61.6665 821.735 61.4178C822.119 61.1666 822.567 61.041 823.08 61.041C823.375 61.041 823.667 61.0903 823.955 61.1888C824.243 61.2873 824.505 61.4473 824.742 61.669C824.978 61.8882 825.167 62.1787 825.307 62.5407C825.447 62.9027 825.518 63.3485 825.518 63.8779V64.2473H821.144V63.4938H824.631C824.631 63.1736 824.567 62.888 824.439 62.6368C824.313 62.3856 824.134 62.1874 823.9 62.0421C823.668 61.8968 823.395 61.8241 823.08 61.8241C822.732 61.8241 822.432 61.9103 822.178 62.0827C821.927 62.2526 821.734 62.4743 821.598 62.7476C821.463 63.0209 821.395 63.314 821.395 63.6267V64.1291C821.395 64.5576 821.469 64.9208 821.617 65.2188C821.767 65.5143 821.975 65.7397 822.241 65.8948C822.507 66.0475 822.816 66.1238 823.168 66.1238C823.397 66.1238 823.604 66.0918 823.789 66.0278C823.976 65.9613 824.137 65.8628 824.273 65.7323C824.408 65.5993 824.513 65.4343 824.587 65.2373L825.429 65.4737C825.34 65.7594 825.191 66.0106 824.982 66.2273C824.773 66.4415 824.514 66.609 824.206 66.7296C823.898 66.8478 823.552 66.9069 823.168 66.9069Z"
    fill="white" fill-opacity="0.6" />
  <path
    d="M819.538 61.1152V61.854H816.598V61.1152H819.538ZM817.455 59.7559H818.327V65.1637C818.327 65.41 818.362 65.5947 818.434 65.7178C818.508 65.8385 818.601 65.9198 818.715 65.9616C818.83 66.001 818.952 66.0207 819.08 66.0207C819.176 66.0207 819.255 66.0158 819.317 66.0059C819.378 65.9936 819.427 65.9838 819.464 65.9764L819.642 66.7595C819.583 66.7817 819.5 66.8038 819.394 66.826C819.288 66.8506 819.154 66.8629 818.992 66.8629C818.745 66.8629 818.504 66.81 818.268 66.7041C818.034 66.5982 817.839 66.4369 817.684 66.2202C817.531 66.0035 817.455 65.7301 817.455 65.4001V59.7559Z"
    fill="white" fill-opacity="0.6" />
  <path
    d="M815.653 62.3856L814.87 62.6072C814.821 62.4767 814.748 62.3499 814.652 62.2268C814.559 62.1012 814.431 61.9977 814.268 61.9165C814.106 61.8352 813.898 61.7946 813.644 61.7946C813.297 61.7946 813.007 61.8746 812.776 62.0347C812.547 62.1923 812.432 62.393 812.432 62.6368C812.432 62.8535 812.511 63.0246 812.669 63.1502C812.826 63.2758 813.073 63.3805 813.408 63.4642L814.25 63.6711C814.757 63.7942 815.135 63.9826 815.384 64.2362C815.633 64.4874 815.757 64.8113 815.757 65.2077C815.757 65.5328 815.663 65.8234 815.476 66.0795C815.291 66.3356 815.033 66.5375 814.7 66.6853C814.368 66.8331 813.981 66.9069 813.541 66.9069C812.962 66.9069 812.483 66.7813 812.104 66.5302C811.724 66.279 811.484 65.912 811.383 65.4294L812.211 65.2225C812.29 65.5279 812.439 65.7569 812.658 65.9096C812.879 66.0623 813.169 66.1386 813.526 66.1386C813.932 66.1386 814.255 66.0524 814.494 65.88C814.735 65.7052 814.856 65.4959 814.856 65.2521C814.856 65.0551 814.787 64.8901 814.649 64.7571C814.511 64.6216 814.299 64.5207 814.013 64.4542L813.068 64.2325C812.548 64.1094 812.166 63.9186 811.923 63.66C811.681 63.399 811.561 63.0727 811.561 62.6811C811.561 62.361 811.65 62.0778 811.83 61.8315C812.012 61.5853 812.26 61.3919 812.573 61.2516C812.888 61.1112 813.245 61.041 813.644 61.041C814.205 61.041 814.646 61.1641 814.966 61.4104C815.289 61.6567 815.518 61.9817 815.653 62.3856Z"
    fill="white" fill-opacity="0.6" />
  <path
    d="M806.408 68.9168C806.26 68.9168 806.129 68.9044 806.013 68.8798C805.897 68.8577 805.817 68.8355 805.773 68.8133L805.994 68.045C806.206 68.0992 806.393 68.1189 806.556 68.1041C806.718 68.0893 806.862 68.0167 806.988 67.8862C807.116 67.7581 807.233 67.55 807.339 67.2619L807.501 66.8186L805.403 61.1152H806.349L807.915 65.6366H807.974L809.54 61.1152H810.486L808.078 67.6165C807.969 67.9096 807.835 68.1521 807.675 68.3442C807.515 68.5388 807.329 68.6828 807.117 68.7764C806.908 68.87 806.672 68.9168 806.408 68.9168Z"
    fill="white" fill-opacity="0.6" />
  <path
    d="M804.431 62.3856L803.648 62.6072C803.599 62.4767 803.526 62.3499 803.43 62.2268C803.337 62.1012 803.209 61.9977 803.046 61.9165C802.884 61.8352 802.675 61.7946 802.422 61.7946C802.075 61.7946 801.785 61.8746 801.554 62.0347C801.325 62.1923 801.21 62.393 801.21 62.6368C801.21 62.8535 801.289 63.0246 801.447 63.1502C801.604 63.2758 801.85 63.3805 802.185 63.4642L803.028 63.6711C803.535 63.7942 803.913 63.9826 804.162 64.2362C804.41 64.4874 804.535 64.8113 804.535 65.2077C804.535 65.5328 804.441 65.8234 804.254 66.0795C804.069 66.3356 803.811 66.5375 803.478 66.6853C803.146 66.8331 802.759 66.9069 802.318 66.9069C801.74 66.9069 801.261 66.7813 800.881 66.5302C800.502 66.279 800.262 65.912 800.161 65.4294L800.989 65.2225C801.067 65.5279 801.216 65.7569 801.436 65.9096C801.657 66.0623 801.947 66.1386 802.304 66.1386C802.71 66.1386 803.033 66.0524 803.271 65.88C803.513 65.7052 803.633 65.4959 803.633 65.2521C803.633 65.0551 803.564 64.8901 803.427 64.7571C803.289 64.6216 803.077 64.5207 802.791 64.4542L801.846 64.2325C801.326 64.1094 800.944 63.9186 800.7 63.66C800.459 63.399 800.338 63.0727 800.338 62.6811C800.338 62.361 800.428 62.0778 800.608 61.8315C800.79 61.5853 801.038 61.3919 801.351 61.2516C801.666 61.1112 802.023 61.041 802.422 61.041C802.983 61.041 803.424 61.1641 803.744 61.4104C804.067 61.6567 804.296 61.9817 804.431 62.3856Z"
    fill="white" fill-opacity="0.6" />
  <path
    d="M792.641 64.7202L792.626 63.6415H792.803L795.285 61.1149H796.364L793.719 63.7893H793.645L792.641 64.7202ZM791.828 66.7888V59.2236H792.7V66.7888H791.828ZM795.433 66.7888L793.217 63.9814L793.837 63.3756L796.541 66.7888H795.433Z"
    fill="white" fill-opacity="0.6" />
  <path
    d="M787.958 66.7889V61.115H788.8V61.972H788.859C788.963 61.6913 789.15 61.4635 789.421 61.2886C789.691 61.1138 789.997 61.0264 790.337 61.0264C790.401 61.0264 790.481 61.0276 790.577 61.0301C790.673 61.0325 790.745 61.0362 790.795 61.0411V61.9277C790.765 61.9203 790.697 61.9092 790.592 61.8944C790.488 61.8772 790.379 61.8686 790.263 61.8686C789.987 61.8686 789.741 61.9264 789.524 62.0422C789.31 62.1555 789.14 62.3131 789.014 62.515C788.891 62.7145 788.83 62.9423 788.83 63.1984V66.7889H787.958Z"
    fill="white" fill-opacity="0.6" />
  <path
    d="M784.055 66.9069C783.543 66.9069 783.093 66.785 782.707 66.5412C782.322 66.2974 782.022 65.9564 781.805 65.518C781.591 65.0797 781.484 64.5675 781.484 63.9814C781.484 63.3903 781.591 62.8744 781.805 62.4336C782.022 61.9928 782.322 61.6505 782.707 61.4067C783.093 61.1629 783.543 61.041 784.055 61.041C784.567 61.041 785.015 61.1629 785.399 61.4067C785.786 61.6505 786.086 61.9928 786.301 62.4336C786.517 62.8744 786.626 63.3903 786.626 63.9814C786.626 64.5675 786.517 65.0797 786.301 65.518C786.086 65.9564 785.786 66.2974 785.399 66.5412C785.015 66.785 784.567 66.9069 784.055 66.9069ZM784.055 66.1238C784.444 66.1238 784.764 66.0241 785.015 65.8246C785.266 65.6252 785.452 65.3629 785.573 65.0378C785.694 64.7128 785.754 64.3606 785.754 63.9814C785.754 63.6021 785.694 63.2487 785.573 62.9212C785.452 62.5937 785.266 62.329 785.015 62.127C784.764 61.9251 784.444 61.8241 784.055 61.8241C783.666 61.8241 783.346 61.9251 783.094 62.127C782.843 62.329 782.657 62.5937 782.537 62.9212C782.416 63.2487 782.356 63.6021 782.356 63.9814C782.356 64.3606 782.416 64.7128 782.537 65.0378C782.657 65.3629 782.843 65.6252 783.094 65.8246C783.346 66.0241 783.666 66.1238 784.055 66.1238Z"
    fill="white" fill-opacity="0.6" />
  <path
    d="M774.778 66.7891L773.049 61.1152H773.965L775.192 65.4593H775.251L776.462 61.1152H777.393L778.59 65.4445H778.649L779.875 61.1152H780.791L779.063 66.7891H778.206L776.965 62.4303H776.876L775.635 66.7891H774.778Z"
    fill="white" fill-opacity="0.6" />
  <path
    d="M772.183 61.1152V61.854H769.243V61.1152H772.183ZM770.1 59.7559H770.971V65.1637C770.971 65.41 771.007 65.5947 771.079 65.7178C771.152 65.8385 771.246 65.9198 771.359 65.9616C771.475 66.001 771.597 66.0207 771.725 66.0207C771.821 66.0207 771.9 66.0158 771.961 66.0059C772.023 65.9936 772.072 65.9838 772.109 65.9764L772.286 66.7595C772.227 66.7817 772.145 66.8038 772.039 66.826C771.933 66.8506 771.799 66.8629 771.636 66.8629C771.39 66.8629 771.149 66.81 770.912 66.7041C770.678 66.5982 770.484 66.4369 770.329 66.2202C770.176 66.0035 770.1 65.7301 770.1 65.4001V59.7559Z"
    fill="white" fill-opacity="0.6" />
  <path
    d="M766.04 66.9069C765.493 66.9069 765.022 66.7863 764.625 66.5449C764.231 66.3011 763.927 65.9613 763.713 65.5254C763.501 65.0871 763.395 64.5773 763.395 63.9961C763.395 63.415 763.501 62.9027 763.713 62.4595C763.927 62.0137 764.225 61.6665 764.607 61.4178C764.991 61.1666 765.439 61.041 765.951 61.041C766.247 61.041 766.539 61.0903 766.827 61.1888C767.115 61.2873 767.377 61.4473 767.613 61.669C767.85 61.8882 768.038 62.1787 768.179 62.5407C768.319 62.9027 768.389 63.3485 768.389 63.8779V64.2473H764.016V63.4938H767.503C767.503 63.1736 767.439 62.888 767.311 62.6368C767.185 62.3856 767.005 62.1874 766.771 62.0421C766.54 61.8968 766.266 61.8241 765.951 61.8241C765.604 61.8241 765.304 61.9103 765.05 62.0827C764.799 62.2526 764.605 62.4743 764.47 62.7476C764.335 63.0209 764.267 63.314 764.267 63.6267V64.1291C764.267 64.5576 764.341 64.9208 764.488 65.2188C764.639 65.5143 764.847 65.7397 765.113 65.8948C765.379 66.0475 765.688 66.1238 766.04 66.1238C766.269 66.1238 766.476 66.0918 766.66 66.0278C766.848 65.9613 767.009 65.8628 767.144 65.7323C767.28 65.5993 767.384 65.4343 767.458 65.2373L768.301 65.4737C768.212 65.7594 768.063 66.0106 767.854 66.2273C767.644 66.4415 767.386 66.609 767.078 66.7296C766.77 66.8478 766.424 66.9069 766.04 66.9069Z"
    fill="white" fill-opacity="0.6" />
  <path
    d="M761.945 59.2236V66.7888H761.059L756.936 60.849H756.862V66.7888H755.946V59.2236H756.833L760.97 65.1782H761.044V59.2236H761.945Z"
    fill="white" fill-opacity="0.6" />
  <path
    d="M43.024 0L48.225 8.39255H48.3827L53.5837 0H56.46L50.1163 10.0868L56.46 20.1737H53.5837L48.3827 11.9387H48.225L43.024 20.1737H40.1477L46.649 10.0868L40.1477 0H43.024Z"
    fill="white" fill-opacity="0.6" />
  <path
    d="M28.452 20.1737H22.2266V0H28.7278C30.6848 0 32.3594 0.403867 33.7515 1.2116C35.1437 2.01277 36.2109 3.16527 36.9529 4.6691C37.695 6.16636 38.066 7.95914 38.066 10.0474C38.066 12.1488 37.6917 13.958 36.9431 15.475C36.1944 16.9854 35.1043 18.1478 33.6727 18.9621C32.2412 19.7698 30.5009 20.1737 28.452 20.1737ZM24.6695 18.0066H28.2944C29.9624 18.0066 31.3448 17.6848 32.4414 17.0412C33.5381 16.3977 34.3557 15.4816 34.8942 14.293C35.4327 13.1043 35.7019 11.6892 35.7019 10.0474C35.7019 8.41882 35.436 7.01678 34.904 5.8413C34.3721 4.65925 33.5775 3.75301 32.5202 3.12258C31.463 2.48559 30.1463 2.16709 28.5702 2.16709H24.6695V18.0066Z"
    fill="white" fill-opacity="0.6" />
  <path
    d="M4.4873 20.1737V0H11.3038C12.8799 0 14.1735 0.269245 15.1849 0.807734C16.1962 1.33966 16.9448 2.07187 17.4307 3.00438C17.9167 3.93688 18.1597 4.99745 18.1597 6.18606C18.1597 7.37468 17.9167 8.42867 17.4307 9.34804C16.9448 10.2674 16.1994 10.9898 15.1947 11.5151C14.19 12.0339 12.9061 12.2933 11.3432 12.2933H5.82696V10.0868H11.2644C12.3414 10.0868 13.2082 9.92922 13.8649 9.61401C14.5282 9.29879 15.0075 8.85224 15.3031 8.27435C15.6051 7.68989 15.7562 6.9938 15.7562 6.18606C15.7562 5.37833 15.6051 4.67238 15.3031 4.06822C15.001 3.46406 14.5183 2.99781 13.855 2.66946C13.1918 2.33455 12.3151 2.16709 11.225 2.16709H6.93021V20.1737H4.4873ZM13.9831 11.1113L18.9477 20.1737H16.1108L11.225 11.1113H13.9831Z"
    fill="white" fill-opacity="0.6" />
  <path d="M615.175 131.427V120.415L2.00226 120.415V131.427L615.175 131.427Z" fill="white"
    fill-opacity="0.6" />
</svg>
  