<svg width="1310" height="198" viewBox="0 0 1310 198" fill="none" xmlns="http://www.w3.org/2000/svg">
  <path d="M611.855 83.8451V64.208H623.706V66.3175H614.233V72.9527H623.093V75.0621H614.233V81.7357H623.86V83.8451H611.855Z" fill="white" fill-opacity="0.3"/>
  <path d="M596.667 83.8451V64.208H599.045V81.7357H608.173V83.8451H596.667Z" fill="white" fill-opacity="0.3"/>
  <path d="M591.899 64.208V83.8451H589.521V64.208H591.899Z" fill="white" fill-opacity="0.3"/>
  <path d="M573.674 83.8451V64.208H585.448V66.3175H576.052V72.9527H584.566V75.0621H576.052V83.8451H573.674Z" fill="white" fill-opacity="0.3"/>
  <path d="M811.612 74.0265C811.612 76.0976 811.238 77.8874 810.49 79.396C809.743 80.9046 808.717 82.068 807.413 82.8862C806.109 83.7044 804.619 84.1135 802.944 84.1135C801.27 84.1135 799.78 83.7044 798.476 82.8862C797.172 82.068 796.146 80.9046 795.398 79.396C794.65 77.8874 794.276 76.0976 794.276 74.0265C794.276 71.9554 794.65 70.1655 795.398 68.657C796.146 67.1484 797.172 65.985 798.476 65.1668C799.78 64.3486 801.27 63.9395 802.944 63.9395C804.619 63.9395 806.109 64.3486 807.413 65.1668C808.717 65.985 809.743 67.1484 810.49 68.657C811.238 70.1655 811.612 71.9554 811.612 74.0265ZM809.311 74.0265C809.311 72.3261 809.027 70.8911 808.458 69.7213C807.895 68.5515 807.131 67.6662 806.166 67.0653C805.207 66.4644 804.133 66.164 802.944 66.164C801.755 66.164 800.678 66.4644 799.713 67.0653C798.754 67.6662 797.99 68.5515 797.421 69.7213C796.859 70.8911 796.578 72.3261 796.578 74.0265C796.578 75.7268 796.859 77.1619 797.421 78.3317C797.99 79.5015 798.754 80.3868 799.713 80.9877C800.678 81.5886 801.755 81.889 802.944 81.889C804.133 81.889 805.207 81.5886 806.166 80.9877C807.131 80.3868 807.895 79.5015 808.458 78.3317C809.027 77.1619 809.311 75.7268 809.311 74.0265Z" fill="white" fill-opacity="0.3"/>
  <path d="M777.463 66.3165V64.207H792.191V66.3165H786.016V83.8442H783.638V66.3165H777.463Z" fill="white" fill-opacity="0.3"/>
  <path d="M775.355 74.0265C775.355 76.0976 774.981 77.8874 774.234 79.396C773.486 80.9046 772.46 82.068 771.156 82.8862C769.852 83.7044 768.362 84.1135 766.687 84.1135C765.013 84.1135 763.523 83.7044 762.219 82.8862C760.915 82.068 759.889 80.9046 759.141 79.396C758.393 77.8874 758.02 76.0976 758.02 74.0265C758.02 71.9554 758.393 70.1655 759.141 68.657C759.889 67.1484 760.915 65.985 762.219 65.1668C763.523 64.3486 765.013 63.9395 766.687 63.9395C768.362 63.9395 769.852 64.3486 771.156 65.1668C772.46 65.985 773.486 67.1484 774.234 68.657C774.981 70.1655 775.355 71.9554 775.355 74.0265ZM773.054 74.0265C773.054 72.3261 772.77 70.8911 772.201 69.7213C771.638 68.5515 770.874 67.6662 769.909 67.0653C768.95 66.4644 767.876 66.164 766.687 66.164C765.499 66.164 764.421 66.4644 763.456 67.0653C762.497 67.6662 761.733 68.5515 761.165 69.7213C760.602 70.8911 760.321 72.3261 760.321 74.0265C760.321 75.7268 760.602 77.1619 761.165 78.3317C761.733 79.5015 762.497 80.3868 763.456 80.9877C764.421 81.5886 765.499 81.889 766.687 81.889C767.876 81.889 768.95 81.5886 769.909 80.9877C770.874 80.3868 771.638 79.5015 772.201 78.3317C772.77 77.1619 773.054 75.7268 773.054 74.0265Z" fill="white" fill-opacity="0.3"/>
  <path d="M744.179 66.5471H747.285C748.743 66.5471 750.037 66.8731 751.169 67.5251C752.3 68.1771 753.189 69.0848 753.834 70.2482C754.48 71.4116 754.803 72.7604 754.803 74.2945C754.803 75.8287 754.48 77.1807 753.834 78.3504C753.189 79.5202 752.3 80.4343 751.169 81.0927C750.037 81.7511 748.743 82.0803 747.285 82.0803H744.179C742.721 82.0803 741.427 81.7543 740.295 81.1023C739.164 80.4503 738.275 79.5426 737.63 78.3792C736.984 77.2158 736.661 75.867 736.661 74.3329C736.661 72.7987 736.984 71.4468 737.63 70.277C738.275 69.1072 739.164 68.1931 740.295 67.5347C741.427 66.8763 742.721 66.5471 744.179 66.5471ZM744.179 68.6565C743.066 68.6565 742.127 68.8898 741.36 69.3565C740.599 69.8231 740.021 70.4815 739.624 71.3317C739.234 72.1819 739.039 73.1823 739.039 74.3329C739.039 75.4707 739.234 76.4615 739.624 77.3053C740.021 78.1491 740.599 78.8043 741.36 79.2709C742.127 79.7376 743.066 79.9709 744.179 79.9709H747.285C748.398 79.9709 749.334 79.7376 750.095 79.2709C750.862 78.8043 751.44 78.1459 751.83 77.2957C752.227 76.4455 752.425 75.4451 752.425 74.2945C752.425 73.1567 752.227 72.1659 751.83 71.3221C751.44 70.4783 750.862 69.8231 750.095 69.3565C749.334 68.8898 748.398 68.6565 747.285 68.6565H744.179ZM746.94 63.8623V84.65H744.562V63.8623H746.94Z" fill="white" fill-opacity="0.3"/>
  <path d="M1007.29 83.8451H1004.91V66.3175H1000.73C999.667 66.3175 998.814 66.4805 998.168 66.8065C997.523 67.1261 997.053 67.5799 996.759 68.168C996.465 68.7561 996.318 69.4433 996.318 70.2295C996.318 71.0158 996.462 71.6934 996.749 72.2623C997.043 72.8248 997.51 73.2595 998.149 73.5663C998.795 73.8732 999.642 74.0266 1000.69 74.0266H1005.98V76.1744H1000.61C999.092 76.1744 997.842 75.9219 996.864 75.4169C995.886 74.9055 995.161 74.2024 994.688 73.3074C994.215 72.4125 993.978 71.3866 993.978 70.2295C993.978 69.0725 994.215 68.0402 994.688 67.1325C995.161 66.2248 995.89 65.512 996.874 64.9943C997.858 64.4701 999.118 64.208 1000.65 64.208H1007.29V83.8451ZM998.044 75.0238H1000.73L995.973 83.8451H993.211L998.044 75.0238Z" fill="white" fill-opacity="0.3"/>
  <path d="M977.803 83.8451V64.208H989.654V66.3175H980.181V72.9527H989.04V75.0621H980.181V81.7357H989.807V83.8451H977.803Z" fill="white" fill-opacity="0.3"/>
  <path d="M960.664 83.8451V64.208H967.299C968.839 64.208 970.099 64.4861 971.077 65.0422C972.061 65.5919 972.79 66.3366 973.263 67.2763C973.736 68.216 973.972 69.2643 973.972 70.4213C973.972 71.5783 973.736 72.6299 973.263 73.5759C972.796 74.522 972.074 75.2763 971.096 75.8388C970.118 76.3949 968.865 76.673 967.337 76.673H962.581V74.5635H967.26C968.315 74.5635 969.162 74.3813 969.801 74.017C970.441 73.6526 970.904 73.1604 971.192 72.5404C971.486 71.9139 971.633 71.2076 971.633 70.4213C971.633 69.6351 971.486 68.9319 971.192 68.3119C970.904 67.6918 970.437 67.206 969.792 66.8544C969.146 66.4964 968.29 66.3175 967.222 66.3175H963.042V83.8451H960.664Z" fill="white" fill-opacity="0.3"/>
  <path d="M944.526 83.8451V64.208H956.377V66.3175H946.904V72.9527H955.763V75.0621H946.904V81.7357H956.53V83.8451H944.526Z" fill="white" fill-opacity="0.3"/>
  <path d="M923.589 83.8451V81.659H924.165C924.983 81.659 925.619 81.3969 926.073 80.8727C926.527 80.3486 926.853 79.5016 927.051 78.3318C927.255 77.162 927.393 75.6119 927.463 73.6814L927.808 64.208H939.775V83.8451H937.397V66.3175H930.071L929.764 74.1416C929.688 76.2 929.499 77.9514 929.199 79.3961C928.898 80.8408 928.371 81.9434 927.617 82.7041C926.862 83.4648 925.763 83.8451 924.318 83.8451H923.589Z" fill="white" fill-opacity="0.3"/>
  <path d="M907.836 83.8451H905.343L912.554 64.208H915.008L922.219 83.8451H919.726L913.858 67.3147H913.704L907.836 83.8451ZM908.757 76.1744H918.805V78.2838H908.757V76.1744Z" fill="white" fill-opacity="0.3"/>
  <path d="M905.645 64.208V66.3175H896.172V83.8451H893.794V64.208H905.645Z" fill="white" fill-opacity="0.3"/>
  <path d="M1282.83 83.8451H1280.45V66.3175H1276.27C1275.21 66.3175 1274.35 66.4805 1273.71 66.8065C1273.06 67.1261 1272.59 67.5799 1272.3 68.168C1272 68.7561 1271.86 69.4433 1271.86 70.2295C1271.86 71.0158 1272 71.6934 1272.29 72.2623C1272.58 72.8248 1273.05 73.2595 1273.69 73.5663C1274.33 73.8732 1275.18 74.0266 1276.23 74.0266H1281.52V76.1744H1276.15C1274.63 76.1744 1273.38 75.9219 1272.4 75.4169C1271.43 74.9055 1270.7 74.2024 1270.23 73.3074C1269.75 72.4125 1269.52 71.3866 1269.52 70.2295C1269.52 69.0725 1269.75 68.0402 1270.23 67.1325C1270.7 66.2248 1271.43 65.512 1272.41 64.9943C1273.4 64.4701 1274.66 64.208 1276.19 64.208H1282.83V83.8451ZM1273.58 75.0238H1276.27L1271.51 83.8451H1268.75L1273.58 75.0238Z" fill="white" fill-opacity="0.3"/>
  <path d="M1249.15 64.208H1251.49V79.6646H1251.68L1262.42 64.208H1264.72V83.8451H1262.34V68.4269H1262.15L1251.45 83.8451H1249.15V64.208Z" fill="white" fill-opacity="0.3"/>
  <path d="M1229.16 83.8451V64.208H1231.54V72.9527H1242.01V64.208H1244.39V83.8451H1242.01V75.0621H1231.54V83.8451H1229.16Z" fill="white" fill-opacity="0.3"/>
  <path d="M1213.03 83.8451V64.208H1224.88V66.3175H1215.4V72.9527H1224.26V75.0621H1215.4V81.7357H1225.03V83.8451H1213.03Z" fill="white" fill-opacity="0.3"/>
  <path d="M1199.02 64.208V83.8451H1196.64V64.208H1199.02ZM1185.75 83.8451L1192.11 73.6047L1186.28 64.208H1189.16L1194.26 72.9143H1201.43L1206.53 64.208H1209.41L1203.54 73.643L1209.91 83.8451H1207.19L1201.86 75.1388H1193.8L1188.43 83.8451H1185.75Z" fill="white" fill-opacity="0.3"/>
  <path d="M1169.95 83.8451H1167.46L1174.67 64.208H1177.13L1184.34 83.8451H1181.84L1175.98 67.3147H1175.82L1169.95 83.8451ZM1170.87 76.1744H1180.92V78.2838H1170.87V76.1744Z" fill="white" fill-opacity="0.3"/>
  <path d="M1154.01 83.8451V64.208H1160.65C1162.19 64.208 1163.45 64.4861 1164.43 65.0422C1165.41 65.5919 1166.14 66.3366 1166.61 67.2763C1167.09 68.216 1167.32 69.2643 1167.32 70.4213C1167.32 71.5783 1167.09 72.6299 1166.61 73.5759C1166.15 74.522 1165.42 75.2763 1164.45 75.8388C1163.47 76.3949 1162.22 76.673 1160.69 76.673H1155.93V74.5635H1160.61C1161.67 74.5635 1162.51 74.3813 1163.15 74.017C1163.79 73.6526 1164.25 73.1604 1164.54 72.5404C1164.84 71.9139 1164.98 71.2076 1164.98 70.4213C1164.98 69.6351 1164.84 68.9319 1164.54 68.3119C1164.25 67.6918 1163.79 67.206 1163.14 66.8544C1162.5 66.4964 1161.64 66.3175 1160.57 66.3175H1156.39V83.8451H1154.01Z" fill="white" fill-opacity="0.3"/>
  <path d="M1136.21 83.8451V64.208H1148.07V66.3175H1138.59V72.4541H1143.58C1144.99 72.4541 1146.17 72.6842 1147.14 73.1444C1148.11 73.6047 1148.84 74.2535 1149.34 75.0909C1149.85 75.9283 1150.1 76.9159 1150.1 78.0537C1150.1 79.1915 1149.85 80.1951 1149.34 81.0645C1148.84 81.9338 1148.11 82.6146 1147.14 83.1068C1146.17 83.599 1144.99 83.8451 1143.58 83.8451H1136.21ZM1138.59 81.774H1143.58C1144.47 81.774 1145.23 81.5951 1145.85 81.2371C1146.48 80.8727 1146.95 80.4061 1147.27 79.8372C1147.6 79.2619 1147.76 78.6546 1147.76 78.0154C1147.76 77.0757 1147.4 76.2671 1146.68 75.5895C1145.95 74.9055 1144.92 74.5635 1143.58 74.5635H1138.59V81.774Z" fill="white" fill-opacity="0.3"/>
  <path d="M1132.22 74.0265C1132.22 76.0976 1131.84 77.8874 1131.09 79.396C1130.35 80.9046 1129.32 82.068 1128.02 82.8862C1126.71 83.7044 1125.22 84.1135 1123.55 84.1135C1121.87 84.1135 1120.38 83.7044 1119.08 82.8862C1117.78 82.068 1116.75 80.9046 1116 79.396C1115.25 77.8874 1114.88 76.0976 1114.88 74.0265C1114.88 71.9554 1115.25 70.1655 1116 68.657C1116.75 67.1484 1117.78 65.985 1119.08 65.1668C1120.38 64.3486 1121.87 63.9395 1123.55 63.9395C1125.22 63.9395 1126.71 64.3486 1128.02 65.1668C1129.32 65.985 1130.35 67.1484 1131.09 68.657C1131.84 70.1655 1132.22 71.9554 1132.22 74.0265ZM1129.92 74.0265C1129.92 72.3261 1129.63 70.8911 1129.06 69.7213C1128.5 68.5515 1127.74 67.6662 1126.77 67.0653C1125.81 66.4644 1124.74 66.164 1123.55 66.164C1122.36 66.164 1121.28 66.4644 1120.32 67.0653C1119.36 67.6662 1118.59 68.5515 1118.03 69.7213C1117.46 70.8911 1117.18 72.3261 1117.18 74.0265C1117.18 75.7268 1117.46 77.1619 1118.03 78.3317C1118.59 79.5015 1119.36 80.3868 1120.32 80.9877C1121.28 81.5886 1122.36 81.889 1123.55 81.889C1124.74 81.889 1125.81 81.5886 1126.77 80.9877C1127.74 80.3868 1128.5 79.5015 1129.06 78.3317C1129.63 77.1619 1129.92 75.7268 1129.92 74.0265Z" fill="white" fill-opacity="0.3"/>
  <path d="M1104.75 84.1135C1103.48 84.1135 1102.35 83.8962 1101.36 83.4615C1100.38 83.0268 1099.59 82.4228 1099.01 81.6493C1098.44 80.8694 1098.12 79.9649 1098.07 78.9358H1100.49C1100.54 79.5686 1100.76 80.1152 1101.14 80.5754C1101.52 81.0293 1102.03 81.3808 1102.65 81.6301C1103.27 81.8794 1103.95 82.0041 1104.71 82.0041C1105.55 82.0041 1106.3 81.8571 1106.95 81.563C1107.6 81.269 1108.11 80.8599 1108.49 80.3357C1108.86 79.8115 1109.04 79.2043 1109.04 78.5139C1109.04 77.7916 1108.86 77.1555 1108.5 76.6058C1108.15 76.0497 1107.62 75.615 1106.93 75.3018C1106.24 74.9885 1105.4 74.8319 1104.4 74.8319H1102.83V72.7225H1104.4C1105.18 72.7225 1105.86 72.5818 1106.45 72.3006C1107.05 72.0193 1107.51 71.623 1107.84 71.1116C1108.18 70.6002 1108.35 69.9993 1108.35 69.309C1108.35 68.6442 1108.2 68.0657 1107.91 67.5735C1107.62 67.0813 1107.2 66.6977 1106.66 66.4229C1106.13 66.148 1105.51 66.0106 1104.78 66.0106C1104.11 66.0106 1103.47 66.1352 1102.87 66.3845C1102.27 66.6274 1101.79 66.9822 1101.41 67.4488C1101.03 67.9091 1100.83 68.4652 1100.8 69.1172H1098.49C1098.53 68.0881 1098.84 67.1867 1099.42 66.4133C1100.01 65.6334 1100.77 65.0261 1101.71 64.5915C1102.65 64.1568 1103.69 63.9395 1104.82 63.9395C1106.04 63.9395 1107.08 64.1856 1107.95 64.6778C1108.82 65.1636 1109.49 65.806 1109.95 66.605C1110.42 67.4041 1110.65 68.267 1110.65 69.1939C1110.65 70.2998 1110.36 71.2427 1109.78 72.0225C1109.2 72.8024 1108.42 73.3425 1107.43 73.643V73.7964C1108.67 74.0009 1109.64 74.5283 1110.34 75.3785C1111.03 76.2222 1111.38 77.2674 1111.38 78.5139C1111.38 79.5814 1111.09 80.5402 1110.51 81.3904C1109.93 82.2342 1109.15 82.899 1108.15 83.3848C1107.15 83.8706 1106.02 84.1135 1104.75 84.1135Z" fill="white" fill-opacity="0.3"/>
  <path d="M1078.13 64.208H1080.47V79.6646H1080.66L1091.4 64.208H1093.7V83.8451H1091.32V68.4269H1091.13L1080.43 83.8451H1078.13V64.208Z" fill="white" fill-opacity="0.3"/>
  <path d="M629.493 100.691C629.068 100.691 628.7 100.597 628.392 100.409C628.085 100.219 627.848 99.9546 627.681 99.6152C627.516 99.2738 627.434 98.8768 627.434 98.4243C627.434 97.9717 627.516 97.5728 627.681 97.2276C627.848 96.8805 628.08 96.6101 628.377 96.4165C628.676 96.2208 629.026 96.123 629.424 96.123C629.655 96.123 629.882 96.1614 630.106 96.2381C630.331 96.3148 630.535 96.4395 630.719 96.6121C630.903 96.7827 631.05 97.009 631.159 97.2909C631.268 97.5728 631.323 97.9199 631.323 98.3322V98.6199H627.917V98.0331H630.633C630.633 97.7838 630.583 97.5613 630.483 97.3657C630.385 97.1701 630.245 97.0157 630.063 96.9026C629.883 96.7894 629.67 96.7329 629.424 96.7329C629.154 96.7329 628.92 96.8 628.723 96.9342C628.527 97.0665 628.376 97.2391 628.271 97.452C628.165 97.6649 628.113 97.8931 628.113 98.1366V98.5278C628.113 98.8615 628.17 99.1444 628.285 99.3764C628.402 99.6065 628.564 99.782 628.771 99.9028C628.979 100.022 629.219 100.081 629.493 100.081C629.672 100.081 629.833 100.056 629.977 100.006C630.122 99.9546 630.248 99.8779 630.354 99.7762C630.459 99.6727 630.54 99.5442 630.598 99.3908L631.254 99.5749C631.185 99.7973 631.069 99.9929 630.906 100.162C630.743 100.329 630.541 100.459 630.302 100.553C630.062 100.645 629.793 100.691 629.493 100.691Z" fill="white" fill-opacity="0.3"/>
  <path d="M626.398 94.708V100.599H625.719V94.708H626.398Z" fill="white" fill-opacity="0.3"/>
  <path d="M623.796 100.599V96.1803H624.475V100.599H623.796ZM624.141 95.4439C624.009 95.4439 623.895 95.3989 623.799 95.3087C623.705 95.2186 623.658 95.1103 623.658 94.9837C623.658 94.8571 623.705 94.7488 623.799 94.6586C623.895 94.5685 624.009 94.5234 624.141 94.5234C624.274 94.5234 624.387 94.5685 624.481 94.6586C624.577 94.7488 624.624 94.8571 624.624 94.9837C624.624 95.1103 624.577 95.2186 624.481 95.3087C624.387 95.3989 624.274 95.4439 624.141 95.4439Z" fill="white" fill-opacity="0.3"/>
  <path d="M622.845 96.1806V96.7559H620.463V96.1806H622.845ZM621.176 100.599V95.5707C621.176 95.3176 621.236 95.1067 621.355 94.9379C621.474 94.7692 621.628 94.6426 621.818 94.5582C622.008 94.4738 622.208 94.4316 622.419 94.4316C622.586 94.4316 622.722 94.4451 622.827 94.4719C622.933 94.4988 623.012 94.5237 623.063 94.5467L622.868 95.1335C622.833 95.122 622.785 95.1076 622.724 95.0904C622.664 95.0731 622.586 95.0645 622.488 95.0645C622.264 95.0645 622.102 95.121 622.002 95.2342C621.904 95.3473 621.855 95.5132 621.855 95.7318V100.599H621.176Z" fill="white" fill-opacity="0.3"/>
  <path d="M611.558 100.599V96.1806H612.214V96.8709H612.272C612.364 96.6351 612.512 96.4519 612.718 96.3215C612.923 96.1892 613.169 96.123 613.457 96.123C613.748 96.123 613.991 96.1892 614.185 96.3215C614.38 96.4519 614.533 96.6351 614.642 96.8709H614.688C614.801 96.6427 614.971 96.4615 615.197 96.3273C615.423 96.1911 615.695 96.123 616.011 96.123C616.406 96.123 616.729 96.2467 616.981 96.4941C617.232 96.7396 617.357 97.1222 617.357 97.6419V100.599H616.679V97.6419C616.679 97.3158 616.589 97.0828 616.411 96.9429C616.233 96.8029 616.023 96.7329 615.781 96.7329C615.47 96.7329 615.23 96.8268 615.059 97.0148C614.888 97.2008 614.803 97.4367 614.803 97.7224V100.599H614.113V97.5728C614.113 97.3216 614.031 97.1193 613.868 96.9659C613.705 96.8105 613.495 96.7329 613.238 96.7329C613.062 96.7329 612.897 96.7799 612.743 96.8738C612.592 96.9678 612.469 97.0982 612.375 97.265C612.283 97.43 612.237 97.6208 612.237 97.8375V100.599H611.558Z" fill="white" fill-opacity="0.3"/>
  <path d="M608.696 100.691C608.27 100.691 607.903 100.597 607.594 100.409C607.288 100.219 607.051 99.9546 606.884 99.6152C606.719 99.2738 606.636 98.8768 606.636 98.4243C606.636 97.9717 606.719 97.5728 606.884 97.2276C607.051 96.8805 607.283 96.6101 607.58 96.4165C607.879 96.2208 608.228 96.123 608.627 96.123C608.857 96.123 609.084 96.1614 609.309 96.2381C609.533 96.3148 609.737 96.4395 609.921 96.6121C610.106 96.7827 610.252 97.009 610.362 97.2909C610.471 97.5728 610.526 97.9199 610.526 98.3322V98.6199H607.12V98.0331H609.835C609.835 97.7838 609.785 97.5613 609.686 97.3657C609.588 97.1701 609.448 97.0157 609.266 96.9026C609.085 96.7894 608.872 96.7329 608.627 96.7329C608.357 96.7329 608.123 96.8 607.925 96.9342C607.73 97.0665 607.579 97.2391 607.474 97.452C607.368 97.6649 607.315 97.8931 607.315 98.1366V98.5278C607.315 98.8615 607.373 99.1444 607.488 99.3764C607.605 99.6065 607.767 99.782 607.974 99.9028C608.181 100.022 608.422 100.081 608.696 100.081C608.874 100.081 609.036 100.056 609.179 100.006C609.325 99.9546 609.451 99.8779 609.556 99.7762C609.662 99.6727 609.743 99.5442 609.801 99.3908L610.457 99.5749C610.387 99.7973 610.271 99.9929 610.108 100.162C609.945 100.329 609.744 100.459 609.504 100.553C609.265 100.645 608.995 100.691 608.696 100.691Z" fill="white" fill-opacity="0.3"/>
  <path d="M605.87 96.1806V96.7559H603.581V96.1806H605.87ZM604.248 95.1221H604.927V99.3333C604.927 99.5251 604.955 99.6689 605.01 99.7648C605.068 99.8588 605.141 99.922 605.229 99.9546C605.319 99.9853 605.414 100.001 605.514 100.001C605.588 100.001 605.65 99.9968 605.698 99.9892C605.746 99.9796 605.784 99.9719 605.813 99.9662L605.951 100.576C605.905 100.593 605.841 100.61 605.758 100.628C605.676 100.647 605.571 100.657 605.445 100.657C605.253 100.657 605.065 100.615 604.881 100.533C604.699 100.45 604.547 100.325 604.426 100.156C604.307 99.9872 604.248 99.7744 604.248 99.5174V95.1221Z" fill="white" fill-opacity="0.3"/>
  <path d="M602.846 97.1701L602.236 97.3427C602.198 97.2411 602.142 97.1423 602.067 97.0464C601.994 96.9486 601.894 96.8681 601.768 96.8048C601.641 96.7415 601.479 96.7099 601.281 96.7099C601.011 96.7099 600.786 96.7722 600.605 96.8968C600.427 97.0196 600.338 97.1759 600.338 97.3657C600.338 97.5345 600.399 97.6677 600.522 97.7655C600.645 97.8633 600.837 97.9449 601.097 98.0101L601.753 98.1711C602.148 98.267 602.443 98.4137 602.636 98.6112C602.83 98.8069 602.927 99.059 602.927 99.3678C602.927 99.6209 602.854 99.8472 602.708 100.047C602.564 100.246 602.363 100.403 602.104 100.518C601.845 100.633 601.544 100.691 601.201 100.691C600.75 100.691 600.377 100.593 600.082 100.398C599.787 100.202 599.6 99.9162 599.521 99.5404L600.165 99.3793C600.227 99.6171 600.343 99.7954 600.513 99.9143C600.686 100.033 600.911 100.093 601.189 100.093C601.506 100.093 601.757 100.026 601.943 99.8913C602.131 99.7551 602.225 99.5921 602.225 99.4023C602.225 99.2489 602.171 99.1204 602.064 99.0168C601.956 98.9114 601.792 98.8327 601.569 98.781L600.833 98.6084C600.428 98.5125 600.131 98.3639 599.941 98.1625C599.753 97.9592 599.659 97.7051 599.659 97.4002C599.659 97.1509 599.729 96.9304 599.869 96.7386C600.011 96.5469 600.204 96.3963 600.447 96.287C600.693 96.1777 600.971 96.123 601.281 96.123C601.719 96.123 602.062 96.2189 602.311 96.4107C602.562 96.6025 602.741 96.8556 602.846 97.1701Z" fill="white" fill-opacity="0.3"/>
  <path d="M595.645 102.256C595.53 102.256 595.427 102.246 595.337 102.227C595.247 102.21 595.184 102.193 595.15 102.175L595.323 101.577C595.487 101.619 595.633 101.635 595.76 101.623C595.886 101.612 595.999 101.555 596.096 101.453C596.196 101.354 596.287 101.192 596.37 100.967L596.496 100.622L594.862 96.1807H595.599L596.818 99.7015H596.864L598.084 96.1807H598.82L596.945 101.243C596.861 101.472 596.756 101.66 596.631 101.81C596.507 101.962 596.362 102.074 596.197 102.147C596.034 102.219 595.85 102.256 595.645 102.256Z" fill="white" fill-opacity="0.3"/>
  <path d="M594.106 97.1701L593.496 97.3427C593.457 97.2411 593.401 97.1423 593.326 97.0464C593.253 96.9486 593.153 96.8681 593.027 96.8048C592.9 96.7415 592.738 96.7099 592.541 96.7099C592.27 96.7099 592.045 96.7722 591.865 96.8968C591.686 97.0196 591.597 97.1759 591.597 97.3657C591.597 97.5345 591.659 97.6677 591.781 97.7655C591.904 97.8633 592.096 97.9449 592.357 98.0101L593.012 98.1711C593.408 98.267 593.702 98.4137 593.896 98.6112C594.089 98.8069 594.186 99.059 594.186 99.3678C594.186 99.6209 594.113 99.8472 593.967 100.047C593.824 100.246 593.622 100.403 593.363 100.518C593.105 100.633 592.803 100.691 592.46 100.691C592.01 100.691 591.637 100.593 591.341 100.398C591.046 100.202 590.859 99.9162 590.78 99.5404L591.425 99.3793C591.486 99.6171 591.602 99.7954 591.773 99.9143C591.945 100.033 592.171 100.093 592.449 100.093C592.765 100.093 593.016 100.026 593.202 99.8913C593.39 99.7551 593.484 99.5921 593.484 99.4023C593.484 99.2489 593.431 99.1204 593.323 99.0168C593.216 98.9114 593.051 98.8327 592.828 98.781L592.092 98.6084C591.687 98.5125 591.39 98.3639 591.2 98.1625C591.012 97.9592 590.918 97.7051 590.918 97.4002C590.918 97.1509 590.988 96.9304 591.128 96.7386C591.27 96.5469 591.463 96.3963 591.707 96.287C591.952 96.1777 592.23 96.123 592.541 96.123C592.978 96.123 593.321 96.2189 593.571 96.4107C593.822 96.6025 594 96.8556 594.106 97.1701Z" fill="white" fill-opacity="0.3"/>
  <path d="M584.638 97.941V100.599H583.959V96.1806H584.615V96.8709H584.673C584.776 96.6466 584.933 96.4663 585.144 96.3302C585.355 96.1921 585.628 96.123 585.961 96.123C586.26 96.123 586.522 96.1844 586.747 96.3071C586.971 96.428 587.145 96.6121 587.27 96.8594C587.395 97.1049 587.457 97.4156 587.457 97.7914V100.599H586.778V97.8375C586.778 97.4904 586.688 97.22 586.508 97.0263C586.328 96.8307 586.08 96.7329 585.766 96.7329C585.549 96.7329 585.355 96.7799 585.185 96.8738C585.016 96.9678 584.883 97.1049 584.785 97.2852C584.687 97.4654 584.638 97.684 584.638 97.941Z" fill="white" fill-opacity="0.3"/>
  <path d="M581.097 100.691C580.671 100.691 580.304 100.597 579.995 100.409C579.688 100.219 579.452 99.9546 579.285 99.6152C579.12 99.2738 579.037 98.8768 579.037 98.4243C579.037 97.9717 579.12 97.5728 579.285 97.2276C579.452 96.8805 579.684 96.6101 579.981 96.4165C580.28 96.2208 580.629 96.123 581.028 96.123C581.258 96.123 581.485 96.1614 581.71 96.2381C581.934 96.3148 582.138 96.4395 582.322 96.6121C582.506 96.7827 582.653 97.009 582.762 97.2909C582.872 97.5728 582.926 97.9199 582.926 98.3322V98.6199H579.521V98.0331H582.236C582.236 97.7838 582.186 97.5613 582.086 97.3657C581.989 97.1701 581.849 97.0157 581.667 96.9026C581.486 96.7894 581.273 96.7329 581.028 96.7329C580.758 96.7329 580.524 96.8 580.326 96.9342C580.13 97.0665 579.98 97.2391 579.874 97.452C579.769 97.6649 579.716 97.8931 579.716 98.1366V98.5278C579.716 98.8615 579.774 99.1444 579.889 99.3764C580.006 99.6065 580.168 99.782 580.375 99.9028C580.582 100.022 580.823 100.081 581.097 100.081C581.275 100.081 581.436 100.056 581.58 100.006C581.726 99.9546 581.852 99.8779 581.957 99.7762C582.063 99.6727 582.144 99.5442 582.202 99.3908L582.857 99.5749C582.788 99.7973 582.672 99.9929 582.509 100.162C582.346 100.329 582.145 100.459 581.905 100.553C581.666 100.645 581.396 100.691 581.097 100.691Z" fill="white" fill-opacity="0.3"/>
  <path d="M574.308 102.256V96.1806H574.964V96.8825H575.044C575.094 96.8057 575.163 96.7079 575.251 96.589C575.341 96.4682 575.47 96.3608 575.637 96.2669C575.806 96.171 576.034 96.123 576.321 96.123C576.693 96.123 577.021 96.2161 577.305 96.4021C577.589 96.5881 577.811 96.8518 577.97 97.1931C578.129 97.5345 578.208 97.9372 578.208 98.4013C578.208 98.8692 578.129 99.2748 577.97 99.618C577.811 99.9594 577.59 100.224 577.308 100.412C577.026 100.598 576.701 100.691 576.333 100.691C576.049 100.691 575.822 100.644 575.651 100.55C575.481 100.454 575.349 100.346 575.257 100.225C575.165 100.102 575.094 100.001 575.044 99.9201H574.987V102.256H574.308ZM574.975 98.3898C574.975 98.7234 575.024 99.0178 575.122 99.2729C575.22 99.526 575.363 99.7245 575.551 99.8683C575.738 100.01 575.969 100.081 576.241 100.081C576.525 100.081 576.762 100.006 576.951 99.8568C577.143 99.7053 577.287 99.502 577.383 99.247C577.481 98.99 577.53 98.7043 577.53 98.3898C577.53 98.0791 577.482 97.7991 577.386 97.5498C577.292 97.2986 577.149 97.1001 576.957 96.9544C576.767 96.8067 576.529 96.7329 576.241 96.7329C575.965 96.7329 575.733 96.8029 575.545 96.9429C575.357 97.0809 575.215 97.2746 575.119 97.5239C575.023 97.7713 574.975 98.0599 574.975 98.3898Z" fill="white" fill-opacity="0.3"/>
  <path d="M573.201 97.6531C573.201 98.2744 573.089 98.8113 572.864 99.2639C572.64 99.7165 572.332 100.066 571.941 100.311C571.55 100.556 571.103 100.679 570.6 100.679C570.098 100.679 569.651 100.556 569.26 100.311C568.869 100.066 568.561 99.7165 568.337 99.2639C568.112 98.8113 568 98.2744 568 97.6531C568 97.0317 568.112 96.4948 568.337 96.0422C568.561 95.5896 568.869 95.2406 569.26 94.9951C569.651 94.7497 570.098 94.627 570.6 94.627C571.103 94.627 571.55 94.7497 571.941 94.9951C572.332 95.2406 572.64 95.5896 572.864 96.0422C573.089 96.4948 573.201 97.0317 573.201 97.6531ZM572.51 97.6531C572.51 97.143 572.425 96.7124 572.254 96.3615C572.086 96.0106 571.856 95.745 571.567 95.5647C571.279 95.3844 570.957 95.2943 570.6 95.2943C570.244 95.2943 569.921 95.3844 569.631 95.5647C569.343 95.745 569.114 96.0106 568.944 96.3615C568.775 96.7124 568.69 97.143 568.69 97.6531C568.69 98.1632 568.775 98.5937 568.944 98.9446C569.114 99.2956 569.343 99.5612 569.631 99.7414C569.921 99.9217 570.244 100.012 570.6 100.012C570.957 100.012 571.279 99.9217 571.567 99.7414C571.856 99.5612 572.086 99.2956 572.254 98.9446C572.425 98.5937 572.51 98.1632 572.51 97.6531Z" fill="white" fill-opacity="0.3"/>
  <path d="M847.827 92.5V101H864.827V50H847.827V58.5H856.327V92.5H847.827Z" fill="white" fill-opacity="0.3"/>
  <path d="M696.827 58.5V50H680.827V101H696.827V92.5H688.827V58.5H696.827Z" fill="white" fill-opacity="0.3"/>
  <path fill-rule="evenodd" clip-rule="evenodd" d="M1038.83 92V59H1041.83V92H1038.83Z" fill="white" fill-opacity="0.3"/>
  <path d="M1281.44 20.6025H1238.59V29.9439H1281.44V20.6025Z" fill="white" fill-opacity="0.1"/>
  <path fill-rule="evenodd" clip-rule="evenodd" d="M1281.44 20.877H538V20.0527H1281.44V20.877Z" fill="white" fill-opacity="0.1"/>
  <path fill-rule="evenodd" clip-rule="evenodd" d="M1281.44 30.4932H538V29.6689H1281.44V30.4932Z" fill="white" fill-opacity="0.1"/>
  <path d="M580.845 20.6025H552.282H538V30.4018V50.0004H552.282V30.4018H580.845V20.6025Z" fill="white" fill-opacity="0.1"/>
  <path d="M1310 29.9438V10.3452V0.545898H1295.72H1267.16V10.3452H1295.72V29.9438H1310Z" fill="white" fill-opacity="0.1"/>
  <path d="M0 197H1229" stroke="white" stroke-opacity="0.6" stroke-width="0.5" stroke-miterlimit="10"/>
  <path d="M512.864 21.683V126.863H407.683V21.683H512.864ZM513.547 21H407V127.546H513.547V21Z" fill="white" fill-opacity="0.1"/>
  <path d="M513.547 135.806H507.352V137.871H513.547V135.806Z" fill="white" fill-opacity="0.1"/>
  <path d="M409.065 29.259H410.442V24.441H415.26V23.0645H409.065V29.259Z" fill="white" fill-opacity="0.1"/>
  <path d="M505.287 23.0645V24.441H510.105V29.259H511.482V23.0645H505.287Z" fill="white" fill-opacity="0.1"/>
  <path d="M511.482 119.287H510.105V124.105H505.287V125.482H511.482V119.287Z" fill="white" fill-opacity="0.1"/>
  <path d="M415.26 125.482V124.105H410.442V119.287H409.065V125.482H415.26Z" fill="white" fill-opacity="0.1"/>
  <path fill-rule="evenodd" clip-rule="evenodd" d="M506.113 29.8141L415.814 120.113L414.847 119.145L505.146 28.8467L506.113 29.8141Z" fill="white" fill-opacity="0.1"/>
  <path d="M413.195 135.806H409.065H407V137.871V142H409.065V137.871H413.195V135.806Z" fill="white" fill-opacity="0.1"/>
  <path d="M517.676 137.87V133.741V131.676H515.611H511.482V133.741H515.611V137.87H517.676Z" fill="white" fill-opacity="0.1"/>
  </svg>
  