<svg width="1354" height="189" viewBox="0 0 1354 189" fill="none" xmlns="http://www.w3.org/2000/svg">
  <path d="M727.589 72.8947H725.544L731.458 56.7891H733.471L739.385 72.8947H737.341L732.528 59.337H732.402L727.589 72.8947ZM728.344 66.6034H736.586V68.3335H728.344V66.6034Z" fill="#242424" fill-opacity="0.4"/>
  <path d="M713.721 58.5192V56.7891H725.8V58.5192H720.735V72.8947H718.785V58.5192H713.721Z" fill="#242424" fill-opacity="0.4"/>
  <path d="M711.45 61.8216H709.5C709.385 61.2606 709.183 60.7678 708.895 60.3431C708.611 59.9184 708.265 59.5619 707.857 59.2736C707.453 58.98 707.005 58.7598 706.512 58.613C706.019 58.4662 705.505 58.3928 704.97 58.3928C703.995 58.3928 703.112 58.6392 702.32 59.132C701.534 59.6249 700.907 60.351 700.441 61.3104C699.979 62.2698 699.749 63.4468 699.749 64.8413C699.749 66.2359 699.979 67.4129 700.441 68.3723C700.907 69.3317 701.534 70.0578 702.32 70.5507C703.112 71.0435 703.995 71.2899 704.97 71.2899C705.505 71.2899 706.019 71.2165 706.512 71.0697C707.005 70.9229 707.453 70.7053 707.857 70.417C708.265 70.1234 708.611 69.7642 708.895 69.3396C709.183 68.9097 709.385 68.4169 709.5 67.8611H711.45C711.304 68.6843 711.036 69.4209 710.648 70.0709C710.26 70.721 709.778 71.2741 709.201 71.7303C708.625 72.1811 707.977 72.5245 707.259 72.7605C706.546 72.9964 705.783 73.1143 704.97 73.1143C703.597 73.1143 702.375 72.7788 701.306 72.1077C700.236 71.4367 699.395 70.4825 698.781 69.2452C698.168 68.0079 697.861 66.54 697.861 64.8413C697.861 63.1427 698.168 61.6748 698.781 60.4375C699.395 59.2002 700.236 58.246 701.306 57.575C702.375 56.9039 703.597 56.5684 704.97 56.5684C705.783 56.5684 706.546 56.6863 707.259 56.9222C707.977 57.1582 708.625 57.5042 709.201 57.9603C709.778 58.4112 710.26 58.9617 710.648 59.6118C711.036 60.2566 711.304 60.9932 711.45 61.8216Z" fill="#242424" fill-opacity="0.4"/>
  <path d="M685.255 72.8947V56.7891H694.975V58.5192H687.205V63.9611H694.472V65.6912H687.205V71.1646H695.101V72.8947H685.255Z" fill="#242424" fill-opacity="0.4"/>
  <path d="M665.553 56.7891H667.881L673.355 70.158H673.543L679.017 56.7891H681.344V72.8947H679.52V60.6582H679.363L674.33 72.8947H672.568L667.535 60.6582H667.378V72.8947H665.553V56.7891Z" fill="#242424" fill-opacity="0.4"/>
  <path d="M920.751 72.8947H918.706L924.62 56.7891H926.633L932.547 72.8947H930.502L925.689 59.337H925.564L920.751 72.8947ZM921.506 66.6034H929.747V68.3335H921.506V66.6034Z" fill="#242424" fill-opacity="0.4"/>
  <path d="M902.918 72.8947V71.1016H903.39C904.061 71.1016 904.583 70.8867 904.955 70.4568C905.327 70.0269 905.595 69.3322 905.757 68.3728C905.925 67.4134 906.038 66.142 906.096 64.5588L906.379 56.7891H916.193V72.8947H914.243V58.5192H908.235L907.983 64.9362C907.92 66.6244 907.765 68.0609 907.519 69.2457C907.273 70.4306 906.84 71.3349 906.221 71.9588C905.603 72.5827 904.701 72.8947 903.516 72.8947H902.918Z" fill="#242424" fill-opacity="0.4"/>
  <path d="M889.999 72.8947H887.954L893.868 56.7891H895.881L901.795 72.8947H899.75L894.937 59.337H894.811L889.999 72.8947ZM890.753 66.6034H898.995V68.3335H890.753V66.6034Z" fill="#242424" fill-opacity="0.4"/>
  <path d="M880.396 73.1143C879.358 73.1143 878.433 72.9361 877.62 72.5796C876.813 72.2231 876.171 71.7276 875.694 71.0933C875.222 70.4537 874.965 69.7118 874.923 68.8677H876.905C876.947 69.3868 877.125 69.835 877.439 70.2125C877.754 70.5847 878.165 70.8731 878.674 71.0775C879.183 71.282 879.746 71.3842 880.365 71.3842C881.057 71.3842 881.67 71.2637 882.205 71.0225C882.74 70.7813 883.159 70.4458 883.463 70.0159C883.767 69.586 883.919 69.0879 883.919 68.5217C883.919 67.9293 883.773 67.4077 883.479 66.9568C883.185 66.5007 882.755 66.1442 882.189 65.8873C881.623 65.6304 880.931 65.5019 880.113 65.5019H878.823V63.7718H880.113C880.753 63.7718 881.314 63.6565 881.796 63.4258C882.284 63.1951 882.664 62.8701 882.936 62.4507C883.214 62.0313 883.353 61.5384 883.353 60.9722C883.353 60.427 883.233 59.9525 882.991 59.5488C882.75 59.1451 882.409 58.8306 881.969 58.6052C881.534 58.3797 881.02 58.267 880.428 58.267C879.872 58.267 879.348 58.3692 878.855 58.5737C878.367 58.7729 877.969 59.0639 877.66 59.4466C877.35 59.8241 877.182 60.2802 877.156 60.815H875.269C875.3 59.9709 875.555 59.2317 876.032 58.5973C876.509 57.9577 877.133 57.4596 877.903 57.1031C878.679 56.7466 879.531 56.5684 880.459 56.5684C881.455 56.5684 882.31 56.7702 883.023 57.1739C883.736 57.5723 884.284 58.0992 884.666 58.7546C885.049 59.4099 885.24 60.1177 885.24 60.8779C885.24 61.7849 885.002 62.5582 884.525 63.1978C884.053 63.8374 883.411 64.2804 882.598 64.5268V64.6526C883.615 64.8204 884.41 65.2529 884.981 65.9502C885.552 66.6422 885.838 67.4994 885.838 68.5217C885.838 69.3973 885.6 70.1837 885.123 70.8809C884.651 71.573 884.006 72.1182 883.188 72.5167C882.37 72.9151 881.44 73.1143 880.396 73.1143Z" fill="#242424" fill-opacity="0.4"/>
  <path d="M854.704 72.8947H852.66L858.573 56.7891H860.587L866.5 72.8947H864.456L859.643 59.337H859.517L854.704 72.8947ZM855.459 66.6034H863.701V68.3335H855.459V66.6034Z" fill="#242424" fill-opacity="0.4"/>
  <path d="M840.836 58.5192V56.7891H852.915V58.5192H847.851V72.8947H845.901V58.5192H840.836Z" fill="#242424" fill-opacity="0.4"/>
  <path d="M827.66 72.8947V56.7891H833.102C834.365 56.7891 835.398 57.0171 836.2 57.4732C837.007 57.9241 837.605 58.5349 837.993 59.3056C838.381 60.0762 838.575 60.936 838.575 61.885C838.575 62.8339 838.381 63.6963 837.993 64.4722C837.61 65.2482 837.018 65.8668 836.216 66.3282C835.414 66.7843 834.386 67.0123 833.133 67.0123H829.232V65.2822H833.07C833.935 65.2822 834.63 65.1328 835.154 64.834C835.678 64.5352 836.058 64.1315 836.294 63.6229C836.536 63.1091 836.656 62.5298 836.656 61.885C836.656 61.2401 836.536 60.6634 836.294 60.1549C836.058 59.6463 835.676 59.2479 835.146 58.9595C834.617 58.666 833.914 58.5192 833.039 58.5192H829.61V72.8947H827.66Z" fill="#242424" fill-opacity="0.4"/>
  <path d="M813.355 72.8947H811.31L817.224 56.7891H819.237L825.151 72.8947H823.106L818.294 59.337H818.168L813.355 72.8947ZM814.11 66.6034H822.351V68.3335H814.11V66.6034Z" fill="#242424" fill-opacity="0.4"/>
  <path d="M807.846 72.8947L802.31 65.5024H800.328V72.8947H798.378V56.7891H800.328V63.7723H801.178L807.626 56.7891H809.954L803.442 63.8667L810.174 72.8947H807.846Z" fill="#242424" fill-opacity="0.4"/>
  <path d="M1127.89 72.8947V56.7891H1137.61V58.5192H1129.84V63.9611H1137.11V65.6912H1129.84V71.1646H1137.74V72.8947H1127.89Z" fill="#242424" fill-opacity="0.4"/>
  <path d="M1111.22 56.7891H1113.14V69.4659H1113.29L1122.1 56.7891H1123.99V72.8947H1122.04V60.2492H1121.88L1113.11 72.8947H1111.22V56.7891Z" fill="#242424" fill-opacity="0.4"/>
  <path d="M1094.83 72.8947V56.7891H1096.78V63.9611H1105.36V56.7891H1107.31V72.8947H1105.36V65.6912H1096.78V72.8947H1094.83Z" fill="#242424" fill-opacity="0.4"/>
  <path d="M1081.59 72.8947V56.7891H1091.31V58.5192H1083.54V63.9611H1090.81V65.6912H1083.54V71.1646H1091.44V72.8947H1081.59Z" fill="#242424" fill-opacity="0.4"/>
  <path d="M1078.63 71.1646L1078.41 76.7009H1076.49V72.8946H1074.95V71.1646H1078.63ZM1059.88 56.7891H1061.83V71.1016H1067.49V56.7891H1069.44V71.1016H1075.1V56.7891H1077.05V72.8946H1059.88V56.7891Z" fill="#242424" fill-opacity="0.4"/>
  <path d="M1046.64 72.8947V56.7891H1056.36V58.5192H1048.59V63.9611H1055.86V65.6912H1048.59V71.1646H1056.49V72.8947H1046.64Z" fill="#242424" fill-opacity="0.4"/>
  <path d="M1026.94 56.7891H1029.27L1034.74 70.158H1034.93L1040.4 56.7891H1042.73V72.8947H1040.91V60.6582H1040.75L1035.72 72.8947H1033.96L1028.92 60.6582H1028.77V72.8947H1026.94V56.7891Z" fill="#242424" fill-opacity="0.4"/>
  <path d="M1018 73.1143C1016.96 73.1143 1016.04 72.9361 1015.22 72.5796C1014.42 72.2231 1013.77 71.7276 1013.3 71.0933C1012.83 70.4537 1012.57 69.7118 1012.53 68.8677H1014.51C1014.55 69.3868 1014.73 69.835 1015.04 70.2125C1015.36 70.5847 1015.77 70.8731 1016.28 71.0775C1016.79 71.282 1017.35 71.3842 1017.97 71.3842C1018.66 71.3842 1019.27 71.2637 1019.81 71.0225C1020.34 70.7813 1020.76 70.4458 1021.07 70.0159C1021.37 69.586 1021.52 69.0879 1021.52 68.5217C1021.52 67.9293 1021.38 67.4077 1021.08 66.9568C1020.79 66.5007 1020.36 66.1442 1019.79 65.8873C1019.23 65.6304 1018.53 65.5019 1017.72 65.5019H1016.43V63.7718H1017.72C1018.36 63.7718 1018.92 63.6565 1019.4 63.4258C1019.89 63.1951 1020.27 62.8701 1020.54 62.4507C1020.82 62.0313 1020.96 61.5384 1020.96 60.9722C1020.96 60.427 1020.84 59.9525 1020.6 59.5488C1020.35 59.1451 1020.01 58.8306 1019.57 58.6052C1019.14 58.3797 1018.62 58.267 1018.03 58.267C1017.48 58.267 1016.95 58.3692 1016.46 58.5737C1015.97 58.7729 1015.57 59.0639 1015.26 59.4466C1014.95 59.8241 1014.79 60.2802 1014.76 60.815H1012.87C1012.9 59.9709 1013.16 59.2317 1013.64 58.5973C1014.11 57.9577 1014.74 57.4596 1015.51 57.1031C1016.28 56.7466 1017.13 56.5684 1018.06 56.5684C1019.06 56.5684 1019.91 56.7702 1020.63 57.1739C1021.34 57.5723 1021.89 58.0992 1022.27 58.7546C1022.65 59.4099 1022.84 60.1177 1022.84 60.8779C1022.84 61.7849 1022.61 62.5582 1022.13 63.1978C1021.66 63.8374 1021.01 64.2804 1020.2 64.5268V64.6526C1021.22 64.8204 1022.01 65.2529 1022.58 65.9502C1023.16 66.6422 1023.44 67.4994 1023.44 68.5217C1023.44 69.3973 1023.2 70.1837 1022.73 70.8809C1022.25 71.573 1021.61 72.1182 1020.79 72.5167C1019.97 72.9151 1019.04 73.1143 1018 73.1143Z" fill="#242424" fill-opacity="0.4"/>
  <path d="M998.536 72.8947H996.492L1002.41 56.7891H1004.42L1010.33 72.8947H1008.29L1003.47 59.337H1003.35L998.536 72.8947ZM999.291 66.6034H1007.53V68.3335H999.291V66.6034Z" fill="#242424" fill-opacity="0.4"/>
  <path d="M985.462 72.8947V56.7891H990.904C992.167 56.7891 993.2 57.0171 994.002 57.4732C994.81 57.9241 995.407 58.5349 995.795 59.3056C996.183 60.0762 996.377 60.936 996.377 61.885C996.377 62.8339 996.183 63.6963 995.795 64.4722C995.413 65.2482 994.82 65.8668 994.018 66.3282C993.216 66.7843 992.188 67.0123 990.935 67.0123H987.035V65.2822H990.872C991.737 65.2822 992.432 65.1328 992.956 64.834C993.481 64.5352 993.861 64.1315 994.097 63.6229C994.338 63.1091 994.458 62.5298 994.458 61.885C994.458 61.2401 994.338 60.6634 994.097 60.1549C993.861 59.6463 993.478 59.2479 992.948 58.9595C992.419 58.666 991.716 58.5192 990.841 58.5192H987.412V72.8947H985.462Z" fill="#242424" fill-opacity="0.4"/>
  <path d="M1275 56.7891V72.8947H1273.11L1264.34 60.2492H1264.18V72.8947H1262.23V56.7891H1264.12L1272.92 69.4659H1273.08V56.7891H1275Z" fill="#242424" fill-opacity="0.4"/>
  <path d="M1248.99 72.8947V56.7891H1258.71V58.5192H1250.94V63.9611H1258.21V65.6912H1250.94V71.1646H1258.84V72.8947H1248.99Z" fill="#242424" fill-opacity="0.4"/>
  <path d="M1235.76 72.8947V56.7891H1245.48V58.5192H1237.71V63.9611H1244.97V65.6912H1237.71V71.1646H1245.6V72.8947H1235.76Z" fill="#242424" fill-opacity="0.4"/>
  <path d="M1221.59 72.8947V56.7891H1227.04C1228.29 56.7891 1229.33 57.004 1230.13 57.4339C1230.94 57.8586 1231.54 58.4431 1231.93 59.1876C1232.31 59.9321 1232.51 60.7788 1232.51 61.7277C1232.51 62.6766 1232.31 63.5181 1231.93 64.2521C1231.54 64.986 1230.94 65.5627 1230.14 65.9821C1229.34 66.3963 1228.31 66.6034 1227.07 66.6034H1222.66V64.8419H1227C1227.86 64.8419 1228.56 64.716 1229.08 64.4644C1229.61 64.2127 1229.99 63.8562 1230.23 63.3949C1230.47 62.9283 1230.59 62.3725 1230.59 61.7277C1230.59 61.0828 1230.47 60.5192 1230.23 60.0369C1229.99 59.5546 1229.6 59.1824 1229.07 58.9202C1228.54 58.6528 1227.84 58.5192 1226.97 58.5192H1223.54V72.8947H1221.59ZM1229.17 65.6597L1233.14 72.8947H1230.87L1226.97 65.6597H1229.17Z" fill="#242424" fill-opacity="0.4"/>
  <path d="M1218.44 61.8216H1216.49C1216.38 61.2606 1216.17 60.7678 1215.89 60.3431C1215.6 59.9184 1215.26 59.5619 1214.85 59.2736C1214.44 58.98 1214 58.7598 1213.5 58.613C1213.01 58.4662 1212.5 58.3928 1211.96 58.3928C1210.99 58.3928 1210.1 58.6392 1209.31 59.132C1208.53 59.6249 1207.9 60.351 1207.43 61.3104C1206.97 62.2698 1206.74 63.4468 1206.74 64.8413C1206.74 66.2359 1206.97 67.4129 1207.43 68.3723C1207.9 69.3317 1208.53 70.0578 1209.31 70.5507C1210.1 71.0435 1210.99 71.2899 1211.96 71.2899C1212.5 71.2899 1213.01 71.2165 1213.5 71.0697C1214 70.9229 1214.44 70.7053 1214.85 70.417C1215.26 70.1234 1215.6 69.7642 1215.89 69.3396C1216.17 68.9097 1216.38 68.4169 1216.49 67.8611H1218.44C1218.3 68.6843 1218.03 69.4209 1217.64 70.0709C1217.25 70.721 1216.77 71.2741 1216.19 71.7303C1215.62 72.1811 1214.97 72.5245 1214.25 72.7605C1213.54 72.9964 1212.77 73.1143 1211.96 73.1143C1210.59 73.1143 1209.37 72.7788 1208.3 72.1077C1207.23 71.4367 1206.39 70.4825 1205.77 69.2452C1205.16 68.0079 1204.85 66.54 1204.85 64.8413C1204.85 63.1427 1205.16 61.6748 1205.77 60.4375C1206.39 59.2002 1207.23 58.246 1208.3 57.575C1209.37 56.9039 1210.59 56.5684 1211.96 56.5684C1212.77 56.5684 1213.54 56.6863 1214.25 56.9222C1214.97 57.1582 1215.62 57.5042 1216.19 57.9603C1216.77 58.4112 1217.25 58.9617 1217.64 59.6118C1218.03 60.2566 1218.3 60.9932 1218.44 61.8216Z" fill="#242424" fill-opacity="0.4"/>
  <path d="M1200.17 60.815C1200.07 60.0181 1199.69 59.3994 1199.02 58.959C1198.35 58.5186 1197.53 58.2985 1196.55 58.2985C1195.84 58.2985 1195.21 58.4138 1194.68 58.6445C1194.15 58.8751 1193.73 59.1923 1193.44 59.596C1193.14 59.9997 1193 60.4584 1193 60.9722C1193 61.4021 1193.1 61.7717 1193.3 62.0811C1193.51 62.3851 1193.78 62.6394 1194.1 62.8439C1194.43 63.0431 1194.77 63.2082 1195.13 63.3393C1195.48 63.4651 1195.81 63.5674 1196.11 63.646L1197.75 64.0864C1198.17 64.1965 1198.63 64.3485 1199.15 64.5425C1199.66 64.7365 1200.16 65.0013 1200.63 65.3368C1201.11 65.6671 1201.5 66.0917 1201.81 66.6108C1202.12 67.1298 1202.28 67.7668 1202.28 68.5217C1202.28 69.392 1202.05 70.1784 1201.59 70.8809C1201.14 71.5835 1200.48 72.1418 1199.61 72.556C1198.74 72.9702 1197.69 73.1772 1196.46 73.1772C1195.3 73.1772 1194.3 72.9911 1193.46 72.6189C1192.62 72.2467 1191.96 71.7276 1191.48 71.0618C1191 70.396 1190.73 69.6227 1190.67 68.7419H1192.68C1192.73 69.3501 1192.94 69.8534 1193.29 70.2518C1193.66 70.645 1194.11 70.9386 1194.66 71.1326C1195.22 71.3213 1195.82 71.4157 1196.46 71.4157C1197.2 71.4157 1197.87 71.2951 1198.46 71.054C1199.05 70.8075 1199.52 70.4668 1199.87 70.0316C1200.21 69.5912 1200.39 69.0775 1200.39 68.4903C1200.39 67.9555 1200.24 67.5204 1199.94 67.1848C1199.64 66.8493 1199.25 66.5767 1198.76 66.367C1198.27 66.1573 1197.75 65.9738 1197.18 65.8165L1195.2 65.2503C1193.94 64.8885 1192.94 64.3721 1192.21 63.7011C1191.48 63.03 1191.11 62.1518 1191.11 61.0666C1191.11 60.1649 1191.35 59.3784 1191.84 58.7074C1192.33 58.0311 1192.99 57.5068 1193.82 57.1346C1194.66 56.7571 1195.59 56.5684 1196.61 56.5684C1197.65 56.5684 1198.57 56.7545 1199.38 57.1267C1200.19 57.4937 1200.83 57.997 1201.3 58.6366C1201.78 59.2762 1202.03 60.0023 1202.06 60.815H1200.17Z" fill="#242424" fill-opacity="0.4"/>
  <path d="M727.226 86.7093C726.877 86.7093 726.576 86.6323 726.323 86.4781C726.071 86.3224 725.877 86.1054 725.74 85.827C725.605 85.547 725.537 85.2214 725.537 84.8503C725.537 84.4791 725.605 84.1519 725.74 83.8688C725.877 83.5842 726.067 83.3624 726.311 83.2035C726.556 83.0431 726.843 82.9629 727.17 82.9629C727.358 82.9629 727.545 82.9943 727.729 83.0573C727.913 83.1202 728.08 83.2224 728.231 83.364C728.382 83.5039 728.503 83.6895 728.592 83.9207C728.682 84.1519 728.727 84.4366 728.727 84.7748V85.0107H725.933V84.5294H728.161C728.161 84.3249 728.12 84.1425 728.038 83.9821C727.958 83.8216 727.843 83.695 727.693 83.6022C727.546 83.5094 727.371 83.463 727.17 83.463C726.948 83.463 726.756 83.5181 726.594 83.6282C726.434 83.7367 726.31 83.8783 726.224 84.0528C726.137 84.2274 726.094 84.4146 726.094 84.6143V84.9352C726.094 85.2089 726.141 85.4409 726.235 85.6312C726.331 85.8199 726.464 85.9638 726.634 86.0629C726.804 86.1604 727.001 86.2092 727.226 86.2092C727.373 86.2092 727.505 86.1887 727.623 86.1478C727.742 86.1054 727.845 86.0425 727.932 85.9591C728.018 85.8742 728.085 85.7688 728.132 85.643L728.67 85.794C728.614 85.9764 728.518 86.1368 728.385 86.2752C728.251 86.4121 728.086 86.519 727.889 86.5961C727.693 86.6716 727.472 86.7093 727.226 86.7093Z" fill="#242424" fill-opacity="0.4"/>
  <path d="M724.687 81.8027V86.6344H724.13V81.8027H724.687Z" fill="#242424" fill-opacity="0.4"/>
  <path d="M722.553 86.634V83.0103H723.11V86.634H722.553ZM722.837 82.4063C722.728 82.4063 722.634 82.3694 722.556 82.2954C722.479 82.2215 722.44 82.1326 722.44 82.0288C722.44 81.925 722.479 81.8362 722.556 81.7623C722.634 81.6883 722.728 81.6514 722.837 81.6514C722.945 81.6514 723.038 81.6883 723.115 81.7623C723.194 81.8362 723.233 81.925 723.233 82.0288C723.233 82.1326 723.194 82.2215 723.115 82.2954C723.038 82.3694 722.945 82.4063 722.837 82.4063Z" fill="#242424" fill-opacity="0.4"/>
  <path d="M721.773 83.0106V83.4824H719.82V83.0106H721.773ZM720.405 86.6343V82.5104C720.405 82.3028 720.453 82.1298 720.551 81.9914C720.648 81.853 720.775 81.7492 720.931 81.68C721.086 81.6108 721.251 81.5762 721.424 81.5762C721.561 81.5762 721.672 81.5872 721.759 81.6092C721.845 81.6312 721.91 81.6517 721.952 81.6705L721.792 82.1518C721.764 82.1424 721.724 82.1306 721.674 82.1164C721.625 82.1023 721.561 82.0952 721.48 82.0952C721.296 82.0952 721.164 82.1416 721.082 82.2344C721.002 82.3272 720.961 82.4632 720.961 82.6425V86.6343H720.405Z" fill="#242424" fill-opacity="0.4"/>
  <path d="M712.517 86.6338V83.0101H713.055V83.5763H713.102C713.177 83.3828 713.299 83.2326 713.468 83.1257C713.636 83.0172 713.838 82.9629 714.074 82.9629C714.313 82.9629 714.512 83.0172 714.671 83.1257C714.831 83.2326 714.956 83.3828 715.046 83.5763H715.084C715.176 83.3891 715.316 83.2405 715.501 83.1304C715.687 83.0187 715.909 82.9629 716.169 82.9629C716.493 82.9629 716.758 83.0643 716.964 83.2672C717.17 83.4685 717.273 83.7823 717.273 84.2086V86.6338H716.716V84.2086C716.716 83.9412 716.643 83.7501 716.497 83.6353C716.351 83.5205 716.178 83.463 715.98 83.463C715.725 83.463 715.528 83.5401 715.388 83.6942C715.248 83.8468 715.178 84.0403 715.178 84.2746V86.6338H714.612V84.1519C714.612 83.9459 714.545 83.78 714.411 83.6541C714.278 83.5267 714.105 83.463 713.895 83.463C713.75 83.463 713.615 83.5016 713.489 83.5786C713.365 83.6557 713.264 83.7627 713.187 83.8995C713.111 84.0348 713.074 84.1913 713.074 84.369V86.6338H712.517Z" fill="#242424" fill-opacity="0.4"/>
  <path d="M710.169 86.7093C709.82 86.7093 709.519 86.6323 709.266 86.4781C709.014 86.3224 708.82 86.1054 708.683 85.827C708.548 85.547 708.48 85.2214 708.48 84.8503C708.48 84.4791 708.548 84.1519 708.683 83.8688C708.82 83.5842 709.01 83.3624 709.254 83.2035C709.499 83.0431 709.786 82.9629 710.113 82.9629C710.302 82.9629 710.488 82.9943 710.672 83.0573C710.856 83.1202 711.023 83.2224 711.174 83.364C711.325 83.5039 711.446 83.6895 711.535 83.9207C711.625 84.1519 711.67 84.4366 711.67 84.7748V85.0107H708.877V84.5294H711.104C711.104 84.3249 711.063 84.1425 710.981 83.9821C710.901 83.8216 710.786 83.695 710.637 83.6022C710.489 83.5094 710.314 83.463 710.113 83.463C709.891 83.463 709.699 83.5181 709.537 83.6282C709.377 83.7367 709.253 83.8783 709.167 84.0528C709.08 84.2274 709.037 84.4146 709.037 84.6143V84.9352C709.037 85.2089 709.084 85.4409 709.179 85.6312C709.274 85.8199 709.407 85.9638 709.577 86.0629C709.747 86.1604 709.945 86.2092 710.169 86.2092C710.316 86.2092 710.448 86.1887 710.566 86.1478C710.685 86.1054 710.788 86.0425 710.875 85.9591C710.961 85.8742 711.028 85.7688 711.075 85.643L711.613 85.794C711.557 85.9764 711.461 86.1368 711.328 86.2752C711.194 86.4121 711.029 86.519 710.832 86.5961C710.636 86.6716 710.415 86.7093 710.169 86.7093Z" fill="#242424" fill-opacity="0.4"/>
  <path d="M707.852 83.0108V83.4826H705.974V83.0108H707.852ZM706.521 82.1426H707.078V85.5965C707.078 85.7538 707.101 85.8717 707.146 85.9504C707.193 86.0274 707.253 86.0793 707.325 86.1061C707.399 86.1312 707.477 86.1438 707.559 86.1438C707.62 86.1438 707.671 86.1407 707.71 86.1344C707.749 86.1265 707.781 86.1202 707.804 86.1155L707.918 86.6157C707.88 86.6298 707.827 86.644 707.76 86.6581C707.692 86.6738 707.606 86.6817 707.502 86.6817C707.345 86.6817 707.191 86.6479 707.04 86.5803C706.891 86.5126 706.766 86.4096 706.667 86.2712C706.57 86.1328 706.521 85.9582 706.521 85.7475V82.1426Z" fill="#242424" fill-opacity="0.4"/>
  <path d="M705.371 83.8216L704.871 83.9632C704.84 83.8798 704.793 83.7988 704.732 83.7202C704.672 83.64 704.59 83.5739 704.487 83.522C704.383 83.4701 704.25 83.4442 704.088 83.4442C703.866 83.4442 703.681 83.4953 703.533 83.5975C703.387 83.6982 703.314 83.8264 703.314 83.9821C703.314 84.1205 703.364 84.2298 703.465 84.31C703.566 84.3902 703.723 84.4571 703.937 84.5105L704.475 84.6427C704.799 84.7213 705.04 84.8416 705.199 85.0036C705.358 85.164 705.437 85.3709 705.437 85.6241C705.437 85.8317 705.378 86.0173 705.258 86.1809C705.14 86.3444 704.975 86.4734 704.763 86.5678C704.55 86.6621 704.303 86.7093 704.022 86.7093C703.652 86.7093 703.346 86.6291 703.104 86.4687C702.862 86.3083 702.709 86.0739 702.644 85.7656L703.173 85.6335C703.223 85.8286 703.318 85.9748 703.458 86.0723C703.6 86.1699 703.784 86.2186 704.012 86.2186C704.272 86.2186 704.478 86.1636 704.631 86.0535C704.785 85.9418 704.862 85.8081 704.862 85.6524C704.862 85.5266 704.818 85.4212 704.73 85.3363C704.642 85.2498 704.506 85.1853 704.324 85.1428L703.72 85.0013C703.388 84.9226 703.144 84.8007 702.988 84.6356C702.834 84.4689 702.757 84.2605 702.757 84.0104C702.757 83.8059 702.815 83.625 702.93 83.4678C703.046 83.3105 703.204 83.187 703.404 83.0974C703.605 83.0077 703.833 82.9629 704.088 82.9629C704.446 82.9629 704.728 83.0415 704.932 83.1988C705.139 83.3561 705.285 83.5637 705.371 83.8216Z" fill="#242424" fill-opacity="0.4"/>
  <path d="M699.465 87.9934C699.371 87.9934 699.286 87.9855 699.213 87.9698C699.139 87.9557 699.087 87.9415 699.059 87.9274L699.201 87.4366C699.336 87.4712 699.456 87.4838 699.559 87.4744C699.663 87.4649 699.755 87.4185 699.835 87.3352C699.917 87.2534 699.992 87.1205 700.059 86.9365L700.163 86.6534L698.823 83.0107H699.427L700.428 85.8984H700.465L701.466 83.0107H702.07L700.531 87.163C700.462 87.3501 700.376 87.5051 700.274 87.6277C700.172 87.752 700.053 87.844 699.918 87.9038C699.784 87.9635 699.633 87.9934 699.465 87.9934Z" fill="#242424" fill-opacity="0.4"/>
  <path d="M698.203 83.8216L697.702 83.9632C697.671 83.8798 697.625 83.7988 697.563 83.7202C697.503 83.64 697.422 83.5739 697.318 83.522C697.214 83.4701 697.081 83.4442 696.919 83.4442C696.697 83.4442 696.513 83.4953 696.365 83.5975C696.218 83.6982 696.145 83.8264 696.145 83.9821C696.145 84.1205 696.196 84.2298 696.296 84.31C696.397 84.3902 696.554 84.4571 696.768 84.5105L697.306 84.6427C697.63 84.7213 697.872 84.8416 698.03 85.0036C698.189 85.164 698.269 85.3709 698.269 85.6241C698.269 85.8317 698.209 86.0173 698.089 86.1809C697.971 86.3444 697.806 86.4734 697.594 86.5678C697.382 86.6621 697.135 86.7093 696.853 86.7093C696.484 86.7093 696.178 86.6291 695.935 86.4687C695.693 86.3083 695.54 86.0739 695.475 85.7656L696.004 85.6335C696.054 85.8286 696.149 85.9748 696.289 86.0723C696.431 86.1699 696.616 86.2186 696.844 86.2186C697.103 86.2186 697.309 86.1636 697.462 86.0535C697.616 85.9418 697.693 85.8081 697.693 85.6524C697.693 85.5266 697.649 85.4212 697.561 85.3363C697.473 85.2498 697.338 85.1853 697.155 85.1428L696.551 85.0013C696.219 84.9226 695.975 84.8007 695.82 84.6356C695.666 84.4689 695.589 84.2605 695.589 84.0104C695.589 83.8059 695.646 83.625 695.761 83.4678C695.877 83.3105 696.035 83.187 696.235 83.0974C696.436 83.0077 696.664 82.9629 696.919 82.9629C697.278 82.9629 697.559 83.0415 697.764 83.1988C697.97 83.3561 698.116 83.5637 698.203 83.8216Z" fill="#242424" fill-opacity="0.4"/>
  <path d="M690.438 84.4539V86.6338H689.881V83.0101H690.419V83.5763H690.466C690.551 83.3923 690.68 83.2444 690.853 83.1328C691.026 83.0195 691.249 82.9629 691.523 82.9629C691.768 82.9629 691.983 83.0132 692.167 83.1139C692.351 83.213 692.494 83.364 692.597 83.5669C692.699 83.7682 692.75 84.023 692.75 84.3312V86.6338H692.193V84.369C692.193 84.0843 692.119 83.8625 691.971 83.7037C691.824 83.5433 691.621 83.463 691.363 83.463C691.185 83.463 691.026 83.5016 690.886 83.5786C690.748 83.6557 690.638 83.7682 690.558 83.916C690.478 84.0639 690.438 84.2432 690.438 84.4539Z" fill="#242424" fill-opacity="0.4"/>
  <path d="M687.533 86.7093C687.184 86.7093 686.883 86.6323 686.63 86.4781C686.378 86.3224 686.184 86.1054 686.047 85.827C685.912 85.547 685.844 85.2214 685.844 84.8503C685.844 84.4791 685.912 84.1519 686.047 83.8688C686.184 83.5842 686.374 83.3624 686.618 83.2035C686.863 83.0431 687.15 82.9629 687.477 82.9629C687.666 82.9629 687.852 82.9943 688.036 83.0573C688.22 83.1202 688.387 83.2224 688.538 83.364C688.689 83.5039 688.81 83.6895 688.899 83.9207C688.989 84.1519 689.034 84.4366 689.034 84.7748V85.0107H686.241V84.5294H688.468C688.468 84.3249 688.427 84.1425 688.345 83.9821C688.265 83.8216 688.15 83.695 688.001 83.6022C687.853 83.5094 687.678 83.463 687.477 83.463C687.255 83.463 687.063 83.5181 686.901 83.6282C686.741 83.7367 686.617 83.8783 686.531 84.0528C686.444 84.2274 686.401 84.4146 686.401 84.6143V84.9352C686.401 85.2089 686.448 85.4409 686.543 85.6312C686.639 85.8199 686.771 85.9638 686.941 86.0629C687.111 86.1604 687.309 86.2092 687.533 86.2092C687.68 86.2092 687.812 86.1887 687.93 86.1478C688.049 86.1054 688.152 86.0425 688.239 85.9591C688.325 85.8742 688.392 85.7688 688.439 85.643L688.977 85.794C688.921 85.9764 688.826 86.1368 688.692 86.2752C688.558 86.4121 688.393 86.519 688.196 86.5961C688 86.6716 687.779 86.7093 687.533 86.7093Z" fill="#242424" fill-opacity="0.4"/>
  <path d="M681.966 87.9927V83.0101H682.504V83.5857H682.57C682.611 83.5228 682.667 83.4426 682.74 83.3451C682.814 83.246 682.919 83.1579 683.056 83.0809C683.194 83.0022 683.381 82.9629 683.617 82.9629C683.922 82.9629 684.191 83.0392 684.424 83.1917C684.657 83.3443 684.839 83.5606 684.969 83.8405C685.1 84.1205 685.165 84.4508 685.165 84.8314C685.165 85.2152 685.1 85.5478 684.969 85.8293C684.839 86.1093 684.658 86.3263 684.426 86.4805C684.195 86.633 683.929 86.7093 683.627 86.7093C683.394 86.7093 683.208 86.6708 683.068 86.5937C682.928 86.5151 682.82 86.4262 682.744 86.3271C682.669 86.2265 682.611 86.1431 682.57 86.0771H682.523V87.9927H681.966ZM682.513 84.822C682.513 85.0956 682.553 85.337 682.633 85.5462C682.714 85.7538 682.831 85.9166 682.985 86.0346C683.139 86.151 683.328 86.2092 683.551 86.2092C683.784 86.2092 683.978 86.1478 684.134 86.0252C684.291 85.9009 684.409 85.7342 684.488 85.525C684.568 85.3142 684.608 85.0799 684.608 84.822C684.608 84.5672 684.569 84.3375 684.49 84.1331C684.413 83.927 684.296 83.7642 684.139 83.6447C683.983 83.5236 683.787 83.463 683.551 83.463C683.325 83.463 683.134 83.5205 682.98 83.6353C682.826 83.7485 682.71 83.9074 682.631 84.1118C682.552 84.3147 682.513 84.5514 682.513 84.822Z" fill="#242424" fill-opacity="0.4"/>
  <path d="M681.057 84.2182C681.057 84.7278 680.965 85.1682 680.781 85.5394C680.597 85.9106 680.345 86.1968 680.024 86.3981C679.703 86.5995 679.337 86.7001 678.925 86.7001C678.513 86.7001 678.146 86.5995 677.825 86.3981C677.504 86.1968 677.252 85.9106 677.068 85.5394C676.884 85.1682 676.792 84.7278 676.792 84.2182C676.792 83.7086 676.884 83.2682 677.068 82.8971C677.252 82.5259 677.504 82.2396 677.825 82.0383C678.146 81.837 678.513 81.7363 678.925 81.7363C679.337 81.7363 679.703 81.837 680.024 82.0383C680.345 82.2396 680.597 82.5259 680.781 82.8971C680.965 83.2682 681.057 83.7086 681.057 84.2182ZM680.491 84.2182C680.491 83.7999 680.421 83.4468 680.281 83.1589C680.143 82.8711 679.955 82.6533 679.717 82.5054C679.481 82.3576 679.217 82.2837 678.925 82.2837C678.632 82.2837 678.367 82.3576 678.13 82.5054C677.894 82.6533 677.706 82.8711 677.566 83.1589C677.427 83.4468 677.358 83.7999 677.358 84.2182C677.358 84.6366 677.427 84.9897 677.566 85.2775C677.706 85.5653 677.894 85.7832 678.13 85.931C678.367 86.0789 678.632 86.1528 678.925 86.1528C679.217 86.1528 679.481 86.0789 679.717 85.931C679.955 85.7832 680.143 85.5653 680.281 85.2775C680.421 84.9897 680.491 84.6366 680.491 84.2182Z" fill="#242424" fill-opacity="0.4"/>
  <path d="M762.077 79.7643V86.6345H775.817V45.4131H762.077V52.2833H768.947V79.7643H762.077Z" fill="#242424" fill-opacity="0.4"/>
  <path d="M638.413 52.2833V45.4131H624.672V86.6345H638.413V79.7643H631.543V52.2833H638.413Z" fill="#242424" fill-opacity="0.4"/>
  <path fill-rule="evenodd" clip-rule="evenodd" d="M953.298 79.7641V52.2832H955.588V79.7641H953.298Z" fill="#242424" fill-opacity="0.4"/>
  <path fill-rule="evenodd" clip-rule="evenodd" d="M1159.41 79.7641V52.2832H1161.7V79.7641H1159.41Z" fill="#242424" fill-opacity="0.4"/>
  <path d="M1325.44 20.0566H1282.59V29.398H1325.44V20.0566Z" fill="black" fill-opacity="0.1"/>
  <path fill-rule="evenodd" clip-rule="evenodd" d="M1325.44 20.3311H582V19.5068H1325.44V20.3311Z" fill="black" fill-opacity="0.1"/>
  <path fill-rule="evenodd" clip-rule="evenodd" d="M1325.44 29.9473H582V29.123H1325.44V29.9473Z" fill="black" fill-opacity="0.1"/>
  <path d="M624.845 20.0566H596.282H582V29.8559V49.4545H596.282V29.8559H624.845V20.0566Z" fill="black" fill-opacity="0.1"/>
  <path d="M1354 29.3979V9.7993V0H1339.72H1311.16V9.7993H1339.72V29.3979H1354Z" fill="black" fill-opacity="0.1"/>
  <path d="M0 188H1229" stroke="black" stroke-opacity="0.6" stroke-width="0.5" stroke-miterlimit="10"/>
  </svg>
  