<svg width="2064" height="955" viewBox="0 0 2064 955" fill="none" xmlns="http://www.w3.org/2000/svg">
<rect x="283" y="552" width="1098" height="11" fill="white" fill-opacity="0.7"/>
<path d="M279 955L279 109L283 109L283 955L279 955Z" fill="white" fill-opacity="0.7"/>
<path d="M255 635L255 0L259 -1.74846e-07L259 635L255 635Z" fill="white" fill-opacity="0.7"/>
<path d="M693 224L1340 224V228L693 228V224Z" fill="white" fill-opacity="0.7"/>
<path d="M417 884L1052 884V889L417 889V884Z" fill="white" fill-opacity="0.7"/>
<path d="M32 571H255V576H32V571Z" fill="white" fill-opacity="0.7"/>
<path d="M-37.7109 519.244C-39.4883 519.244 -40.8229 518.652 -41.7148 517.467C-42.6003 516.282 -43.0462 514.501 -43.0527 512.125C-43.0527 509.97 -42.5677 508.245 -41.5977 506.949C-40.6211 505.647 -39.3255 504.996 -37.7109 504.996C-35.9206 504.996 -34.5827 505.589 -33.6973 506.773C-32.8053 507.952 -32.3594 509.719 -32.3594 512.076V512.125C-32.3594 514.28 -32.8477 516.005 -33.8242 517.301C-34.7943 518.596 -36.0898 519.244 -37.7109 519.244ZM-37.7109 517.223C-36.8385 517.223 -36.1875 516.803 -35.7578 515.963C-35.3216 515.117 -35.1068 513.837 -35.1133 512.125C-35.1068 510.413 -35.3216 509.133 -35.7578 508.287C-36.1875 507.441 -36.8385 507.018 -37.7109 507.018C-38.5768 507.018 -39.2246 507.441 -39.6543 508.287C-40.0775 509.133 -40.2923 510.413 -40.2988 512.125C-40.2923 513.837 -40.0775 515.117 -39.6543 515.963C-39.2246 516.803 -38.5768 517.223 -37.7109 517.223ZM-25.2305 519V507.877C-25.8099 508.294 -26.3503 508.655 -26.8516 508.961C-27.3398 509.254 -27.9648 509.527 -28.7266 509.781V507.34C-27.9583 507.066 -27.3236 506.783 -26.8223 506.49C-26.3145 506.204 -25.748 505.8 -25.123 505.279H-22.6328V519H-23.9316H-25.2305ZM-12.6328 519.244C-14.4102 519.244 -15.7448 518.652 -16.6367 517.467C-17.5221 516.282 -17.9681 514.501 -17.9746 512.125C-17.9746 509.97 -17.4896 508.245 -16.5195 506.949C-15.543 505.647 -14.2474 504.996 -12.6328 504.996C-10.8424 504.996 -9.50456 505.589 -8.61914 506.773C-7.72721 507.952 -7.28125 509.719 -7.28125 512.076V512.125C-7.28125 514.28 -7.76953 516.005 -8.74609 517.301C-9.71615 518.596 -11.0117 519.244 -12.6328 519.244ZM-12.6328 517.223C-11.7604 517.223 -11.1094 516.803 -10.6797 515.963C-10.2435 515.117 -10.0286 513.837 -10.0352 512.125C-10.0286 510.413 -10.2435 509.133 -10.6797 508.287C-11.1094 507.441 -11.7604 507.018 -12.6328 507.018C-13.4987 507.018 -14.1465 507.441 -14.5762 508.287C-14.9993 509.133 -15.2142 510.413 -15.2207 512.125C-15.2142 513.837 -14.9993 515.117 -14.5762 515.963C-14.1465 516.803 -13.4987 517.223 -12.6328 517.223ZM-0.152344 519V507.877C-0.731771 508.294 -1.27214 508.655 -1.77344 508.961C-2.26172 509.254 -2.88672 509.527 -3.64844 509.781V507.34C-2.88021 507.066 -2.24544 506.783 -1.74414 506.49C-1.23633 506.204 -0.669922 505.8 -0.0449219 505.279H2.44531V519H1.14648H-0.152344ZM12.4453 519.244C10.668 519.244 9.33333 518.652 8.44141 517.467C7.55599 516.282 7.11003 514.501 7.10352 512.125C7.10352 509.97 7.58854 508.245 8.55859 506.949C9.53516 505.647 10.8307 504.996 12.4453 504.996C14.2357 504.996 15.5736 505.589 16.459 506.773C17.3509 507.952 17.7969 509.719 17.7969 512.076V512.125C17.7969 514.28 17.3086 516.005 16.332 517.301C15.362 518.596 14.0664 519.244 12.4453 519.244ZM12.4453 517.223C13.3177 517.223 13.9688 516.803 14.3984 515.963C14.8346 515.117 15.0495 513.837 15.043 512.125C15.0495 510.413 14.8346 509.133 14.3984 508.287C13.9688 507.441 13.3177 507.018 12.4453 507.018C11.5794 507.018 10.9316 507.441 10.502 508.287C10.0788 509.133 9.86393 510.413 9.85742 512.125C9.86393 513.837 10.0788 515.117 10.502 515.963C10.9316 516.803 11.5794 517.223 12.4453 517.223ZM24.9258 519V507.877C24.3464 508.294 23.806 508.655 23.3047 508.961C22.8164 509.254 22.1914 509.527 21.4297 509.781V507.34C22.1979 507.066 22.8327 506.783 23.334 506.49C23.8418 506.204 24.4082 505.8 25.0332 505.279H27.5234V519H26.2246H24.9258Z" fill="white" fill-opacity="0.9"/>
<path d="M38.2891 519.244C36.5117 519.244 35.1771 518.652 34.2852 517.467C33.3997 516.282 32.9538 514.501 32.9473 512.125C32.9473 509.97 33.4323 508.245 34.4023 506.949C35.3789 505.647 36.6745 504.996 38.2891 504.996C40.0794 504.996 41.4173 505.589 42.3027 506.773C43.1947 507.952 43.6406 509.719 43.6406 512.076V512.125C43.6406 514.28 43.1523 516.005 42.1758 517.301C41.2057 518.596 39.9102 519.244 38.2891 519.244ZM38.2891 517.223C39.1615 517.223 39.8125 516.803 40.2422 515.963C40.6784 515.117 40.8932 513.837 40.8867 512.125C40.8932 510.413 40.6784 509.133 40.2422 508.287C39.8125 507.441 39.1615 507.018 38.2891 507.018C37.4232 507.018 36.7754 507.441 36.3457 508.287C35.9225 509.133 35.7077 510.413 35.7012 512.125C35.7077 513.837 35.9225 515.117 36.3457 515.963C36.7754 516.803 37.4232 517.223 38.2891 517.223ZM50.7695 519V507.877C50.1901 508.294 49.6497 508.655 49.1484 508.961C48.6602 509.254 48.0352 509.527 47.2734 509.781V507.34C48.0417 507.066 48.6764 506.783 49.1777 506.49C49.6855 506.204 50.252 505.8 50.877 505.279H53.3672V519H52.0684H50.7695ZM63.3672 519.244C61.5898 519.244 60.2552 518.652 59.3633 517.467C58.4779 516.282 58.0319 514.501 58.0254 512.125C58.0254 509.97 58.5104 508.245 59.4805 506.949C60.457 505.647 61.7526 504.996 63.3672 504.996C65.1576 504.996 66.4954 505.589 67.3809 506.773C68.2728 507.952 68.7188 509.719 68.7188 512.076V512.125C68.7188 514.28 68.2305 516.005 67.2539 517.301C66.2839 518.596 64.9883 519.244 63.3672 519.244ZM63.3672 517.223C64.2396 517.223 64.8906 516.803 65.3203 515.963C65.7565 515.117 65.9714 513.837 65.9648 512.125C65.9714 510.413 65.7565 509.133 65.3203 508.287C64.8906 507.441 64.2396 507.018 63.3672 507.018C62.5013 507.018 61.8535 507.441 61.4238 508.287C61.0007 509.133 60.7858 510.413 60.7793 512.125C60.7858 513.837 61.0007 515.117 61.4238 515.963C61.8535 516.803 62.5013 517.223 63.3672 517.223ZM75.8477 519V507.877C75.2682 508.294 74.7279 508.655 74.2266 508.961C73.7383 509.254 73.1133 509.527 72.3516 509.781V507.34C73.1198 507.066 73.7546 506.783 74.2559 506.49C74.7637 506.204 75.3301 505.8 75.9551 505.279H78.4453V519H77.1465H75.8477ZM88.4453 519.244C86.668 519.244 85.3333 518.652 84.4414 517.467C83.556 516.282 83.11 514.501 83.1035 512.125C83.1035 509.97 83.5885 508.245 84.5586 506.949C85.5352 505.647 86.8307 504.996 88.4453 504.996C90.2357 504.996 91.5736 505.589 92.459 506.773C93.3509 507.952 93.7969 509.719 93.7969 512.076V512.125C93.7969 514.28 93.3086 516.005 92.332 517.301C91.362 518.596 90.0664 519.244 88.4453 519.244ZM88.4453 517.223C89.3177 517.223 89.9688 516.803 90.3984 515.963C90.8346 515.117 91.0495 513.837 91.043 512.125C91.0495 510.413 90.8346 509.133 90.3984 508.287C89.9688 507.441 89.3177 507.018 88.4453 507.018C87.5794 507.018 86.9316 507.441 86.502 508.287C86.0788 509.133 85.8639 510.413 85.8574 512.125C85.8639 513.837 86.0788 515.117 86.502 515.963C86.9316 516.803 87.5794 517.223 88.4453 517.223ZM100.926 519V507.877C100.346 508.294 99.806 508.655 99.3047 508.961C98.8164 509.254 98.1914 509.527 97.4297 509.781V507.34C98.1979 507.066 98.8327 506.783 99.334 506.49C99.8418 506.204 100.408 505.8 101.033 505.279H103.523V519H102.225H100.926Z" fill="white" fill-opacity="0.9"/>
<path d="M114.289 519.244C112.512 519.244 111.177 518.652 110.285 517.467C109.4 516.282 108.954 514.501 108.947 512.125C108.947 509.97 109.432 508.245 110.402 506.949C111.379 505.647 112.674 504.996 114.289 504.996C116.079 504.996 117.417 505.589 118.303 506.773C119.195 507.952 119.641 509.719 119.641 512.076V512.125C119.641 514.28 119.152 516.005 118.176 517.301C117.206 518.596 115.91 519.244 114.289 519.244ZM114.289 517.223C115.161 517.223 115.812 516.803 116.242 515.963C116.678 515.117 116.893 513.837 116.887 512.125C116.893 510.413 116.678 509.133 116.242 508.287C115.812 507.441 115.161 507.018 114.289 507.018C113.423 507.018 112.775 507.441 112.346 508.287C111.923 509.133 111.708 510.413 111.701 512.125C111.708 513.837 111.923 515.117 112.346 515.963C112.775 516.803 113.423 517.223 114.289 517.223ZM126.77 519V507.877C126.19 508.294 125.65 508.655 125.148 508.961C124.66 509.254 124.035 509.527 123.273 509.781V507.34C124.042 507.066 124.676 506.783 125.178 506.49C125.686 506.204 126.252 505.8 126.877 505.279H129.367V519H128.068H126.77ZM139.367 519.244C137.59 519.244 136.255 518.652 135.363 517.467C134.478 516.282 134.032 514.501 134.025 512.125C134.025 509.97 134.51 508.245 135.48 506.949C136.457 505.647 137.753 504.996 139.367 504.996C141.158 504.996 142.495 505.589 143.381 506.773C144.273 507.952 144.719 509.719 144.719 512.076V512.125C144.719 514.28 144.23 516.005 143.254 517.301C142.284 518.596 140.988 519.244 139.367 519.244ZM139.367 517.223C140.24 517.223 140.891 516.803 141.32 515.963C141.757 515.117 141.971 513.837 141.965 512.125C141.971 510.413 141.757 509.133 141.32 508.287C140.891 507.441 140.24 507.018 139.367 507.018C138.501 507.018 137.854 507.441 137.424 508.287C137.001 509.133 136.786 510.413 136.779 512.125C136.786 513.837 137.001 515.117 137.424 515.963C137.854 516.803 138.501 517.223 139.367 517.223ZM151.848 519V507.877C151.268 508.294 150.728 508.655 150.227 508.961C149.738 509.254 149.113 509.527 148.352 509.781V507.34C149.12 507.066 149.755 506.783 150.256 506.49C150.764 506.204 151.33 505.8 151.955 505.279H154.445V519H153.146H151.848ZM164.445 519.244C162.668 519.244 161.333 518.652 160.441 517.467C159.556 516.282 159.11 514.501 159.104 512.125C159.104 509.97 159.589 508.245 160.559 506.949C161.535 505.647 162.831 504.996 164.445 504.996C166.236 504.996 167.574 505.589 168.459 506.773C169.351 507.952 169.797 509.719 169.797 512.076V512.125C169.797 514.28 169.309 516.005 168.332 517.301C167.362 518.596 166.066 519.244 164.445 519.244ZM164.445 517.223C165.318 517.223 165.969 516.803 166.398 515.963C166.835 515.117 167.049 513.837 167.043 512.125C167.049 510.413 166.835 509.133 166.398 508.287C165.969 507.441 165.318 507.018 164.445 507.018C163.579 507.018 162.932 507.441 162.502 508.287C162.079 509.133 161.864 510.413 161.857 512.125C161.864 513.837 162.079 515.117 162.502 515.963C162.932 516.803 163.579 517.223 164.445 517.223ZM176.926 519V507.877C176.346 508.294 175.806 508.655 175.305 508.961C174.816 509.254 174.191 509.527 173.43 509.781V507.34C174.198 507.066 174.833 506.783 175.334 506.49C175.842 506.204 176.408 505.8 177.033 505.279H179.523V519H178.225H176.926Z" fill="white" fill-opacity="0.9"/>
<path d="M114.289 539.244C112.512 539.244 111.177 538.652 110.285 537.467C109.4 536.282 108.954 534.501 108.947 532.125C108.947 529.97 109.432 528.245 110.402 526.949C111.379 525.647 112.674 524.996 114.289 524.996C116.079 524.996 117.417 525.589 118.303 526.773C119.195 527.952 119.641 529.719 119.641 532.076V532.125C119.641 534.28 119.152 536.005 118.176 537.301C117.206 538.596 115.91 539.244 114.289 539.244ZM114.289 537.223C115.161 537.223 115.812 536.803 116.242 535.963C116.678 535.117 116.893 533.837 116.887 532.125C116.893 530.413 116.678 529.133 116.242 528.287C115.812 527.441 115.161 527.018 114.289 527.018C113.423 527.018 112.775 527.441 112.346 528.287C111.923 529.133 111.708 530.413 111.701 532.125C111.708 533.837 111.923 535.117 112.346 535.963C112.775 536.803 113.423 537.223 114.289 537.223ZM126.77 539V527.877C126.19 528.294 125.65 528.655 125.148 528.961C124.66 529.254 124.035 529.527 123.273 529.781V527.34C124.042 527.066 124.676 526.783 125.178 526.49C125.686 526.204 126.252 525.8 126.877 525.279H129.367V539H128.068H126.77ZM139.367 539.244C137.59 539.244 136.255 538.652 135.363 537.467C134.478 536.282 134.032 534.501 134.025 532.125C134.025 529.97 134.51 528.245 135.48 526.949C136.457 525.647 137.753 524.996 139.367 524.996C141.158 524.996 142.495 525.589 143.381 526.773C144.273 527.952 144.719 529.719 144.719 532.076V532.125C144.719 534.28 144.23 536.005 143.254 537.301C142.284 538.596 140.988 539.244 139.367 539.244ZM139.367 537.223C140.24 537.223 140.891 536.803 141.32 535.963C141.757 535.117 141.971 533.837 141.965 532.125C141.971 530.413 141.757 529.133 141.32 528.287C140.891 527.441 140.24 527.018 139.367 527.018C138.501 527.018 137.854 527.441 137.424 528.287C137.001 529.133 136.786 530.413 136.779 532.125C136.786 533.837 137.001 535.117 137.424 535.963C137.854 536.803 138.501 537.223 139.367 537.223ZM151.848 539V527.877C151.268 528.294 150.728 528.655 150.227 528.961C149.738 529.254 149.113 529.527 148.352 529.781V527.34C149.12 527.066 149.755 526.783 150.256 526.49C150.764 526.204 151.33 525.8 151.955 525.279H154.445V539H153.146H151.848ZM164.445 539.244C162.668 539.244 161.333 538.652 160.441 537.467C159.556 536.282 159.11 534.501 159.104 532.125C159.104 529.97 159.589 528.245 160.559 526.949C161.535 525.647 162.831 524.996 164.445 524.996C166.236 524.996 167.574 525.589 168.459 526.773C169.351 527.952 169.797 529.719 169.797 532.076V532.125C169.797 534.28 169.309 536.005 168.332 537.301C167.362 538.596 166.066 539.244 164.445 539.244ZM164.445 537.223C165.318 537.223 165.969 536.803 166.398 535.963C166.835 535.117 167.049 533.837 167.043 532.125C167.049 530.413 166.835 529.133 166.398 528.287C165.969 527.441 165.318 527.018 164.445 527.018C163.579 527.018 162.932 527.441 162.502 528.287C162.079 529.133 161.864 530.413 161.857 532.125C161.864 533.837 162.079 535.117 162.502 535.963C162.932 536.803 163.579 537.223 164.445 537.223ZM176.926 539V527.877C176.346 528.294 175.806 528.655 175.305 528.961C174.816 529.254 174.191 529.527 173.43 529.781V527.34C174.198 527.066 174.833 526.783 175.334 526.49C175.842 526.204 176.408 525.8 177.033 525.279H179.523V539H178.225H176.926Z" fill="white" fill-opacity="0.9"/>
<path d="M122.075 556.203C121.047 556.203 120.213 555.771 119.574 554.908C118.939 554.045 118.622 552.911 118.622 551.506C118.622 550.135 118.939 549.026 119.574 548.18C120.213 547.333 121.047 546.91 122.075 546.91C123.108 546.91 123.941 547.333 124.576 548.18C125.211 549.026 125.528 550.135 125.528 551.506C125.528 552.911 125.211 554.045 124.576 554.908C123.941 555.771 123.108 556.203 122.075 556.203ZM122.075 555.188C122.769 555.188 123.321 554.855 123.732 554.191C124.147 553.527 124.354 552.636 124.354 551.519C124.354 550.423 124.147 549.551 123.732 548.903C123.321 548.252 122.769 547.926 122.075 547.926C121.381 547.926 120.827 548.252 120.412 548.903C120.002 549.551 119.796 550.423 119.796 551.519C119.796 552.636 120.002 553.527 120.412 554.191C120.827 554.855 121.381 555.188 122.075 555.188ZM130.073 556V548.478C129.887 548.63 129.707 548.766 129.534 548.884C129.166 549.13 128.692 549.365 128.112 549.589V548.472C128.577 548.29 128.96 548.104 129.261 547.913C129.561 547.718 129.893 547.445 130.257 547.094H131.273V556H130.676H130.073ZM138.224 556V548.478C138.037 548.63 137.858 548.766 137.684 548.884C137.316 549.13 136.842 549.365 136.262 549.589V548.472C136.728 548.29 137.111 548.104 137.411 547.913C137.712 547.718 138.044 547.445 138.408 547.094H139.423V556H138.827H138.224ZM146.374 556V548.478C146.188 548.63 146.008 548.766 145.834 548.884C145.466 549.13 144.992 549.365 144.413 549.589V548.472C144.878 548.29 145.261 548.104 145.562 547.913C145.862 547.718 146.194 547.445 146.558 547.094H147.574V556H146.977H146.374ZM154.677 556.203C153.648 556.203 152.815 555.771 152.176 554.908C151.541 554.045 151.224 552.911 151.224 551.506C151.224 550.135 151.541 549.026 152.176 548.18C152.815 547.333 153.648 546.91 154.677 546.91C155.709 546.91 156.543 547.333 157.178 548.18C157.812 549.026 158.13 550.135 158.13 551.506C158.13 552.911 157.812 554.045 157.178 554.908C156.543 555.771 155.709 556.203 154.677 556.203ZM154.677 555.188C155.371 555.188 155.923 554.855 156.333 554.191C156.748 553.527 156.956 552.636 156.956 551.519C156.956 550.423 156.748 549.551 156.333 548.903C155.923 548.252 155.371 547.926 154.677 547.926C153.983 547.926 153.428 548.252 153.014 548.903C152.603 549.551 152.398 550.423 152.398 551.519C152.398 552.636 152.603 553.527 153.014 554.191C153.428 554.855 153.983 555.188 154.677 555.188ZM162.675 556V548.478C162.489 548.63 162.309 548.766 162.135 548.884C161.767 549.13 161.293 549.365 160.713 549.589V548.472C161.179 548.29 161.562 548.104 161.862 547.913C162.163 547.718 162.495 547.445 162.859 547.094H163.875V556H163.278H162.675ZM170.978 556.203C169.949 556.203 169.116 555.771 168.477 554.908C167.842 554.045 167.524 552.911 167.524 551.506C167.524 550.135 167.842 549.026 168.477 548.18C169.116 547.333 169.949 546.91 170.978 546.91C172.01 546.91 172.844 547.333 173.479 548.18C174.113 549.026 174.431 550.135 174.431 551.506C174.431 552.911 174.113 554.045 173.479 554.908C172.844 555.771 172.01 556.203 170.978 556.203ZM170.978 555.188C171.672 555.188 172.224 554.855 172.634 554.191C173.049 553.527 173.256 552.636 173.256 551.519C173.256 550.423 173.049 549.551 172.634 548.903C172.224 548.252 171.672 547.926 170.978 547.926C170.284 547.926 169.729 548.252 169.314 548.903C168.904 549.551 168.699 550.423 168.699 551.519C168.699 552.636 168.904 553.527 169.314 554.191C169.729 554.855 170.284 555.188 170.978 555.188ZM178.976 556V548.478C178.789 548.63 178.61 548.766 178.436 548.884C178.068 549.13 177.594 549.365 177.014 549.589V548.472C177.48 548.29 177.863 548.104 178.163 547.913C178.464 547.718 178.796 547.445 179.16 547.094H180.175V556H179.579H178.976Z" fill="white" fill-opacity="0.9"/>
<path d="M73.0752 556.203C72.0469 556.203 71.2132 555.771 70.5742 554.908C69.9395 554.045 69.6221 552.911 69.6221 551.506C69.6221 550.135 69.9395 549.026 70.5742 548.18C71.2132 547.333 72.0469 546.91 73.0752 546.91C74.1077 546.91 74.9414 547.333 75.5762 548.18C76.2109 549.026 76.5283 550.135 76.5283 551.506C76.5283 552.911 76.2109 554.045 75.5762 554.908C74.9414 555.771 74.1077 556.203 73.0752 556.203ZM73.0752 555.188C73.7692 555.188 74.3215 554.855 74.7319 554.191C75.1466 553.527 75.354 552.636 75.354 551.519C75.354 550.423 75.1466 549.551 74.7319 548.903C74.3215 548.252 73.7692 547.926 73.0752 547.926C72.3812 547.926 71.8268 548.252 71.4121 548.903C71.0016 549.551 70.7964 550.423 70.7964 551.519C70.7964 552.636 71.0016 553.527 71.4121 554.191C71.8268 554.855 72.3812 555.188 73.0752 555.188ZM81.0732 556V548.478C80.887 548.63 80.7072 548.766 80.5337 548.884C80.1655 549.13 79.6916 549.365 79.1118 549.589V548.472C79.5773 548.29 79.9603 548.104 80.2607 547.913C80.5612 547.718 80.8934 547.445 81.2573 547.094H82.2729V556H81.6763H81.0732ZM89.376 556.203C88.3477 556.203 87.514 555.771 86.875 554.908C86.2402 554.045 85.9229 552.911 85.9229 551.506C85.9229 550.135 86.2402 549.026 86.875 548.18C87.514 547.333 88.3477 546.91 89.376 546.91C90.4085 546.91 91.2422 547.333 91.877 548.18C92.5117 549.026 92.8291 550.135 92.8291 551.506C92.8291 552.911 92.5117 554.045 91.877 554.908C91.2422 555.771 90.4085 556.203 89.376 556.203ZM89.376 555.188C90.07 555.188 90.6222 554.855 91.0327 554.191C91.4474 553.527 91.6548 552.636 91.6548 551.519C91.6548 550.423 91.4474 549.551 91.0327 548.903C90.6222 548.252 90.07 547.926 89.376 547.926C88.682 547.926 88.1276 548.252 87.7129 548.903C87.3024 549.551 87.0972 550.423 87.0972 551.519C87.0972 552.636 87.3024 553.527 87.7129 554.191C88.1276 554.855 88.682 555.188 89.376 555.188ZM97.374 556V548.478C97.1878 548.63 97.008 548.766 96.8345 548.884C96.4663 549.13 95.9924 549.365 95.4126 549.589V548.472C95.8781 548.29 96.2611 548.104 96.5615 547.913C96.862 547.718 97.1942 547.445 97.5581 547.094H98.5737V556H97.9771H97.374ZM105.677 556.203C104.648 556.203 103.815 555.771 103.176 554.908C102.541 554.045 102.224 552.911 102.224 551.506C102.224 550.135 102.541 549.026 103.176 548.18C103.815 547.333 104.648 546.91 105.677 546.91C106.709 546.91 107.543 547.333 108.178 548.18C108.812 549.026 109.13 550.135 109.13 551.506C109.13 552.911 108.812 554.045 108.178 554.908C107.543 555.771 106.709 556.203 105.677 556.203ZM105.677 555.188C106.371 555.188 106.923 554.855 107.333 554.191C107.748 553.527 107.956 552.636 107.956 551.519C107.956 550.423 107.748 549.551 107.333 548.903C106.923 548.252 106.371 547.926 105.677 547.926C104.983 547.926 104.428 548.252 104.014 548.903C103.603 549.551 103.398 550.423 103.398 551.519C103.398 552.636 103.603 553.527 104.014 554.191C104.428 554.855 104.983 555.188 105.677 555.188ZM113.675 556V548.478C113.489 548.63 113.309 548.766 113.135 548.884C112.767 549.13 112.293 549.365 111.713 549.589V548.472C112.179 548.29 112.562 548.104 112.862 547.913C113.163 547.718 113.495 547.445 113.859 547.094H114.875V556H114.278H113.675Z" fill="white" fill-opacity="0.9"/>
<rect x="191" y="503" width="54" height="54" fill="white"/>
<path fill-rule="evenodd" clip-rule="evenodd" d="M237 511H223.5V508H240V523H237V511Z" fill="black"/>
<path fill-rule="evenodd" clip-rule="evenodd" d="M196.5 551H210V554H193.5V539H196.5V551Z" fill="black"/>
<path fill-rule="evenodd" clip-rule="evenodd" d="M237 552L237 537L240 537L240 552L237 552Z" fill="black"/>
<rect x="241" y="60" width="14" height="14" fill="white" fill-opacity="0.7"/>
<rect x="1277" y="563" width="14" height="14" fill="white" fill-opacity="0.7"/>
<rect x="724" y="216" width="8" height="8" fill="white" fill-opacity="0.7"/>
<rect x="724" y="203" width="8" height="8" fill="white" fill-opacity="0.7"/>
<rect x="826" y="219" width="8" height="5" fill="white" fill-opacity="0.7"/>
<rect x="1314" y="219" width="2" height="5" fill="white" fill-opacity="0.7"/>
<rect x="724" y="190" width="8" height="8" fill="white" fill-opacity="0.7"/>
<rect x="1253" y="563" width="14" height="6" fill="white" fill-opacity="0.7"/>
<rect x="264" y="38" width="8" height="8" fill="white" fill-opacity="0.7"/>
<rect x="283" y="124" width="8" height="8" fill="white" fill-opacity="0.7"/>
<rect x="283" y="648" width="8" height="8" fill="white" fill-opacity="0.7"/>
<path d="M843.075 624.203C842.047 624.203 841.213 623.771 840.574 622.908C839.939 622.045 839.622 620.911 839.622 619.506C839.622 618.135 839.939 617.026 840.574 616.18C841.213 615.333 842.047 614.91 843.075 614.91C844.108 614.91 844.941 615.333 845.576 616.18C846.211 617.026 846.528 618.135 846.528 619.506C846.528 620.911 846.211 622.045 845.576 622.908C844.941 623.771 844.108 624.203 843.075 624.203ZM843.075 623.188C843.769 623.188 844.321 622.855 844.732 622.191C845.147 621.527 845.354 620.636 845.354 619.519C845.354 618.423 845.147 617.551 844.732 616.903C844.321 616.252 843.769 615.926 843.075 615.926C842.381 615.926 841.827 616.252 841.412 616.903C841.002 617.551 840.796 618.423 840.796 619.519C840.796 620.636 841.002 621.527 841.412 622.191C841.827 622.855 842.381 623.188 843.075 623.188ZM851.073 624V616.478C850.887 616.63 850.707 616.766 850.534 616.884C850.166 617.13 849.692 617.365 849.112 617.589V616.472C849.577 616.29 849.96 616.104 850.261 615.913C850.561 615.718 850.893 615.445 851.257 615.094H852.273V624H851.676H851.073ZM859.224 624V616.478C859.037 616.63 858.858 616.766 858.684 616.884C858.316 617.13 857.842 617.365 857.262 617.589V616.472C857.728 616.29 858.111 616.104 858.411 615.913C858.712 615.718 859.044 615.445 859.408 615.094H860.423V624H859.827H859.224ZM867.374 624V616.478C867.188 616.63 867.008 616.766 866.834 616.884C866.466 617.13 865.992 617.365 865.413 617.589V616.472C865.878 616.29 866.261 616.104 866.562 615.913C866.862 615.718 867.194 615.445 867.558 615.094H868.574V624H867.977H867.374ZM875.677 624.203C874.648 624.203 873.815 623.771 873.176 622.908C872.541 622.045 872.224 620.911 872.224 619.506C872.224 618.135 872.541 617.026 873.176 616.18C873.815 615.333 874.648 614.91 875.677 614.91C876.709 614.91 877.543 615.333 878.178 616.18C878.812 617.026 879.13 618.135 879.13 619.506C879.13 620.911 878.812 622.045 878.178 622.908C877.543 623.771 876.709 624.203 875.677 624.203ZM875.677 623.188C876.371 623.188 876.923 622.855 877.333 622.191C877.748 621.527 877.956 620.636 877.956 619.519C877.956 618.423 877.748 617.551 877.333 616.903C876.923 616.252 876.371 615.926 875.677 615.926C874.983 615.926 874.428 616.252 874.014 616.903C873.603 617.551 873.398 618.423 873.398 619.519C873.398 620.636 873.603 621.527 874.014 622.191C874.428 622.855 874.983 623.188 875.677 623.188ZM883.675 624V616.478C883.489 616.63 883.309 616.766 883.135 616.884C882.767 617.13 882.293 617.365 881.713 617.589V616.472C882.179 616.29 882.562 616.104 882.862 615.913C883.163 615.718 883.495 615.445 883.859 615.094H884.875V624H884.278H883.675ZM891.978 624.203C890.949 624.203 890.116 623.771 889.477 622.908C888.842 622.045 888.524 620.911 888.524 619.506C888.524 618.135 888.842 617.026 889.477 616.18C890.116 615.333 890.949 614.91 891.978 614.91C893.01 614.91 893.844 615.333 894.479 616.18C895.113 617.026 895.431 618.135 895.431 619.506C895.431 620.911 895.113 622.045 894.479 622.908C893.844 623.771 893.01 624.203 891.978 624.203ZM891.978 623.188C892.672 623.188 893.224 622.855 893.634 622.191C894.049 621.527 894.256 620.636 894.256 619.519C894.256 618.423 894.049 617.551 893.634 616.903C893.224 616.252 892.672 615.926 891.978 615.926C891.284 615.926 890.729 616.252 890.314 616.903C889.904 617.551 889.699 618.423 889.699 619.519C889.699 620.636 889.904 621.527 890.314 622.191C890.729 622.855 891.284 623.188 891.978 623.188ZM899.976 624V616.478C899.789 616.63 899.61 616.766 899.436 616.884C899.068 617.13 898.594 617.365 898.014 617.589V616.472C898.48 616.29 898.863 616.104 899.163 615.913C899.464 615.718 899.796 615.445 900.16 615.094H901.175V624H900.579H899.976Z" fill="white" fill-opacity="0.9"/>
<path d="M912.075 624.203C911.047 624.203 910.213 623.771 909.574 622.908C908.939 622.045 908.622 620.911 908.622 619.506C908.622 618.135 908.939 617.026 909.574 616.18C910.213 615.333 911.047 614.91 912.075 614.91C913.108 614.91 913.941 615.333 914.576 616.18C915.211 617.026 915.528 618.135 915.528 619.506C915.528 620.911 915.211 622.045 914.576 622.908C913.941 623.771 913.108 624.203 912.075 624.203ZM912.075 623.188C912.769 623.188 913.321 622.855 913.732 622.191C914.147 621.527 914.354 620.636 914.354 619.519C914.354 618.423 914.147 617.551 913.732 616.903C913.321 616.252 912.769 615.926 912.075 615.926C911.381 615.926 910.827 616.252 910.412 616.903C910.002 617.551 909.796 618.423 909.796 619.519C909.796 620.636 910.002 621.527 910.412 622.191C910.827 622.855 911.381 623.188 912.075 623.188ZM920.073 624V616.478C919.887 616.63 919.707 616.766 919.534 616.884C919.166 617.13 918.692 617.365 918.112 617.589V616.472C918.577 616.29 918.96 616.104 919.261 615.913C919.561 615.718 919.893 615.445 920.257 615.094H921.273V624H920.676H920.073ZM928.224 624V616.478C928.037 616.63 927.858 616.766 927.684 616.884C927.316 617.13 926.842 617.365 926.262 617.589V616.472C926.728 616.29 927.111 616.104 927.411 615.913C927.712 615.718 928.044 615.445 928.408 615.094H929.423V624H928.827H928.224ZM936.374 624V616.478C936.188 616.63 936.008 616.766 935.834 616.884C935.466 617.13 934.992 617.365 934.413 617.589V616.472C934.878 616.29 935.261 616.104 935.562 615.913C935.862 615.718 936.194 615.445 936.558 615.094H937.574V624H936.977H936.374ZM944.677 624.203C943.648 624.203 942.815 623.771 942.176 622.908C941.541 622.045 941.224 620.911 941.224 619.506C941.224 618.135 941.541 617.026 942.176 616.18C942.815 615.333 943.648 614.91 944.677 614.91C945.709 614.91 946.543 615.333 947.178 616.18C947.812 617.026 948.13 618.135 948.13 619.506C948.13 620.911 947.812 622.045 947.178 622.908C946.543 623.771 945.709 624.203 944.677 624.203ZM944.677 623.188C945.371 623.188 945.923 622.855 946.333 622.191C946.748 621.527 946.956 620.636 946.956 619.519C946.956 618.423 946.748 617.551 946.333 616.903C945.923 616.252 945.371 615.926 944.677 615.926C943.983 615.926 943.428 616.252 943.014 616.903C942.603 617.551 942.398 618.423 942.398 619.519C942.398 620.636 942.603 621.527 943.014 622.191C943.428 622.855 943.983 623.188 944.677 623.188ZM952.675 624V616.478C952.489 616.63 952.309 616.766 952.135 616.884C951.767 617.13 951.293 617.365 950.713 617.589V616.472C951.179 616.29 951.562 616.104 951.862 615.913C952.163 615.718 952.495 615.445 952.859 615.094H953.875V624H953.278H952.675ZM960.978 624.203C959.949 624.203 959.116 623.771 958.477 622.908C957.842 622.045 957.524 620.911 957.524 619.506C957.524 618.135 957.842 617.026 958.477 616.18C959.116 615.333 959.949 614.91 960.978 614.91C962.01 614.91 962.844 615.333 963.479 616.18C964.113 617.026 964.431 618.135 964.431 619.506C964.431 620.911 964.113 622.045 963.479 622.908C962.844 623.771 962.01 624.203 960.978 624.203ZM960.978 623.188C961.672 623.188 962.224 622.855 962.634 622.191C963.049 621.527 963.256 620.636 963.256 619.519C963.256 618.423 963.049 617.551 962.634 616.903C962.224 616.252 961.672 615.926 960.978 615.926C960.284 615.926 959.729 616.252 959.314 616.903C958.904 617.551 958.699 618.423 958.699 619.519C958.699 620.636 958.904 621.527 959.314 622.191C959.729 622.855 960.284 623.188 960.978 623.188ZM968.976 624V616.478C968.789 616.63 968.61 616.766 968.436 616.884C968.068 617.13 967.594 617.365 967.014 617.589V616.472C967.48 616.29 967.863 616.104 968.163 615.913C968.464 615.718 968.796 615.445 969.16 615.094H970.175V624H969.579H968.976Z" fill="white" fill-opacity="0.9"/>
<g filter="url(#filter0_b_273_375)">
<rect x="303" y="590" width="356" height="36" fill="white" fill-opacity="0.3"/>
</g>
<g filter="url(#filter1_b_273_375)">
<rect x="996" y="601" width="257" height="14" fill="white" fill-opacity="0.5"/>
</g>
<g filter="url(#filter2_b_273_375)">
<rect x="560" y="907" width="257" height="14" fill="white" fill-opacity="0.5"/>
</g>
<g filter="url(#filter3_b_273_375)">
<rect x="681" y="590" width="36" height="36" fill="white" fill-opacity="0.3"/>
</g>
<g filter="url(#filter4_b_273_375)">
<rect x="739" y="590" width="36" height="36" fill="white" fill-opacity="0.3"/>
</g>
<g filter="url(#filter5_b_273_375)">
<rect x="303" y="896" width="36" height="36" fill="white" fill-opacity="0.3"/>
</g>
<g filter="url(#filter6_b_273_375)">
<rect x="781" y="590" width="5" height="36" fill="white" fill-opacity="0.3"/>
</g>
<g filter="url(#filter7_b_273_375)">
<rect x="345" y="896" width="5" height="36" fill="white" fill-opacity="0.3"/>
</g>
<g filter="url(#filter8_b_273_375)">
<rect x="792" y="590" width="3" height="36" fill="white" fill-opacity="0.3"/>
</g>
<g filter="url(#filter9_b_273_375)">
<rect x="356" y="896" width="3" height="36" fill="white" fill-opacity="0.3"/>
</g>
<rect x="1839" y="921" width="225" height="11" fill="white" fill-opacity="0.7"/>
<rect x="2027" y="733" width="188" height="3.99999" transform="rotate(90 2027 733)" fill="white" fill-opacity="0.7"/>
<defs>
<filter id="filter0_b_273_375" x="259" y="546" width="444" height="124" filterUnits="userSpaceOnUse" color-interpolation-filters="sRGB">
<feFlood flood-opacity="0" result="BackgroundImageFix"/>
<feGaussianBlur in="BackgroundImageFix" stdDeviation="22"/>
<feComposite in2="SourceAlpha" operator="in" result="effect1_backgroundBlur_273_375"/>
<feBlend mode="normal" in="SourceGraphic" in2="effect1_backgroundBlur_273_375" result="shape"/>
</filter>
<filter id="filter1_b_273_375" x="952" y="557" width="345" height="102" filterUnits="userSpaceOnUse" color-interpolation-filters="sRGB">
<feFlood flood-opacity="0" result="BackgroundImageFix"/>
<feGaussianBlur in="BackgroundImageFix" stdDeviation="22"/>
<feComposite in2="SourceAlpha" operator="in" result="effect1_backgroundBlur_273_375"/>
<feBlend mode="normal" in="SourceGraphic" in2="effect1_backgroundBlur_273_375" result="shape"/>
</filter>
<filter id="filter2_b_273_375" x="516" y="863" width="345" height="102" filterUnits="userSpaceOnUse" color-interpolation-filters="sRGB">
<feFlood flood-opacity="0" result="BackgroundImageFix"/>
<feGaussianBlur in="BackgroundImageFix" stdDeviation="22"/>
<feComposite in2="SourceAlpha" operator="in" result="effect1_backgroundBlur_273_375"/>
<feBlend mode="normal" in="SourceGraphic" in2="effect1_backgroundBlur_273_375" result="shape"/>
</filter>
<filter id="filter3_b_273_375" x="637" y="546" width="124" height="124" filterUnits="userSpaceOnUse" color-interpolation-filters="sRGB">
<feFlood flood-opacity="0" result="BackgroundImageFix"/>
<feGaussianBlur in="BackgroundImageFix" stdDeviation="22"/>
<feComposite in2="SourceAlpha" operator="in" result="effect1_backgroundBlur_273_375"/>
<feBlend mode="normal" in="SourceGraphic" in2="effect1_backgroundBlur_273_375" result="shape"/>
</filter>
<filter id="filter4_b_273_375" x="695" y="546" width="124" height="124" filterUnits="userSpaceOnUse" color-interpolation-filters="sRGB">
<feFlood flood-opacity="0" result="BackgroundImageFix"/>
<feGaussianBlur in="BackgroundImageFix" stdDeviation="22"/>
<feComposite in2="SourceAlpha" operator="in" result="effect1_backgroundBlur_273_375"/>
<feBlend mode="normal" in="SourceGraphic" in2="effect1_backgroundBlur_273_375" result="shape"/>
</filter>
<filter id="filter5_b_273_375" x="259" y="852" width="124" height="124" filterUnits="userSpaceOnUse" color-interpolation-filters="sRGB">
<feFlood flood-opacity="0" result="BackgroundImageFix"/>
<feGaussianBlur in="BackgroundImageFix" stdDeviation="22"/>
<feComposite in2="SourceAlpha" operator="in" result="effect1_backgroundBlur_273_375"/>
<feBlend mode="normal" in="SourceGraphic" in2="effect1_backgroundBlur_273_375" result="shape"/>
</filter>
<filter id="filter6_b_273_375" x="737" y="546" width="93" height="124" filterUnits="userSpaceOnUse" color-interpolation-filters="sRGB">
<feFlood flood-opacity="0" result="BackgroundImageFix"/>
<feGaussianBlur in="BackgroundImageFix" stdDeviation="22"/>
<feComposite in2="SourceAlpha" operator="in" result="effect1_backgroundBlur_273_375"/>
<feBlend mode="normal" in="SourceGraphic" in2="effect1_backgroundBlur_273_375" result="shape"/>
</filter>
<filter id="filter7_b_273_375" x="301" y="852" width="93" height="124" filterUnits="userSpaceOnUse" color-interpolation-filters="sRGB">
<feFlood flood-opacity="0" result="BackgroundImageFix"/>
<feGaussianBlur in="BackgroundImageFix" stdDeviation="22"/>
<feComposite in2="SourceAlpha" operator="in" result="effect1_backgroundBlur_273_375"/>
<feBlend mode="normal" in="SourceGraphic" in2="effect1_backgroundBlur_273_375" result="shape"/>
</filter>
<filter id="filter8_b_273_375" x="748" y="546" width="91" height="124" filterUnits="userSpaceOnUse" color-interpolation-filters="sRGB">
<feFlood flood-opacity="0" result="BackgroundImageFix"/>
<feGaussianBlur in="BackgroundImageFix" stdDeviation="22"/>
<feComposite in2="SourceAlpha" operator="in" result="effect1_backgroundBlur_273_375"/>
<feBlend mode="normal" in="SourceGraphic" in2="effect1_backgroundBlur_273_375" result="shape"/>
</filter>
<filter id="filter9_b_273_375" x="312" y="852" width="91" height="124" filterUnits="userSpaceOnUse" color-interpolation-filters="sRGB">
<feFlood flood-opacity="0" result="BackgroundImageFix"/>
<feGaussianBlur in="BackgroundImageFix" stdDeviation="22"/>
<feComposite in2="SourceAlpha" operator="in" result="effect1_backgroundBlur_273_375"/>
<feBlend mode="normal" in="SourceGraphic" in2="effect1_backgroundBlur_273_375" result="shape"/>
</filter>
</defs>
</svg>
